<svg width="27" height="27" viewBox="0 0 27 27" fill="none" xmlns="http://www.w3.org/2000/svg">
<path fill-rule="evenodd" clip-rule="evenodd" d="M19.4583 16.7499C18.9685 16.7499 18.2763 16.8176 17.5558 16.9163C17.2192 16.9624 16.9625 17.2191 16.9164 17.5557C16.8177 18.2763 16.75 18.9684 16.75 19.4583C16.75 19.9481 16.8177 20.6402 16.9164 21.3608C16.9625 21.6974 17.2192 21.9541 17.5558 22.0002C18.2763 22.0989 18.9685 22.1666 19.4583 22.1666C19.9482 22.1666 20.6403 22.0989 21.3609 22.0002C21.6975 21.9541 21.9542 21.6974 22.0003 21.3608C22.0989 20.6402 22.1666 19.9481 22.1666 19.4583C22.1666 18.9684 22.0989 18.2763 22.0003 17.5557C21.9542 17.2191 21.6975 16.9624 21.3609 16.9163C20.6403 16.8176 19.9482 16.7499 19.4583 16.7499ZM17.2618 14.7697C15.9619 14.9477 14.9478 15.9618 14.7697 17.2617C14.6676 18.0073 14.5833 18.8171 14.5833 19.4583C14.5833 20.0994 14.6676 20.9092 14.7697 21.6548C14.9478 22.9547 15.9619 23.9688 17.2618 24.1468C18.0073 24.2489 18.8172 24.3333 19.4583 24.3333C20.0995 24.3333 20.9093 24.2489 21.6548 24.1468C22.9547 23.9688 23.9689 22.9547 24.1469 21.6548C24.249 20.9092 24.3333 20.0994 24.3333 19.4583C24.3333 18.8171 24.249 18.0073 24.1469 17.2617C23.9689 15.9618 22.9547 14.9477 21.6548 14.7697C20.9093 14.6676 20.0995 14.5833 19.4583 14.5833C18.8172 14.5833 18.0073 14.6676 17.2618 14.7697Z" fill="#94928C"/>
<path fill-rule="evenodd" clip-rule="evenodd" d="M7.54169 16.7499C7.05182 16.7499 6.35969 16.8176 5.63915 16.9163C5.30253 16.9624 5.04585 17.2191 4.99975 17.5557C4.90107 18.2763 4.83335 18.9684 4.83335 19.4583C4.83335 19.9481 4.90107 20.6402 4.99975 21.3608C5.04585 21.6974 5.30253 21.9541 5.63915 22.0002C6.35969 22.0989 7.05182 22.1666 7.54169 22.1666C8.03155 22.1666 8.72368 22.0989 9.44423 22.0002C9.78085 21.9541 10.0375 21.6974 10.0836 21.3608C10.1823 20.6402 10.25 19.9481 10.25 19.4583C10.25 18.9684 10.1823 18.2763 10.0836 17.5557C10.0375 17.2191 9.78085 16.9624 9.44423 16.9163C8.72368 16.8176 8.03155 16.7499 7.54169 16.7499ZM5.34516 14.7697C4.04527 14.9477 3.03115 15.9618 2.85312 17.2617C2.75101 18.0073 2.66669 18.8171 2.66669 19.4583C2.66669 20.0994 2.75101 20.9092 2.85312 21.6548C3.03115 22.9547 4.04527 23.9688 5.34516 24.1468C6.09072 24.2489 6.90053 24.3333 7.54169 24.3333C8.18285 24.3333 8.99265 24.2489 9.73821 24.1468C11.0381 23.9688 12.0522 22.9547 12.2303 21.6548C12.3324 20.9092 12.4167 20.0994 12.4167 19.4583C12.4167 18.8171 12.3324 18.0073 12.2303 17.2617C12.0522 15.9618 11.0381 14.9477 9.73821 14.7697C8.99265 14.6676 8.18285 14.5833 7.54169 14.5833C6.90053 14.5833 6.09072 14.6676 5.34516 14.7697Z" fill="#94928C"/>
<path fill-rule="evenodd" clip-rule="evenodd" d="M19.4583 4.83341C18.9685 4.83341 18.2763 4.90113 17.5558 4.99981C17.2192 5.04591 16.9625 5.30259 16.9164 5.63921C16.8177 6.35975 16.75 7.05189 16.75 7.54175C16.75 8.03161 16.8177 8.72375 16.9164 9.44429C16.9625 9.78091 17.2192 10.0376 17.5558 10.0837C18.2763 10.1824 18.9685 10.2501 19.4583 10.2501C19.9482 10.2501 20.6403 10.1824 21.3609 10.0837C21.6975 10.0376 21.9542 9.78091 22.0003 9.44429C22.0989 8.72375 22.1666 8.03161 22.1666 7.54175C22.1666 7.05189 22.0989 6.35975 22.0003 5.63921C21.9542 5.30259 21.6975 5.04591 21.3609 4.99981C20.6403 4.90113 19.9482 4.83341 19.4583 4.83341ZM17.2618 2.85318C15.9619 3.03121 14.9478 4.04533 14.7697 5.34522C14.6676 6.09078 14.5833 6.90059 14.5833 7.54175C14.5833 8.18291 14.6676 8.99272 14.7697 9.73828C14.9478 11.0382 15.9619 12.0523 17.2618 12.2303C18.0073 12.3324 18.8172 12.4167 19.4583 12.4167C20.0995 12.4167 20.9093 12.3324 21.6548 12.2303C22.9547 12.0523 23.9689 11.0382 24.1469 9.73828C24.249 8.99272 24.3333 8.18291 24.3333 7.54175C24.3333 6.90059 24.249 6.09078 24.1469 5.34522C23.9689 4.04533 22.9547 3.03121 21.6548 2.85318C20.9093 2.75107 20.0995 2.66675 19.4583 2.66675C18.8172 2.66675 18.0073 2.75107 17.2618 2.85318Z" fill="#94928C"/>
<path fill-rule="evenodd" clip-rule="evenodd" d="M7.54169 4.83341C7.05182 4.83341 6.35969 4.90113 5.63915 4.99981C5.30253 5.04591 5.04585 5.30259 4.99975 5.63921C4.90107 6.35975 4.83335 7.05189 4.83335 7.54175C4.83335 8.03161 4.90107 8.72375 4.99975 9.44429C5.04585 9.78091 5.30253 10.0376 5.63915 10.0837C6.35969 10.1824 7.05182 10.2501 7.54169 10.2501C8.03155 10.2501 8.72368 10.1824 9.44423 10.0837C9.78085 10.0376 10.0375 9.78091 10.0836 9.44429C10.1823 8.72375 10.25 8.03161 10.25 7.54175C10.25 7.05189 10.1823 6.35975 10.0836 5.63921C10.0375 5.30259 9.78085 5.04591 9.44423 4.99981C8.72368 4.90113 8.03155 4.83341 7.54169 4.83341ZM5.34516 2.85318C4.04527 3.03121 3.03115 4.04533 2.85312 5.34522C2.75101 6.09078 2.66669 6.90059 2.66669 7.54175C2.66669 8.18291 2.75101 8.99272 2.85312 9.73828C3.03115 11.0382 4.04527 12.0523 5.34516 12.2303C6.09072 12.3324 6.90053 12.4167 7.54169 12.4167C8.18285 12.4167 8.99265 12.3324 9.73821 12.2303C11.0381 12.0523 12.0522 11.0382 12.2303 9.73828C12.3324 8.99272 12.4167 8.18291 12.4167 7.54175C12.4167 6.90059 12.3324 6.09078 12.2303 5.34522C12.0522 4.04533 11.0381 3.03121 9.73821 2.85318C8.99265 2.75107 8.18285 2.66675 7.54169 2.66675C6.90053 2.66675 6.09072 2.75107 5.34516 2.85318Z" fill="#94928C"/>
</svg>
