<svg width="27" height="27" viewBox="0 0 27 27" fill="none" xmlns="http://www.w3.org/2000/svg">
<path fill-rule="evenodd" clip-rule="evenodd" d="M13.491 5.0189L13.5001 5.0142L13.5095 5.01911L18.3341 7.91384L20.0001 8.91758V20.8668C20.0001 21.5093 19.9984 21.8608 19.9777 22.1134L19.9752 22.142L19.9467 22.1445C19.6941 22.1651 19.3425 22.1668 18.7001 22.1668H8.30005C7.65758 22.1668 7.30603 22.1651 7.05342 22.1445L7.02486 22.142L7.02237 22.1134C7.00174 21.8608 7.00005 21.5093 7.00005 20.8668V8.9176L8.6599 7.91755L13.491 5.0189ZM7.54355 6.06062L2.10938 9.32112C1.59633 9.62895 1.42997 10.2944 1.7378 10.8074C2.04563 11.3205 2.71107 11.4868 3.22412 11.179L4.83338 10.2135V20.8668C4.83338 22.0803 4.83338 22.687 5.06954 23.1505C5.27726 23.5581 5.60872 23.8896 6.01641 24.0973C6.47988 24.3335 7.0866 24.3335 8.30005 24.3335H18.7001C19.9135 24.3335 20.5202 24.3335 20.9837 24.0973C21.3914 23.8896 21.7228 23.5581 21.9306 23.1505C22.1667 22.687 22.1667 22.0803 22.1667 20.8668V10.2134L23.776 11.179C24.2891 11.4868 24.9545 11.3205 25.2624 10.8074C25.5702 10.2944 25.4038 9.62895 24.8908 9.32112L19.4504 6.05687L15.2891 3.54973C14.9865 3.36745 14.7544 3.22757 14.5576 3.12238C14.5117 3.0967 14.4651 3.07281 14.4178 3.05071C14.2541 2.97081 14.1122 2.91762 13.9663 2.88548C13.6592 2.81779 13.3409 2.81779 13.0338 2.88548C12.8876 2.9177 12.7453 2.97108 12.581 3.05134C12.5346 3.07307 12.4888 3.09653 12.4437 3.12173C12.2467 3.22699 12.0142 3.36707 11.711 3.54973L7.54355 6.06062Z" fill="#94928C"/>
<path fill-rule="evenodd" clip-rule="evenodd" d="M14.5833 22.1666V17.8333C14.5833 17.2349 14.0983 16.7499 13.5 16.7499C12.9017 16.7499 12.4167 17.2349 12.4167 17.8333V22.1666H14.5833ZM13.5 14.5833C11.7051 14.5833 10.25 16.0383 10.25 17.8333V24.3333H16.75V17.8333C16.75 16.0383 15.2949 14.5833 13.5 14.5833Z" fill="#94928C"/>
</svg>
