<svg width="27" height="27" viewBox="0 0 27 27" fill="none" xmlns="http://www.w3.org/2000/svg">
<path fill-rule="evenodd" clip-rule="evenodd" d="M13.5 14.5834C9.31184 14.5834 5.91667 17.9786 5.91667 22.1667V24.3334C5.91667 24.9317 5.43164 25.4167 4.83333 25.4167C4.23502 25.4167 3.75 24.9317 3.75 24.3334V22.1667C3.75 16.782 8.11522 12.4167 13.5 12.4167C18.8848 12.4167 23.25 16.782 23.25 22.1667V24.3334C23.25 24.9317 22.765 25.4167 22.1667 25.4167C21.5684 25.4167 21.0833 24.9317 21.0833 24.3334V22.1667C21.0833 17.9786 17.6882 14.5834 13.5 14.5834Z" fill="#94928C"/>
<path fill-rule="evenodd" clip-rule="evenodd" d="M13.5 12.4166C15.8932 12.4166 17.8333 10.4765 17.8333 8.08325C17.8333 5.69002 15.8932 3.74992 13.5 3.74992C11.1068 3.74992 9.16667 5.69002 9.16667 8.08325C9.16667 10.4765 11.1068 12.4166 13.5 12.4166ZM13.5 14.5833C17.0899 14.5833 20 11.6731 20 8.08325C20 4.4934 17.0899 1.58325 13.5 1.58325C9.91015 1.58325 7 4.4934 7 8.08325C7 11.6731 9.91015 14.5833 13.5 14.5833Z" fill="#94928C"/>
</svg>
