<svg width="22" height="13" viewBox="0 0 22 13" fill="none" xmlns="http://www.w3.org/2000/svg">
<path d="M1 10.3115H21V12.3115H1V10.3115ZM2.15 6.26152L3 4.78152L3.85 6.26152L5.15 5.51152L4.3 4.03152H6V2.53152H4.3L5.15 1.06152L3.85 0.311523L3 1.78152L2.15 0.311523L0.85 1.06152L1.7 2.53152H0V4.03152H1.7L0.85 5.51152L2.15 6.26152ZM8.85 5.51152L10.15 6.26152L11 4.78152L11.85 6.26152L13.15 5.51152L12.3 4.03152H14V2.53152H12.3L13.15 1.06152L11.85 0.311523L11 1.78152L10.15 0.311523L8.85 1.06152L9.7 2.53152H8V4.03152H9.7L8.85 5.51152ZM22 2.53152H20.3L21.15 1.06152L19.85 0.311523L19 1.78152L18.15 0.311523L16.85 1.06152L17.7 2.53152H16V4.03152H17.7L16.85 5.51152L18.15 6.26152L19 4.78152L19.85 6.26152L21.15 5.51152L20.3 4.03152H22V2.53152Z" fill="white"/>
</svg>
