<svg width="30" height="20" viewBox="0 0 30 20" fill="none" xmlns="http://www.w3.org/2000/svg">
<path fill-rule="evenodd" clip-rule="evenodd" d="M0 15.1179C0.26736 14.9835 0.4692 14.7517 0.66912 14.5041C0.91308 14.2026 1.15212 13.9161 1.44816 13.6711C1.803 13.3778 2.27748 13.0971 2.87436 13.0083C2.75508 13.7051 2.69487 14.4108 2.69436 15.1179H0ZM2.00928 7.55967L2.00964 7.55991L2.0094 7.55955C2.30784 7.5778 2.59776 7.4788 2.89368 7.36518C3.25452 7.22689 3.60384 7.09936 3.98172 7.03627C4.43676 6.96072 4.99032 6.95721 5.55396 7.18434C4.66032 8.26198 3.94464 9.49422 3.45264 10.8361C2.97948 10.4584 2.70768 9.97581 2.5458 9.54282C2.41104 9.18139 2.34612 8.81295 2.28456 8.42891C2.23416 8.11354 2.1744 7.81098 2.00928 7.55967ZM7.49976 2.02667L7.49988 2.02691V2.02655C7.74912 2.19288 8.04948 2.2532 8.36232 2.30385C8.74344 2.36598 9.1092 2.43138 9.46764 2.56724C9.8994 2.73091 10.3804 3.00676 10.756 3.48762C9.42312 3.98117 8.19888 4.70124 7.12788 5.60034C6.90192 5.03185 6.90516 4.47327 6.9804 4.01429C7.04304 3.63352 7.16952 3.28152 7.3068 2.91791C7.41984 2.61958 7.518 2.3273 7.49976 2.02667ZM14.9998 0.00134277V0.00170541L15.0001 0.00134277C15.1333 0.271024 15.3635 0.474464 15.6092 0.675848C15.9084 0.921837 16.1927 1.16275 16.4358 1.46096C16.7286 1.82082 17.0089 2.30276 17.0952 2.90957C15.7084 2.66989 14.2912 2.66993 12.9044 2.90969C12.9908 2.30276 13.2709 1.82082 13.564 1.46096C13.8071 1.16275 14.0914 0.921837 14.3905 0.675848C14.6364 0.474464 14.8664 0.271024 14.9998 0.00134277ZM22.4998 2.02655V2.02691L22.5 2.02667C22.4818 2.3273 22.58 2.61946 22.693 2.91779C22.83 3.2814 22.9567 3.6334 23.0194 4.01417C23.0944 4.47302 23.0976 5.03161 22.8718 5.6001C21.801 4.701 20.5765 3.98117 19.2439 3.48738C19.6195 3.00664 20.1005 2.73091 20.5321 2.56712C20.8907 2.43113 21.2564 2.36574 21.6376 2.30361C21.9504 2.25308 22.2508 2.19276 22.4998 2.02655ZM27.9904 7.55943L27.9901 7.55967H27.9905C27.8256 7.81086 27.7658 8.11342 27.7154 8.42879C27.6538 8.81271 27.5888 9.18127 27.4542 9.54257C27.2923 9.97568 27.0205 10.4581 26.5472 10.8359C26.0555 9.49398 25.3397 8.26174 24.446 7.1841C25.0098 6.95709 25.563 6.96047 26.0183 7.03602C26.396 7.09924 26.7455 7.22677 27.1062 7.36506C27.4021 7.4788 27.692 7.5778 27.9904 7.55943ZM27.1254 13.0081C27.7222 13.097 28.1969 13.3776 28.5517 13.671C28.8478 13.9159 29.0868 14.2023 29.3309 14.5039C29.5306 14.7515 29.7325 14.9833 30 15.1178H27.3056C27.3049 14.3985 27.2428 13.6938 27.1254 13.0081ZM18.5762 4.25387C23.1053 5.76147 26.3785 10.0536 26.3975 15.1181H24.1565C24.3049 10.6942 22.3889 6.70119 18.5762 4.25387Z" fill="white"/>
<path fill-rule="evenodd" clip-rule="evenodd" d="M19.0312 15.1177H20.1958C20.2522 13.8424 20.1436 12.3314 19.7342 11.012C19.6535 10.7518 19.561 10.4989 19.456 10.2577C19.2082 9.68767 18.8746 9.17152 18.4769 8.69453C18.0349 8.16483 17.5081 7.68833 16.9144 7.313C16.7384 7.20156 16.5566 7.09964 16.3699 7.00766V7.00742C16.1824 6.9149 15.9898 6.83325 15.7931 6.76288L15.7924 6.76252C13.5242 5.95105 11.2303 6.52813 9.30611 7.58304C8.93099 7.78854 8.56991 8.01228 8.22611 8.24715C7.88243 8.48202 7.55531 8.72861 7.24763 8.98016H7.24739L7.24703 8.98065C6.88175 9.27922 6.42455 9.68767 5.97227 10.1707C5.88309 10.2657 5.79556 10.3623 5.70971 10.4604C5.48063 10.7218 5.12807 11.0884 5.23259 11.4676C5.31551 11.7684 5.70035 11.6796 5.83463 11.5759C6.04031 11.4647 6.26639 11.2884 6.45983 11.1234C6.72179 10.9 6.96899 10.6595 7.22831 10.433C8.27711 9.51675 9.37043 8.81021 10.4471 8.33201C10.6818 8.22793 10.9168 8.13401 11.1509 8.05121C11.3843 7.96853 11.6165 7.89697 11.8465 7.83677L11.8476 7.83653C13.8512 7.31203 16.0285 7.65194 17.4226 9.29844C18.7655 10.8846 19.0106 13.0079 19.0312 15.1177ZM4.58003 13.3248C4.70507 13.2071 4.83263 13.0535 4.96559 12.8834C5.15147 12.6457 5.17007 12.4155 5.09675 12.2495C5.06927 12.1874 5.02883 12.1341 4.97975 12.0927C4.93115 12.0517 4.87367 12.0224 4.81163 12.0082C4.66007 11.9733 4.47875 12.0278 4.32515 12.2166C4.15115 12.4301 3.91079 12.7946 3.86171 13.1173C3.85259 13.1778 3.85007 13.2366 3.85631 13.2917C3.86231 13.3455 3.87647 13.3965 3.90047 13.4429L3.90059 13.4435L3.90071 13.4434C3.93995 13.5192 4.00607 13.5591 4.09415 13.5624C4.11251 13.5631 4.13243 13.5623 4.15343 13.5599C4.17419 13.5577 4.19651 13.5536 4.22039 13.5479V13.5481L4.22135 13.5478C4.34015 13.5192 4.45871 13.4388 4.58003 13.3248ZM16.6615 15.1177H17.8166C17.8715 13.7433 17.6518 12.3236 17.0176 11.0953C16.4408 9.9779 15.4873 9.2183 14.253 9.03468C12.4511 8.76681 10.6328 9.53536 9.09575 10.6354C7.42211 11.8329 6.04055 13.4591 4.83323 15.1177L6.35903 15.1156C7.73279 13.1534 10.8926 10.1746 13.2168 10.155C13.9576 10.1487 14.7106 10.3241 15.2674 10.8247C15.6709 11.1874 16.1599 11.8919 16.136 12.4635C16.1219 12.8026 15.8233 12.9066 15.537 12.8016C15.3146 12.7199 15.1574 12.515 15.0018 12.2997C14.496 11.6 13.7074 11.2575 12.842 11.3768C11.81 11.5191 10.5308 12.3266 9.70571 13.0609C8.99411 13.6944 8.34107 14.3877 7.72475 15.1176H9.36527C9.96659 14.3862 10.6015 13.7624 11.4176 13.25C11.6761 13.0879 11.9941 12.9164 12.3284 12.8007C13.1718 12.5084 14.0112 12.5824 14.3837 13.6408C14.5302 14.0568 14.5517 14.4217 14.509 15.0906L14.5088 15.1177H15.6245L15.6272 15.0834C15.6281 14.7172 15.6203 14.4704 15.653 14.1075C15.6812 13.7947 15.7777 13.4705 16.066 13.432C16.6788 13.3026 16.6494 14.6762 16.6615 15.1177ZM8.79815 18.6701H7.89167L7.66715 19.4661H6.94475L7.90055 16.4179H8.81615L9.79895 19.4661H9.04487L8.79815 18.6701ZM7.99487 18.1544H8.69039C8.50787 17.5591 8.38967 17.1505 8.33579 16.9289H8.32679L8.18327 17.5078L7.99487 18.1544ZM5.46863 18.6701H4.56215L4.33763 19.4661H3.61523L4.57103 16.4179H5.48639L6.46931 19.4661H5.71523L5.46863 18.6701ZM4.66535 18.1544H5.36075C5.17835 17.5591 5.06015 17.1505 5.00639 16.9289H4.99739L4.85387 17.5078L4.66535 18.1544ZM10.4897 19.4524V16.4584C10.7888 16.4133 11.109 16.3908 11.4502 16.3908C12.0949 16.3908 12.5579 16.5262 12.8384 16.7985C13.1188 17.0706 13.2588 17.4262 13.2588 17.8649C13.2588 18.3835 13.0994 18.7854 12.78 19.0703C12.4606 19.3552 11.9677 19.4976 11.302 19.4976C10.9939 19.4976 10.7231 19.4826 10.4897 19.4524ZM11.1853 16.9561V18.9413C11.2242 18.9504 11.3081 18.9551 11.4367 18.9551C11.7821 18.9551 12.05 18.8631 12.2392 18.6799C12.4284 18.4967 12.5226 18.2344 12.5226 17.8923C12.5226 17.5787 12.4366 17.3398 12.2639 17.1755C12.0912 17.0113 11.842 16.9291 11.5174 16.9291C11.3813 16.9289 11.2706 16.938 11.1853 16.9561ZM14.0032 16.4179H14.6988V17.5891H15.888V16.4179H16.5835V19.4661H15.888V18.1953H14.6988V19.4661H14.0032V16.4179ZM19.1056 18.6701H18.1991L17.9746 19.4661H17.252L18.2078 16.4179H19.1233L20.106 19.4661H19.352L19.1056 18.6701ZM18.3023 18.1544H18.9977C18.8153 17.5591 18.697 17.1505 18.6432 16.9289H18.6342L18.4906 17.5078L18.3023 18.1544ZM22.4351 18.6701H21.5286L21.3041 19.4661H20.5817L21.5375 16.4179H22.453L23.4356 19.4661H22.6818L22.4351 18.6701ZM21.6317 18.1544H22.3272C22.1448 17.5591 22.0266 17.1505 21.9727 16.9289H21.9638L21.8202 17.5078L21.6317 18.1544ZM24.1265 19.4661V16.4585C24.3808 16.4134 24.6935 16.3909 25.0644 16.3909C25.5222 16.3909 25.8512 16.4669 26.0516 16.6192C26.2522 16.7714 26.3524 16.9894 26.3524 17.2727C26.3524 17.4416 26.3023 17.5938 26.2013 17.7302C26.1004 17.8667 25.9693 17.9633 25.8094 18.019V18.0372C25.9979 18.108 26.134 18.2949 26.2177 18.5978C26.3717 19.1437 26.4556 19.4331 26.4691 19.4663H25.76C25.7002 19.3533 25.6284 19.1166 25.5446 18.7563C25.5026 18.5753 25.4459 18.4487 25.3741 18.3763C25.3022 18.3039 25.1872 18.2677 25.0284 18.2677H24.8131V19.4662H24.1265V19.4661ZM24.8131 16.9289V17.7657H25.1003C25.2739 17.7657 25.4106 17.7256 25.5109 17.6463C25.6111 17.5672 25.6613 17.461 25.6613 17.3269C25.6613 17.1926 25.6163 17.0886 25.5258 17.0155C25.4353 16.9422 25.3067 16.9061 25.1406 16.9061C24.9775 16.9062 24.8684 16.9138 24.8131 16.9289ZM12.4976 15.1205L13.4234 15.1176C13.5451 14.3294 13.3072 13.7229 12.5162 13.8674C11.8495 13.9895 11.1335 14.6569 10.7009 15.1176L11.9215 15.1121C12.0576 15.0219 12.3238 14.9193 12.4331 14.9958C12.4741 15.0246 12.4955 15.0651 12.4976 15.1205ZM21.9444 15.1183L21.9528 15.1179H21.957C22.0787 15.1247 22.2902 15.0681 22.4123 14.8607C22.4366 14.8192 22.4574 14.7718 22.4732 14.7181C22.4894 14.6633 22.5006 14.6012 22.5053 14.5315H22.5055L22.5062 14.5172C22.5988 11.2573 21.608 8.55866 19.9261 6.72504C19.5995 6.36917 19.2461 6.04534 18.8694 5.75608C18.493 5.46717 18.0934 5.21309 17.6738 4.99659V4.99671L17.6672 4.99321L17.667 4.99309C16.2532 4.26503 14.6498 3.98532 13.0758 4.11974C12.7693 4.14585 12.4644 4.18761 12.1621 4.24485C11.86 4.30178 11.56 4.37479 11.2648 4.46255L11.2607 4.46388C9.64199 4.94631 8.13587 5.90403 6.90839 7.16081C6.66919 7.40574 6.44108 7.66142 6.22475 7.92706C6.11732 8.05896 6.01282 8.19325 5.91131 8.32983C6.77219 7.58147 7.69547 6.92498 8.66147 6.40326C8.87903 6.28577 9.09791 6.17553 9.31727 6.07314C9.53658 5.97078 9.759 5.87536 9.98423 5.78702L9.98495 5.78678L9.98555 5.78654C10.8389 5.45231 11.6802 5.23908 12.5216 5.14382C13.3632 5.04857 14.2051 5.0713 15.0601 5.20825C15.6688 5.3058 16.2625 5.46633 16.7976 5.69104C16.9013 5.73444 17.0036 5.78086 17.1036 5.82969C17.2022 5.8778 17.2993 5.9293 17.3946 5.98333H17.3948L17.3963 5.98405V5.98417C19.28 7.02361 20.5888 9.15677 21.1651 11.5652C21.2776 12.0348 21.3622 12.5147 21.4177 12.9979C21.4732 13.4812 21.4998 13.9694 21.4964 14.4572V14.4574L21.4962 14.4854C21.5058 14.7463 21.5945 14.9645 21.7464 15.0627C21.7748 15.0809 21.8054 15.0952 21.8381 15.1044H21.8383C21.8718 15.1139 21.9071 15.1186 21.9444 15.1183Z" fill="white"/>
</svg>
