<svg width="58" height="64" viewBox="0 0 58 64" fill="none" xmlns="http://www.w3.org/2000/svg">
<path d="M47.4147 8.15492C47.1614 8.15492 46.908 8.09159 46.6864 7.96492C40.6063 4.82992 35.3497 3.49992 29.048 3.49992C22.778 3.49992 16.8247 4.98825 11.4097 7.96492C10.6497 8.37659 9.69969 8.09159 9.25635 7.33159C8.84468 6.57159 9.12968 5.58992 9.88968 5.17825C15.7797 1.97992 22.2397 0.333252 29.048 0.333252C35.793 0.333252 41.683 1.82159 48.143 5.14659C48.9347 5.55825 49.2197 6.50825 48.808 7.26825C48.523 7.83825 47.9847 8.15492 47.4147 8.15492ZM2.09968 24.7799C1.78302 24.7799 1.46635 24.6849 1.18135 24.4949C0.453017 23.9883 0.294684 23.0066 0.80135 22.2783C3.93635 17.8449 7.92635 14.3616 12.6764 11.9233C22.6197 6.79325 35.3497 6.76159 45.3247 11.8916C50.0747 14.3299 54.0647 17.7816 57.1997 22.1833C57.7063 22.8799 57.548 23.8933 56.8197 24.3999C56.0914 24.9066 55.1097 24.7483 54.603 24.0199C51.753 20.0299 48.143 16.8949 43.868 14.7099C34.7797 10.0549 23.158 10.0549 14.1014 14.7416C9.79468 16.9583 6.18468 20.1249 3.33468 24.1149C3.08135 24.5583 2.60635 24.7799 2.09968 24.7799ZM21.8914 63.0016C21.4797 63.0016 21.068 62.8433 20.783 62.5266C18.028 59.7716 16.5397 57.9983 14.418 54.1666C12.233 50.2716 11.093 45.5216 11.093 40.4233C11.093 31.0183 19.1364 23.3549 29.0163 23.3549C38.8964 23.3549 46.9397 31.0183 46.9397 40.4233C46.9397 41.3099 46.243 42.0066 45.3563 42.0066C44.4697 42.0066 43.773 41.3099 43.773 40.4233C43.773 32.7599 37.1547 26.5216 29.0163 26.5216C20.878 26.5216 14.2597 32.7599 14.2597 40.4233C14.2597 44.9833 15.273 49.1949 17.2047 52.6149C19.2314 56.2566 20.6247 57.8083 23.063 60.2783C23.6647 60.9116 23.6647 61.8933 23.063 62.5266C22.7147 62.8433 22.303 63.0016 21.8914 63.0016ZM44.5964 57.1433C40.828 57.1433 37.503 56.1933 34.7797 54.3249C30.0613 51.1266 27.243 45.9333 27.243 40.4233C27.243 39.5366 27.9397 38.8399 28.8263 38.8399C29.713 38.8399 30.4097 39.5366 30.4097 40.4233C30.4097 44.8883 32.6897 49.0999 36.553 51.6966C38.8013 53.2166 41.4297 53.9449 44.5964 53.9449C45.3563 53.9449 46.623 53.8499 47.8897 53.6283C48.7447 53.4699 49.568 54.0399 49.7264 54.9266C49.8847 55.7816 49.3147 56.6049 48.428 56.7633C46.623 57.1116 45.0397 57.1433 44.5964 57.1433ZM38.2313 63.6666C38.1047 63.6666 37.9464 63.6349 37.8197 63.6033C32.7847 62.2099 29.4914 60.3416 26.0397 56.9533C21.6064 52.5516 19.168 46.6933 19.168 40.4233C19.168 35.2933 23.538 31.1133 28.9214 31.1133C34.3047 31.1133 38.6747 35.2933 38.6747 40.4233C38.6747 43.8116 41.6197 46.5666 45.2613 46.5666C48.903 46.5666 51.848 43.8116 51.848 40.4233C51.848 28.4849 41.5564 18.7949 28.8897 18.7949C19.8964 18.7949 11.663 23.7983 7.95802 31.5566C6.72302 34.1216 6.08968 37.1299 6.08968 40.4233C6.08968 42.8933 6.31135 46.7883 8.21135 51.8549C8.52802 52.6783 8.11635 53.5966 7.29302 53.8816C6.46968 54.1983 5.55135 53.7549 5.26635 52.9633C3.71468 48.8149 2.95468 44.6983 2.95468 40.4233C2.95468 36.6233 3.68302 33.1716 5.10802 30.1633C9.31968 21.3283 18.6614 15.5966 28.8897 15.5966C43.298 15.5966 55.0147 26.7116 55.0147 40.3916C55.0147 45.5216 50.6447 49.7016 45.2613 49.7016C39.878 49.7016 35.508 45.5216 35.508 40.3916C35.508 37.0033 32.563 34.2483 28.9214 34.2483C25.2797 34.2483 22.3347 37.0033 22.3347 40.3916C22.3347 45.8066 24.4247 50.8733 28.2564 54.6733C31.2647 57.6499 34.1464 59.2966 38.6114 60.5316C39.4664 60.7533 39.9414 61.6399 39.7197 62.4633C39.5614 63.1916 38.8964 63.6666 38.2313 63.6666Z" fill="#362E00"/>
</svg>
