<svg width="21" height="11" viewBox="0 0 21 11" fill="none" xmlns="http://www.w3.org/2000/svg">
<path d="M15.5 0.869141H11.5V2.86914H15.5C17.15 2.86914 18.5 4.21914 18.5 5.86914C18.5 7.51914 17.15 8.86914 15.5 8.86914H11.5V10.8691H15.5C18.26 10.8691 20.5 8.62914 20.5 5.86914C20.5 3.10914 18.26 0.869141 15.5 0.869141ZM9.5 8.86914H5.5C3.85 8.86914 2.5 7.51914 2.5 5.86914C2.5 4.21914 3.85 2.86914 5.5 2.86914H9.5V0.869141H5.5C2.74 0.869141 0.5 3.10914 0.5 5.86914C0.5 8.62914 2.74 10.8691 5.5 10.8691H9.5V8.86914ZM6.5 4.86914H14.5V6.86914H6.5V4.86914Z" fill="white"/>
</svg>
