<svg width="18" height="20" viewBox="0 0 18 20" fill="none" xmlns="http://www.w3.org/2000/svg">
<path d="M4.00006 9H6.00006V11H4.00006V9ZM18.0001 4V18C18.0001 19.1 17.1001 20 16.0001 20H2.00006C0.890061 20 6.10352e-05 19.1 6.10352e-05 18L0.010061 4C0.010061 2.9 0.890061 2 2.00006 2H3.00006V0H5.00006V2H13.0001V0H15.0001V2H16.0001C17.1001 2 18.0001 2.9 18.0001 4ZM2.00006 6H16.0001V4H2.00006V6ZM16.0001 18V8H2.00006V18H16.0001ZM12.0001 11H14.0001V9H12.0001V11ZM8.00006 11H10.0001V9H8.00006V11Z" fill="black"/>
</svg>
