<svg width="25" height="24" viewBox="0 0 25 24" fill="none" xmlns="http://www.w3.org/2000/svg">
<path fill-rule="evenodd" clip-rule="evenodd" d="M7.7352 6.75275L6.01493 7.18282C5.12459 7.4054 4.5 8.20537 4.5 9.12311V18C4.5 19.1046 5.39543 20 6.5 20H18.5C19.6046 20 20.5 19.1046 20.5 18V9.12311C20.5 8.20537 19.8754 7.4054 18.9851 7.18282L17.2648 6.75275L15.7265 4.4453C15.541 4.1671 15.2288 4 14.8944 4H10.1056C9.7712 4 9.45897 4.1671 9.2735 4.4453L7.7352 6.75275ZM6.5 5L5.52986 5.24254C3.74919 5.6877 2.5 7.28764 2.5 9.12311V18C2.5 20.2091 4.29086 22 6.5 22H18.5C20.7091 22 22.5 20.2091 22.5 18V9.12311C22.5 7.28763 21.2508 5.6877 19.4701 5.24254L18.5 5L17.3906 3.3359C16.8342 2.5013 15.8975 2 14.8944 2H10.1056C9.10249 2 8.1658 2.5013 7.6094 3.3359L6.5 5Z" fill="#362E00"/>
<path fill-rule="evenodd" clip-rule="evenodd" d="M16.5 13C16.5 15.2091 14.7091 17 12.5 17C10.2909 17 8.5 15.2091 8.5 13C8.5 10.7909 10.2909 9 12.5 9C14.7091 9 16.5 10.7909 16.5 13ZM14.5 13C14.5 14.1046 13.6046 15 12.5 15C11.3954 15 10.5 14.1046 10.5 13C10.5 11.8954 11.3954 11 12.5 11C13.6046 11 14.5 11.8954 14.5 13Z" fill="#362E00"/>
<path d="M17.5 11C18.0523 11 18.5 10.5523 18.5 10C18.5 9.44771 18.0523 9 17.5 9C16.9477 9 16.5 9.44771 16.5 10C16.5 10.5523 16.9477 11 17.5 11Z" fill="#362E00"/>
</svg>
