<svg width="18" height="18" viewBox="0 0 18 18" fill="none" xmlns="http://www.w3.org/2000/svg">
<path d="M16.7782 16.7781C16.1645 17.3918 15.1695 17.3918 14.5558 16.7781L9 11.2223L3.44416 16.7781C2.83048 17.3918 1.83551 17.3918 1.22183 16.7781C0.608145 16.1644 0.608145 15.1695 1.22183 14.5558L6.77766 8.99995L1.22183 3.44412C0.608146 2.83043 0.608145 1.83546 1.22183 1.22178C1.83551 0.608097 2.83048 0.608097 3.44416 1.22178L9 6.77762L14.5558 1.22178C15.1695 0.608099 16.1645 0.608097 16.7782 1.22178C17.3919 1.83546 17.3919 2.83043 16.7782 3.44411L11.2223 8.99995L16.7782 14.5558C17.3919 15.1695 17.3919 16.1644 16.7782 16.7781Z" fill="#362E00"/>
</svg>
