<svg width="40" height="41" viewBox="0 0 40 41" fill="none" xmlns="http://www.w3.org/2000/svg">
<path d="M20.0329 5.73758C19.8997 5.73758 19.7832 5.63772 19.7832 5.50452V2.02457C19.7832 1.89136 19.8997 1.7915 20.0329 1.7915C20.1661 1.7915 20.2827 1.89136 20.2827 2.02457V5.50452C20.266 5.63772 20.1661 5.73758 20.0329 5.73758Z" fill="#F3F3F3"/>
<path d="M20.034 5.75408C19.8841 5.75408 19.7676 5.63755 19.7676 5.50435V2.02439C19.7676 1.89119 19.8841 1.77466 20.034 1.77466C20.1839 1.77466 20.3004 1.89119 20.3004 2.02439V5.50435C20.3004 5.63755 20.1672 5.75408 20.034 5.75408ZM20.034 1.80783C19.9175 1.80783 19.8009 1.90786 19.8009 2.02439V5.50435C19.8009 5.62088 19.9008 5.72091 20.034 5.72091C20.1505 5.72091 20.267 5.62088 20.267 5.50435V2.02439C20.2505 1.90786 20.1505 1.80783 20.034 1.80783Z" fill="white"/>
<path d="M21.6979 3.87274C21.5647 3.85607 21.4648 3.75621 21.4648 3.623L21.5814 2.07441C21.5979 1.94138 21.7146 1.84135 21.8478 1.85802C21.981 1.87469 22.0808 1.97472 22.0808 2.10793L21.9643 3.65635C21.9476 3.78955 21.8311 3.88941 21.6979 3.87291V3.87274Z" fill="#F3F3F3"/>
<path d="M21.699 3.88947C21.5491 3.8728 21.4492 3.75627 21.4492 3.62306L21.5658 2.07447C21.5824 1.94144 21.699 1.82491 21.8488 1.84141C21.9985 1.85808 22.0986 1.97478 22.0986 2.10781L21.982 3.65641C21.9654 3.80628 21.8488 3.90614 21.699 3.88947ZM21.8488 1.87475C21.7323 1.87475 21.6156 1.95811 21.6156 2.07464L21.4991 3.62324C21.4991 3.7396 21.5824 3.83963 21.7156 3.85613C21.8322 3.85613 21.9487 3.77294 21.9487 3.65641L22.0652 2.10781C22.0652 1.99128 21.9654 1.89142 21.8487 1.87475H21.8488Z" fill="white"/>
<path d="M22.9462 6.03731C22.8128 6.00396 22.7296 5.88743 22.7463 5.75423L23.4289 2.34079C23.4623 2.20776 23.5788 2.1244 23.712 2.15774C23.8452 2.19109 23.9284 2.30762 23.9117 2.44082L23.2291 5.85426C23.2124 5.97062 23.0792 6.05398 22.946 6.03731H22.9462Z" fill="#F3F3F3"/>
<path d="M22.9472 6.05389C22.7971 6.02055 22.714 5.88734 22.7306 5.75414L23.4133 2.3407C23.4467 2.20767 23.5799 2.10764 23.7296 2.14098C23.8794 2.17433 23.9628 2.30753 23.9461 2.44073L23.2634 5.85417C23.2301 5.9872 23.0969 6.07056 22.9472 6.05389ZM23.7296 2.17433C23.613 2.15766 23.4965 2.22417 23.4632 2.34088L22.7806 5.75431C22.764 5.87067 22.8305 5.9872 22.9637 6.02072C23.0802 6.03722 23.1967 5.97053 23.2301 5.854L23.9128 2.44073C23.9295 2.30753 23.8463 2.20767 23.7296 2.17433Z" fill="white"/>
<path d="M24.9439 4.53863C24.9122 4.53099 24.8823 4.51717 24.856 4.49796C24.8296 4.47876 24.8073 4.45454 24.7903 4.4267C24.7733 4.39886 24.7619 4.36794 24.7569 4.33572C24.7518 4.30349 24.7532 4.27058 24.7609 4.23888L25.1772 2.74047C25.2103 2.60727 25.3435 2.54058 25.4768 2.57393C25.61 2.60727 25.6933 2.74047 25.66 2.87368L25.2437 4.37226C25.2103 4.50529 25.0771 4.57197 24.9439 4.53863Z" fill="#F3F3F3"/>
<path d="M24.9442 4.55545C24.811 4.52211 24.7112 4.37223 24.7612 4.2392L25.1774 2.74045C25.2106 2.60742 25.3605 2.52406 25.4937 2.5574C25.6269 2.59075 25.7268 2.74062 25.6769 2.87365L25.2606 4.3724C25.2273 4.50543 25.0941 4.58879 24.9444 4.55545H24.9442ZM25.4937 2.60742C25.3772 2.57407 25.244 2.64076 25.2106 2.75729L24.7945 4.2557C24.7612 4.37223 24.8277 4.48893 24.9609 4.52211C25.0774 4.55545 25.2106 4.48893 25.244 4.3724L25.6602 2.87365C25.6769 2.75729 25.6104 2.64076 25.4937 2.60725V2.60742Z" fill="white"/>
<path d="M25.7615 6.88662C25.6283 6.8366 25.5785 6.68673 25.6283 6.5702L26.9604 3.35665C27.0102 3.24012 27.1603 3.17343 27.2766 3.24012C27.41 3.28996 27.46 3.44001 27.41 3.55637L26.078 6.76992C26.0281 6.88662 25.8781 6.95313 25.7617 6.88662H25.7615Z" fill="#F3F3F3"/>
<path d="M25.7603 6.90322C25.6963 6.87883 25.6446 6.83008 25.6165 6.76764C25.5884 6.70521 25.5862 6.63418 25.6104 6.57012L26.9425 3.35658C26.9925 3.22337 27.1424 3.17336 27.2922 3.22337C27.3562 3.24776 27.4079 3.29651 27.436 3.35895C27.4641 3.42139 27.4663 3.49241 27.4421 3.55647L26.1101 6.77001C26.0434 6.90322 25.8935 6.96973 25.7603 6.90322ZM27.2756 3.25672C27.159 3.20687 27.0258 3.25672 26.9758 3.37325L25.6438 6.5868C25.5939 6.70333 25.6604 6.81986 25.777 6.86987C25.8935 6.91972 26.0267 6.86987 26.0767 6.75334L27.4088 3.5398C27.4421 3.43976 27.3921 3.30656 27.2756 3.25672Z" fill="white"/>
<path d="M28.0091 5.82087C27.8924 5.75419 27.8423 5.62098 27.8924 5.50445L28.5917 4.12258C28.6582 4.00587 28.7914 3.95586 28.9248 4.02255C29.0413 4.08923 29.0912 4.22244 29.0413 4.3388L28.3418 5.72084C28.2753 5.83737 28.1421 5.88756 28.0089 5.82087H28.0091Z" fill="#F3F3F3"/>
<path d="M28.0093 5.83764C27.8759 5.77095 27.8261 5.62108 27.8926 5.48787L28.592 4.106C28.6585 3.97262 28.8085 3.92278 28.9416 3.9893C29.0748 4.05598 29.1248 4.20586 29.0581 4.33906L28.3589 5.72094C28.2922 5.85414 28.1423 5.90415 28.0091 5.83747L28.0093 5.83764ZM28.9251 4.02264C28.8084 3.9728 28.6752 4.00597 28.6253 4.1225L27.926 5.50455C27.8761 5.6044 27.926 5.73761 28.0258 5.8043C28.1423 5.85414 28.2756 5.82097 28.3256 5.70444L29.0249 4.32239C29.0748 4.22253 29.0249 4.08933 28.9251 4.02264Z" fill="white"/>
<path d="M28.3414 8.28514C28.2249 8.20195 28.1915 8.05208 28.2747 7.95222L30.2062 5.07159C30.2727 4.95506 30.4228 4.93839 30.5392 5.00508C30.6559 5.08827 30.689 5.23814 30.6058 5.338L28.6743 8.21863C28.6078 8.33516 28.4579 8.3685 28.3414 8.28514Z" fill="#F3F3F3"/>
<path d="M28.3418 8.30162C28.2253 8.21843 28.1919 8.05188 28.2586 7.93535L30.19 5.05473C30.2732 4.93819 30.423 4.90485 30.5562 4.98821C30.6728 5.0714 30.7061 5.23794 30.6396 5.35447L28.7081 8.2351C28.6249 8.35163 28.4583 8.3848 28.3418 8.30162ZM30.5396 5.02155C30.4399 4.95487 30.2898 4.97154 30.2233 5.0714L28.2918 7.95202C28.2253 8.05171 28.2584 8.18508 28.3585 8.2516C28.4583 8.31829 28.6082 8.30162 28.6747 8.20176L30.6062 5.3378C30.6728 5.23794 30.6396 5.08807 30.5396 5.02155Z" fill="white"/>
<path d="M30.7728 7.66903C30.6731 7.58567 30.6397 7.4358 30.7229 7.33594L31.6887 6.12044C31.7719 6.02075 31.9217 6.00391 32.0216 6.08727C32.1216 6.17046 32.1548 6.32033 32.0714 6.42019L31.1059 7.63569C31.0227 7.73555 30.8728 7.75222 30.7729 7.66903H30.7728Z" fill="#F3F3F3"/>
<path d="M30.7563 7.68567C30.6397 7.60232 30.623 7.43577 30.7064 7.31924L31.672 6.10391C31.7552 5.98721 31.9217 5.97053 32.0383 6.07057C32.1548 6.15375 32.1715 6.3203 32.0881 6.43683L31.1225 7.65233C31.0393 7.76886 30.8728 7.78553 30.7563 7.68567ZM32.0049 6.10374C31.9052 6.02055 31.7719 6.03722 31.6887 6.13708L30.7229 7.35258C30.6564 7.45244 30.6731 7.58564 30.7728 7.66883C30.8728 7.75219 31.006 7.73552 31.0892 7.63566L32.0549 6.42016C32.1216 6.3203 32.1048 6.17042 32.0051 6.10391L32.0049 6.10374Z" fill="white"/>
<path d="M30.6061 10.1666C30.5063 10.0667 30.5063 9.91684 30.6061 9.83348L33.0703 7.38598C33.1703 7.28613 33.32 7.30263 33.4034 7.38598C33.4866 7.46917 33.5033 7.63572 33.4034 7.71891L30.9559 10.1666C30.8559 10.2664 30.706 10.2664 30.6061 10.1666Z" fill="#F3F3F3"/>
<path d="M30.5886 10.1831C30.5406 10.1343 30.5137 10.0685 30.5137 10C30.5137 9.9315 30.5406 9.86574 30.5886 9.81688L33.0528 7.36921C33.1016 7.32113 33.1674 7.29419 33.236 7.29419C33.3045 7.29419 33.3703 7.32113 33.4192 7.36921C33.4672 7.41807 33.4941 7.48383 33.4941 7.55234C33.4941 7.62085 33.4672 7.68661 33.4192 7.73547L30.9549 10.183C30.906 10.231 30.8402 10.2579 30.7717 10.2579C30.7032 10.2579 30.6375 10.231 30.5886 10.183V10.1831ZM33.4025 7.38588C33.3194 7.30252 33.1695 7.30252 33.0863 7.38588L30.6219 9.83338C30.5386 9.91674 30.5386 10.0666 30.6219 10.1498C30.7051 10.2332 30.855 10.2332 30.9382 10.1498L33.4025 7.7023C33.4857 7.61894 33.4857 7.48574 33.4025 7.38588Z" fill="white"/>
<path d="M33.1034 10.0333C33.0202 9.93342 33.0202 9.78355 33.1201 9.70019L34.3022 8.70125C34.4021 8.61806 34.552 8.63456 34.6353 8.73459C34.7185 8.83445 34.7185 8.98433 34.6187 9.06752L33.4365 10.0666C33.3365 10.1498 33.1866 10.1331 33.1034 10.0333Z" fill="#F3F3F3"/>
<path d="M33.0866 10.0501C32.9867 9.93354 33.0034 9.76699 33.1033 9.68381L34.2854 8.6847C34.3853 8.58484 34.5518 8.60151 34.6517 8.71804C34.7517 8.83457 34.7351 9.00112 34.6352 9.08431L33.4529 10.0834C33.3532 10.1831 33.1865 10.1666 33.0868 10.0501H33.0866ZM34.6185 8.73471C34.5352 8.63485 34.402 8.63485 34.3023 8.70137L33.12 9.70048C33.0368 9.78366 33.0201 9.91687 33.1033 10.0167C33.1865 10.1166 33.3198 10.1166 33.4195 10.0501L34.6019 9.05096C34.7017 8.96777 34.7017 8.83457 34.6185 8.73471Z" fill="white"/>
<path d="M32.4368 12.431C32.3536 12.3145 32.387 12.1646 32.5035 12.0979L35.4006 10.1665C35.5172 10.0998 35.667 10.1332 35.7335 10.2332C35.8169 10.3497 35.7836 10.4996 35.667 10.5661L32.7699 12.4975C32.6699 12.5642 32.52 12.5308 32.4368 12.431Z" fill="#F3F3F3"/>
<path d="M32.4212 12.431C32.338 12.3145 32.3713 12.1479 32.4879 12.0647L35.385 10.1332C35.5015 10.05 35.6681 10.0834 35.7513 10.2166C35.8346 10.3331 35.8011 10.4997 35.6847 10.5827L32.7876 12.5144C32.6709 12.5977 32.5045 12.5644 32.4212 12.4312V12.431ZM35.7179 10.2499C35.6514 10.1499 35.5182 10.1165 35.4183 10.1832L32.521 12.1146C32.4214 12.1813 32.3878 12.3145 32.4712 12.431C32.5377 12.5309 32.6709 12.5642 32.771 12.4977L35.6681 10.5662C35.7679 10.483 35.7846 10.3496 35.7179 10.2499Z" fill="white"/>
<path d="M34.9188 12.7807C34.8521 12.664 34.8854 12.5143 35.0019 12.4476L36.3507 11.6817C36.4672 11.615 36.6171 11.6651 36.6836 11.7814C36.7503 11.8981 36.7169 12.0478 36.6004 12.1145L35.2517 12.8806C35.1352 12.9471 34.9853 12.8972 34.9186 12.7805L34.9188 12.7807Z" fill="#F3F3F3"/>
<path d="M34.9012 12.7972C34.8345 12.664 34.8678 12.5141 34.9844 12.4476L36.3331 11.6817C36.4496 11.615 36.6162 11.6651 36.6827 11.7814C36.7494 11.9148 36.716 12.0647 36.5995 12.1312L35.2508 12.8972C35.1342 12.9638 34.9677 12.9137 34.9012 12.7972ZM36.666 11.7983C36.5995 11.6817 36.4663 11.6484 36.3664 11.7149L35.0177 12.481C34.9179 12.5475 34.8845 12.6807 34.9344 12.7805C35.001 12.8971 35.1342 12.9304 35.2341 12.8639L36.5828 12.0978C36.6827 12.048 36.716 11.9148 36.666 11.7983Z" fill="white"/>
<path d="M33.8022 14.9952C33.7523 14.862 33.8022 14.7288 33.9354 14.6789L37.1489 13.3469C37.2654 13.2969 37.4153 13.3634 37.4652 13.4799C37.5152 13.6131 37.4652 13.7463 37.332 13.7962L34.1186 15.1282C34.0019 15.1782 33.8522 15.1282 33.8022 14.9952Z" fill="#F3F3F3"/>
<path d="M33.7865 15.0117C33.7367 14.8787 33.7865 14.7288 33.9197 14.6621L37.1333 13.3301C37.1973 13.306 37.2683 13.3082 37.3307 13.3363C37.3931 13.3644 37.4418 13.416 37.4662 13.48C37.5162 13.6132 37.4662 13.7631 37.333 13.8296L34.1196 15.1616C34.0556 15.1858 33.9846 15.1836 33.9222 15.1556C33.8597 15.1275 33.8109 15.0758 33.7865 15.0119V15.0117ZM37.433 13.4966C37.383 13.3801 37.2498 13.3301 37.15 13.3634L33.9364 14.6955C33.8199 14.7453 33.7699 14.8787 33.8199 14.9952C33.8697 15.1118 34.0029 15.1618 34.103 15.1284L37.3163 13.7964C37.433 13.7466 37.483 13.6132 37.433 13.4966Z" fill="white"/>
<path d="M36.1513 15.8278C36.1015 15.6944 36.168 15.5614 36.3012 15.5114L37.7664 15.0284C37.8829 14.9786 38.0328 15.0618 38.0662 15.1783C38.116 15.3115 38.0495 15.4447 37.9163 15.4947L36.4511 15.9777C36.3345 16.0275 36.2013 15.961 36.1513 15.8276V15.8278Z" fill="#F3F3F3"/>
<path d="M36.1335 15.8442C36.0837 15.711 36.1502 15.5611 36.3003 15.5112L37.7653 15.0283C37.8985 14.9784 38.0484 15.0616 38.0984 15.195C38.1483 15.328 38.0817 15.4779 37.9317 15.5279L36.4666 16.0109C36.3334 16.0441 36.1836 15.9774 36.1335 15.8442ZM38.0651 15.2117C38.0317 15.095 37.8985 15.0283 37.782 15.0616L36.3168 15.5446C36.2002 15.5778 36.1502 15.711 36.1836 15.8277C36.2169 15.9442 36.3501 16.0107 36.4666 15.9774L37.9319 15.4946C38.0484 15.4447 38.0984 15.328 38.0651 15.2115V15.2117Z" fill="white"/>
<path d="M34.6519 17.8091C34.6186 17.6759 34.7017 17.5427 34.8349 17.526L38.2484 16.86C38.3814 16.8266 38.4981 16.9265 38.5313 17.0597C38.5646 17.1929 38.4814 17.3261 38.3482 17.3428L34.9348 18.0088C34.8016 18.0255 34.6684 17.9423 34.6517 17.8091H34.6519Z" fill="#F3F3F3"/>
<path d="M34.6198 17.8092C34.5864 17.6593 34.6863 17.5261 34.8195 17.4928L38.2329 16.8267C38.3661 16.7934 38.4993 16.8934 38.5325 17.0433C38.5658 17.193 38.466 17.3262 38.3328 17.3596L34.9193 18.0256C34.7863 18.0589 34.6529 17.959 34.6198 17.809V17.8092ZM38.4993 17.0598C38.4826 16.9433 38.3661 16.8601 38.2496 16.8768L34.8361 17.5428C34.7196 17.5594 34.6364 17.6925 34.6696 17.8092C34.6863 17.9257 34.8028 18.0089 34.9195 17.9922L38.3328 17.3262C38.4493 17.2929 38.5325 17.1763 38.4993 17.0598Z" fill="white"/>
<path d="M36.7834 19.0911C36.7667 18.9579 36.8499 18.8413 36.9831 18.8247L38.5148 18.6414C38.648 18.6249 38.7647 18.7248 38.7812 18.858C38.7979 18.9912 38.7147 19.1077 38.5815 19.1244L37.0496 19.3074C36.9331 19.3241 36.7999 19.2243 36.7832 19.0911H36.7834Z" fill="#F3F3F3"/>
<path d="M36.7674 19.0911C36.7508 18.9412 36.8506 18.808 36.9838 18.7913L38.5156 18.6083C38.6488 18.5916 38.782 18.6914 38.7987 18.8413C38.8153 18.9912 38.7155 19.1244 38.5823 19.1411L37.0504 19.3241C36.9173 19.3408 36.7839 19.2409 36.7674 19.0911ZM38.782 18.858C38.7655 18.7415 38.649 18.6414 38.5323 18.6581L37.0005 18.8413C36.884 18.858 36.8006 18.9745 36.8173 19.0911C36.834 19.2076 36.9505 19.3076 37.067 19.2909L38.5989 19.1077C38.7155 19.0911 38.7987 18.9745 38.7822 18.858H38.782Z" fill="white"/>
<path d="M34.918 20.7063C34.918 20.5731 35.0177 20.4565 35.151 20.4565H38.631C38.7642 20.4565 38.864 20.5731 38.864 20.7063C38.864 20.8395 38.7642 20.956 38.631 20.956H35.151C35.0178 20.956 34.918 20.8395 34.918 20.7063Z" fill="#F3F3F3"/>
<path d="M34.9023 20.7063C34.9023 20.5565 35.0189 20.4399 35.1521 20.4399H38.632C38.7652 20.4399 38.8818 20.5565 38.8818 20.7063C38.8818 20.8562 38.7652 20.9728 38.632 20.9728H35.1521C35.0189 20.9728 34.9023 20.8562 34.9023 20.7063ZM38.8484 20.723C38.8484 20.6065 38.7486 20.49 38.6319 20.49H35.1522C35.0357 20.49 34.9357 20.5896 34.9357 20.723C34.9357 20.8396 35.0357 20.9561 35.1522 20.9561H38.6322C38.7487 20.9394 38.8486 20.8396 38.8486 20.723H38.8484Z" fill="white"/>
<path d="M36.7677 22.3878C36.7842 22.2546 36.8843 22.1548 37.0175 22.1548L38.5661 22.2713C38.6991 22.288 38.799 22.4045 38.7823 22.5377C38.7658 22.6709 38.6658 22.7708 38.5326 22.7708L36.9841 22.6543C36.8676 22.6376 36.7676 22.5211 36.7676 22.3878H36.7677Z" fill="#F3F3F3"/>
<path d="M36.75 22.3879C36.7667 22.238 36.8832 22.1382 37.0164 22.1382L38.565 22.2547C38.698 22.2714 38.8146 22.3879 38.7979 22.5378C38.7814 22.6877 38.6647 22.7875 38.5315 22.7875L36.9831 22.671C36.8499 22.6543 36.75 22.5211 36.75 22.3879ZM38.7814 22.5378C38.7979 22.4213 38.698 22.3047 38.5815 22.3047L37.0329 22.1882C36.9165 22.1882 36.8165 22.2714 36.7998 22.4048C36.7833 22.5211 36.8832 22.6377 36.9997 22.6377L38.5483 22.7542C38.6647 22.7542 38.7647 22.6545 38.7814 22.5378Z" fill="white"/>
<path d="M34.6193 23.6035C34.6527 23.4703 34.7692 23.3869 34.9024 23.4038L38.3157 24.0865C38.4489 24.1196 38.5322 24.2362 38.4989 24.3694C38.4655 24.5026 38.349 24.5859 38.2158 24.5692L34.8024 23.8866C34.6858 23.8699 34.6026 23.7367 34.6193 23.6035Z" fill="#F3F3F3"/>
<path d="M34.6017 23.6034C34.6351 23.4535 34.7683 23.3703 34.9015 23.3868L38.3147 24.0697C38.4479 24.1029 38.5478 24.2361 38.5145 24.3859C38.4813 24.5358 38.3481 24.6192 38.2149 24.6025L34.8014 23.9198C34.6682 23.8865 34.5851 23.7533 34.6017 23.6036V23.6034ZM38.4813 24.3859C38.498 24.2694 38.4314 24.1529 38.3147 24.1195L34.9013 23.4368C34.7849 23.4203 34.6682 23.4869 34.6349 23.6201C34.6184 23.7366 34.6849 23.8531 34.8016 23.8865L38.2149 24.5692C38.3481 24.5858 38.4479 24.5025 38.4813 24.3859Z" fill="white"/>
<path d="M36.118 25.6014C36.1256 25.5697 36.1394 25.5398 36.1586 25.5134C36.1778 25.4871 36.202 25.4648 36.2299 25.4478C36.2577 25.4308 36.2886 25.4194 36.3208 25.4144C36.353 25.4093 36.3859 25.4107 36.4176 25.4183L37.9161 25.8344C38.0493 25.8678 38.1159 26.0012 38.0827 26.1342C38.0751 26.1659 38.0613 26.1958 38.0421 26.2222C38.0229 26.2486 37.9986 26.2709 37.9708 26.288C37.943 26.305 37.912 26.3163 37.8798 26.3214C37.8476 26.3264 37.8146 26.3251 37.7829 26.3174L36.2844 25.9011C36.1512 25.8678 36.0846 25.7346 36.1178 25.6014H36.118Z" fill="#F3F3F3"/>
<path d="M36.101 25.6014C36.1343 25.4682 36.2842 25.3684 36.4174 25.4184L37.916 25.8345C38.0492 25.8678 38.1326 26.0177 38.0992 26.1509C38.0659 26.2841 37.916 26.384 37.7828 26.3341L36.2842 25.9179C36.151 25.8845 36.0677 25.7513 36.1012 25.6016L36.101 25.6014ZM38.0492 26.1509C38.0825 26.0344 38.0159 25.9012 37.8993 25.8678L36.4007 25.4516C36.2842 25.4182 36.1677 25.4849 36.1343 25.6181C36.1012 25.7346 36.1677 25.8678 36.2842 25.9012L37.7828 26.3175C37.8993 26.3341 38.0159 26.2676 38.0492 26.1509Z" fill="white"/>
<path d="M33.769 26.4008C33.8189 26.2676 33.9689 26.2175 34.0853 26.2676L37.299 27.5996C37.4155 27.6494 37.482 27.7995 37.4322 27.9158C37.3822 28.0492 37.2323 28.0991 37.1158 28.0492L33.9022 26.7172C33.769 26.6673 33.719 26.5173 33.769 26.4009V26.4008Z" fill="#F3F3F3"/>
<path d="M33.7533 26.3841C33.7777 26.3201 33.8265 26.2684 33.8889 26.2403C33.9513 26.2122 34.0224 26.21 34.0864 26.2342L37.3 27.5662C37.4332 27.6163 37.483 27.7661 37.4332 27.916C37.4088 27.98 37.36 28.0317 37.2976 28.0598C37.2352 28.0879 37.1641 28.0901 37.1001 28.0659L33.8865 26.7339C33.7533 26.6672 33.7035 26.5173 33.7533 26.3841ZM37.3998 27.8993C37.4497 27.7828 37.3998 27.6496 37.2833 27.5996L34.0698 26.2676C33.9532 26.2177 33.8367 26.2842 33.7867 26.4008C33.7368 26.5173 33.7867 26.6505 33.9032 26.7005L37.1168 28.0325C37.2333 28.0659 37.3665 28.0159 37.3998 27.8993Z" fill="white"/>
<path d="M34.8521 28.6485C34.9188 28.532 35.0519 28.482 35.1684 28.532L36.5504 29.2314C36.667 29.2812 36.717 29.4311 36.6505 29.5643C36.5838 29.6808 36.4506 29.731 36.334 29.6808L34.9522 28.9816C34.8355 28.9149 34.7854 28.7651 34.8521 28.6485Z" fill="#F3F3F3"/>
<path d="M34.836 28.6317C34.9027 28.4985 35.0525 28.4487 35.1857 28.5152L36.5676 29.2145C36.7008 29.2812 36.7508 29.4311 36.6841 29.5641C36.6176 29.6973 36.4676 29.7474 36.3346 29.6807L34.9527 28.9815C34.8193 28.9316 34.7695 28.7649 34.836 28.6317ZM36.6343 29.5475C36.6841 29.4309 36.6508 29.2977 36.5343 29.2479L35.1524 28.5485C35.0524 28.4987 34.9193 28.5485 34.8526 28.6484C34.8028 28.7649 34.836 28.8981 34.9525 28.9481L36.3344 29.6475C36.4511 29.6973 36.5843 29.6642 36.6343 29.5475Z" fill="white"/>
<path d="M32.4036 28.9649C32.487 28.8484 32.6202 28.815 32.7367 28.8982L35.6338 30.8298C35.7504 30.8963 35.767 31.0463 35.7005 31.1627C35.6172 31.2794 35.484 31.3126 35.3674 31.2294L32.4703 29.2978C32.3538 29.2147 32.3204 29.0648 32.4036 28.9649Z" fill="#F3F3F3"/>
<path d="M32.3868 28.9482C32.4701 28.8317 32.6367 28.7984 32.7532 28.8651L35.6503 30.7964C35.7669 30.8796 35.8002 31.0295 35.7168 31.1627C35.6337 31.2794 35.4671 31.3125 35.3508 31.246L32.4535 29.3145C32.3203 29.2313 32.3036 29.0648 32.3868 28.9482ZM35.667 31.146C35.7335 31.0463 35.7168 30.8963 35.6172 30.8298L32.7199 28.8982C32.62 28.8317 32.4868 28.865 32.4201 28.9649C32.3536 29.0648 32.3703 29.2146 32.47 29.2812L35.3673 31.2127C35.4671 31.2794 35.6003 31.246 35.667 31.1462V31.146Z" fill="white"/>
<path d="M33.0201 31.3791C33.1033 31.2791 33.2532 31.2459 33.3531 31.3293L34.5686 32.2782C34.6684 32.3614 34.6851 32.5113 34.6019 32.6113C34.5187 32.711 34.3688 32.7445 34.2688 32.6611L33.0533 31.7121C32.9536 31.6289 32.9368 31.479 33.0201 31.3791Z" fill="#F3F3F3"/>
<path d="M33.0032 31.3625C33.0864 31.2459 33.2529 31.2293 33.3695 31.3126L34.585 32.2615C34.7015 32.3447 34.7182 32.5113 34.6348 32.6278C34.5516 32.7445 34.3851 32.761 34.2687 32.6778L33.0531 31.7287C32.9365 31.6455 32.92 31.479 33.0032 31.3625ZM34.6016 32.6113C34.6848 32.5113 34.6682 32.3781 34.5683 32.2949L33.3528 31.3458C33.2529 31.2793 33.1197 31.2959 33.0366 31.3956C32.9532 31.4957 32.9699 31.6289 33.0697 31.712L34.2852 32.6611C34.3851 32.7278 34.5183 32.711 34.6015 32.6113H34.6016Z" fill="white"/>
<path d="M30.539 31.2126C30.639 31.1127 30.7889 31.1127 30.872 31.2126L33.3362 33.6601C33.4362 33.7601 33.4196 33.91 33.3362 33.9932C33.2365 34.093 33.0865 34.093 33.0033 33.9932L30.539 31.5457C30.4558 31.4623 30.4558 31.2958 30.539 31.2126Z" fill="#F3F3F3"/>
<path d="M30.5386 31.1961C30.5874 31.148 30.6532 31.1211 30.7218 31.1211C30.7903 31.1211 30.8561 31.148 30.905 31.1961L33.3692 33.6436C33.4173 33.6925 33.4442 33.7583 33.4442 33.8268C33.4442 33.8954 33.4173 33.9612 33.3692 34.01C33.3203 34.0581 33.2546 34.085 33.186 34.085C33.1175 34.085 33.0518 34.0581 33.0029 34.01L30.5386 31.5625C30.422 31.4625 30.422 31.2961 30.5386 31.1961ZM33.3358 33.9767C33.4192 33.8935 33.4192 33.7436 33.3358 33.6605L30.8717 31.2128C30.7885 31.1296 30.6386 31.1296 30.5554 31.2128C30.4721 31.296 30.4721 31.4458 30.5554 31.529L33.0196 33.9767C33.1028 34.0767 33.2361 34.0767 33.3358 33.9767Z" fill="white"/>
<path d="M30.6901 33.6935C30.7901 33.6103 30.9398 33.6103 31.0232 33.7102L32.039 34.8757C32.122 34.9757 32.1055 35.1256 32.0055 35.2088C31.9058 35.2919 31.7557 35.2919 31.6725 35.1921L30.6568 34.0266C30.5736 33.9434 30.5902 33.7935 30.6901 33.6935Z" fill="#F3F3F3"/>
<path d="M30.6723 33.6935C30.7889 33.5938 30.9387 33.6103 31.0384 33.7101L32.0542 34.8756C32.1541 34.9757 32.1374 35.142 32.0209 35.2421C31.9043 35.3419 31.7545 35.3253 31.6546 35.2254L30.6388 34.0599C30.5556 33.9434 30.5556 33.7768 30.6722 33.6935H30.6723ZM32.0044 35.2087C32.1041 35.1255 32.1041 34.9922 32.0375 34.8925L31.0218 33.7268C30.9386 33.6436 30.8054 33.627 30.7055 33.7101C30.6057 33.7935 30.6057 33.9267 30.6722 34.0264L31.688 35.1921C31.7711 35.2919 31.9045 35.2919 32.0042 35.2087H32.0044Z" fill="white"/>
<path d="M28.2908 33.0608C28.4074 32.9776 28.5573 33.011 28.6239 33.1275L30.5551 36.008C30.6218 36.1245 30.5885 36.2744 30.4886 36.3411C30.3721 36.4243 30.2222 36.3909 30.1555 36.2744L28.2242 33.3938C28.1575 33.2774 28.1908 33.1273 28.2907 33.0608H28.2908Z" fill="#F3F3F3"/>
<path d="M28.2926 33.0442C28.4091 32.961 28.5757 32.9944 28.6588 33.1109L30.5904 35.9915C30.6736 36.1079 30.6402 36.2745 30.5072 36.3576C30.3905 36.441 30.2241 36.4077 30.1408 36.2911L28.2094 33.4105C28.1262 33.2775 28.1596 33.1276 28.2926 33.0444V33.0442ZM30.4905 36.3245C30.5904 36.2578 30.6237 36.1246 30.557 36.0247L28.6257 33.1441C28.559 33.0444 28.4258 33.0276 28.3094 33.0942C28.2094 33.1608 28.1761 33.294 28.2427 33.394L30.1741 36.2744C30.2408 36.3576 30.3907 36.391 30.4904 36.3243L30.4905 36.3245Z" fill="white"/>
<path d="M27.9427 35.5251C28.0592 35.4586 28.2091 35.4919 28.2756 35.6084L29.0417 36.9571C29.1082 37.0737 29.0582 37.2236 28.9416 37.2901C28.8251 37.3568 28.6752 37.3234 28.6087 37.2069L27.8428 35.8582C27.7928 35.7416 27.8262 35.5918 27.9425 35.5253L27.9427 35.5251Z" fill="#F3F3F3"/>
<path d="M27.9418 35.5086C28.075 35.4419 28.2249 35.4753 28.2914 35.5918L29.0573 36.9405C29.124 37.057 29.0906 37.2236 28.9576 37.2901C28.8242 37.3568 28.6743 37.3234 28.6078 37.2069L27.842 35.8582C27.7753 35.7417 27.8086 35.5918 27.9416 35.5086H27.9418ZM28.9407 37.2736C29.0408 37.2069 29.0906 37.0737 29.0241 36.9738L28.2582 35.6251C28.1915 35.5253 28.0583 35.4919 27.9585 35.5418C27.8585 35.6085 27.8086 35.7417 27.8751 35.8415L28.6412 37.1902C28.691 37.2901 28.8409 37.3401 28.9407 37.2734V37.2736Z" fill="white"/>
<path d="M25.728 34.4262C25.8612 34.3764 25.9944 34.4262 26.0444 34.5428L27.3931 37.7563C27.443 37.8728 27.3764 38.0227 27.2599 38.0726C27.1434 38.1226 26.9935 38.0726 26.9437 37.956L25.595 34.7426C25.5449 34.6259 25.6114 34.4762 25.728 34.4262Z" fill="#F3F3F3"/>
<path d="M25.7269 34.4096C25.8601 34.3597 26.0099 34.4096 26.0766 34.5428L27.4253 37.7563C27.4495 37.8204 27.4472 37.8913 27.4192 37.9537C27.3911 38.0161 27.3394 38.0649 27.2755 38.0893C27.1423 38.1393 26.9924 38.0893 26.9259 37.956L25.5772 34.7427C25.5271 34.626 25.5938 34.4763 25.7269 34.4096ZM27.2421 38.0561C27.3586 38.0061 27.4087 37.8729 27.3586 37.773L26.0099 34.5595C25.9601 34.4429 25.8269 34.3929 25.7104 34.4429C25.5938 34.4928 25.5436 34.626 25.5938 34.726L26.9424 37.9395C27.009 38.0561 27.1256 38.1059 27.2421 38.0561Z" fill="white"/>
<path d="M24.9123 36.7905C25.0457 36.7406 25.1787 36.8071 25.2288 36.9403L25.7117 38.4056C25.7616 38.5221 25.6784 38.672 25.5619 38.7053C25.4286 38.7552 25.2954 38.6887 25.2456 38.5554L24.7626 37.0902C24.7128 36.9737 24.7793 36.8405 24.9125 36.7905H24.9123Z" fill="#F3F3F3"/>
<path d="M24.8957 36.7739C24.9598 36.7498 25.0308 36.752 25.0932 36.7801C25.1556 36.8082 25.2043 36.8599 25.2287 36.9238L25.7116 38.3891C25.7615 38.5223 25.6783 38.6721 25.5449 38.7221C25.4809 38.7463 25.4099 38.7441 25.3475 38.716C25.2851 38.6879 25.2364 38.6362 25.212 38.5723L24.7292 37.107C24.6959 36.9738 24.7625 36.824 24.8957 36.7739ZM25.5451 38.6886C25.6616 38.6555 25.7281 38.5223 25.695 38.4057L25.212 36.9405C25.1788 36.824 25.0456 36.7739 24.9291 36.8073C24.8124 36.8406 24.7459 36.9738 24.7792 37.0904L25.262 38.5556C25.2705 38.5839 25.2848 38.61 25.3041 38.6324C25.3234 38.6547 25.3471 38.6728 25.3738 38.6853C25.4005 38.6979 25.4296 38.7047 25.4591 38.7053C25.4886 38.7059 25.5179 38.7003 25.5451 38.6888V38.6886Z" fill="white"/>
<path d="M22.9463 35.2754C23.0793 35.2421 23.2127 35.3253 23.2292 35.4585L23.9285 38.8719C23.9619 39.0049 23.8619 39.1216 23.7287 39.1548C23.5956 39.1882 23.4622 39.105 23.4457 38.9718L22.7462 35.5583C22.7297 35.4418 22.8129 35.3086 22.9461 35.2753L22.9463 35.2754Z" fill="#F3F3F3"/>
<path d="M22.9475 35.2586C23.0972 35.2254 23.2304 35.3253 23.2638 35.4585L23.9631 38.8719C23.9965 39.005 23.8965 39.1548 23.7632 39.1715C23.6134 39.2049 23.4802 39.105 23.447 38.9718L22.7475 35.5584C22.7143 35.4252 22.7977 35.292 22.9474 35.2588L22.9475 35.2586ZM23.7299 39.1382C23.8466 39.1217 23.9298 39.005 23.9131 38.8718L23.2138 35.4585C23.1973 35.342 23.0641 35.2588 22.9474 35.292C22.8308 35.3086 22.7476 35.4252 22.7643 35.5584L23.4637 38.9718C23.4968 39.0883 23.6134 39.1548 23.7301 39.1383L23.7299 39.1382Z" fill="white"/>
<path d="M21.6811 37.4399C21.8143 37.4232 21.9308 37.5065 21.9642 37.6397L22.1639 39.1715C22.1806 39.3047 22.0807 39.4212 21.9473 39.4379C21.8143 39.4546 21.6978 39.3714 21.6644 39.2382L21.4647 37.7063C21.448 37.5731 21.5479 37.4565 21.6811 37.4399Z" fill="#F3F3F3"/>
<path d="M21.6821 37.4232C21.832 37.4067 21.9652 37.5065 21.9819 37.6397L22.1816 39.1715C22.1983 39.3047 22.0984 39.4379 21.9485 39.4546C21.7987 39.4712 21.6655 39.3714 21.6488 39.238L21.4491 37.7063C21.4324 37.573 21.5323 37.4398 21.6821 37.4232ZM21.9319 39.4212C22.0484 39.4047 22.1484 39.288 22.1318 39.1715L21.9319 37.6397C21.9152 37.5232 21.7987 37.4398 21.6821 37.4565C21.5656 37.4732 21.4656 37.5897 21.4823 37.7063L21.6821 39.2382C21.6988 39.3547 21.8153 39.4379 21.9319 39.4212Z" fill="white"/>
<path d="M19.9665 35.575C20.0997 35.575 20.2163 35.675 20.2163 35.8082V39.288C20.2163 39.4212 20.0997 39.5212 19.9665 39.5212C19.8333 39.5212 19.7168 39.4212 19.7168 39.288V35.8082C19.7335 35.675 19.8333 35.575 19.9665 35.575Z" fill="#F3F3F3"/>
<path d="M19.9656 35.5583C20.1155 35.5583 20.232 35.6749 20.232 35.8081V39.288C20.232 39.4212 20.1155 39.5378 19.9656 39.5378C19.8158 39.5378 19.6992 39.4212 19.6992 39.288V35.8083C19.6992 35.6751 19.8324 35.5583 19.9656 35.5583ZM19.9656 39.5046C20.0822 39.5046 20.1987 39.4047 20.1987 39.288V35.8083C20.1987 35.6916 20.0988 35.5917 19.9656 35.5917C19.8491 35.5917 19.7326 35.6916 19.7326 35.8083V39.288C19.7491 39.4047 19.8491 39.5046 19.9656 39.5046Z" fill="white"/>
<path d="M18.3009 37.4398C18.4341 37.4565 18.534 37.5563 18.534 37.6895L18.4174 39.2381C18.4009 39.3713 18.2842 39.4712 18.151 39.4547C18.0178 39.4379 17.918 39.338 17.918 39.2048L18.0345 37.6562C18.0512 37.5232 18.1677 37.4231 18.3009 37.4398Z" fill="#F3F3F3"/>
<path d="M18.302 37.4232C18.4518 37.4398 18.5517 37.5564 18.5517 37.6896L18.4352 39.2382C18.4185 39.3714 18.302 39.4879 18.1521 39.4712C18.0024 39.4546 17.9023 39.338 17.9023 39.2048L18.0189 37.6562C18.0355 37.5065 18.1521 37.4067 18.302 37.4232ZM18.1521 39.4379C18.2686 39.4379 18.3853 39.3547 18.3853 39.2382L18.5018 37.6896C18.5018 37.573 18.4185 37.4732 18.2853 37.4565C18.1687 37.4565 18.0522 37.5397 18.0522 37.6564L17.9357 39.2048C17.9357 39.3214 18.0355 39.4214 18.1522 39.4379H18.1521Z" fill="white"/>
<path d="M17.0519 35.2756C17.1851 35.3087 17.2683 35.4253 17.2516 35.5585L16.5689 38.9719C16.5356 39.1051 16.419 39.1885 16.2858 39.155C16.1526 39.1218 16.0694 39.0053 16.0861 38.8719L16.7688 35.4586C16.7855 35.3421 16.9187 35.2589 17.0519 35.2756Z" fill="#F3F3F3"/>
<path d="M17.052 35.2586C17.2017 35.2919 17.2851 35.4253 17.2684 35.5583L16.5857 38.9718C16.5524 39.105 16.4192 39.2048 16.2694 39.1715C16.1196 39.1381 16.0362 39.0049 16.0529 38.8717L16.7356 35.4585C16.7689 35.3253 16.9021 35.2419 17.0518 35.2587L17.052 35.2586ZM16.2694 39.1381C16.386 39.1548 16.5025 39.0883 16.5359 38.9718L17.2184 35.5583C17.235 35.4418 17.1685 35.3253 17.0353 35.2919C16.9188 35.2754 16.8023 35.3419 16.7689 35.4586L16.0862 38.8717C16.0696 39.0049 16.1527 39.105 16.2694 39.1381Z" fill="white"/>
<path d="M15.0549 36.7738C15.1882 36.8072 15.2714 36.9404 15.2381 37.0736L14.8218 38.5721C14.7886 38.7053 14.6554 38.7719 14.5222 38.7387C14.4905 38.7311 14.4606 38.7173 14.4342 38.6981C14.4078 38.6789 14.3855 38.6547 14.3685 38.6268C14.3514 38.599 14.3401 38.568 14.335 38.5358C14.33 38.5036 14.3313 38.4707 14.339 38.4389L14.7553 36.9404C14.7886 36.8072 14.9218 36.7406 15.055 36.7738H15.0549Z" fill="#F3F3F3"/>
<path d="M15.0542 36.7573C15.1875 36.7905 15.2874 36.9403 15.2374 37.0735L14.8211 38.5721C14.7879 38.7053 14.6381 38.7887 14.5049 38.7552C14.3717 38.722 14.2718 38.5721 14.3216 38.4389L14.7379 36.9403C14.7713 36.8071 14.9045 36.7238 15.0542 36.7571V36.7573ZM14.5049 38.7053C14.6214 38.7387 14.7546 38.672 14.7879 38.5554L15.204 37.0569C15.2374 36.9403 15.1709 36.8238 15.0377 36.7905C14.9211 36.7571 14.7879 36.8238 14.7546 36.9403L14.3383 38.4389C14.3216 38.5554 14.3882 38.672 14.5049 38.7053Z" fill="white"/>
<path d="M14.2395 34.4262C14.3727 34.476 14.4225 34.6259 14.3727 34.7424L13.0406 37.956C12.9908 38.0727 12.8408 38.1392 12.7244 38.0727C12.6077 38.006 12.541 37.8728 12.591 37.7562L13.9231 34.5427C13.9729 34.4262 14.1229 34.3595 14.2393 34.4262H14.2395Z" fill="#F3F3F3"/>
<path d="M14.2394 34.4096C14.3034 34.434 14.3551 34.4828 14.3832 34.5452C14.4113 34.6076 14.4135 34.6787 14.3893 34.7427L13.0573 37.9561C13.0073 38.0893 12.8574 38.1393 12.7075 38.0893C12.6436 38.0649 12.5919 38.0162 12.5638 37.9538C12.5357 37.8914 12.5335 37.8204 12.5576 37.7564L13.8897 34.5428C13.9564 34.4096 14.1062 34.3431 14.2394 34.4096ZM12.7242 38.0561C12.8407 38.106 12.9739 38.0561 13.0239 37.9396L14.356 34.7261C14.4058 34.6095 14.3393 34.4928 14.2228 34.443C14.1062 34.3931 13.973 34.443 13.923 34.5595L12.591 37.7731C12.5576 37.8729 12.6077 38.0061 12.7242 38.0561Z" fill="white"/>
<path d="M11.9911 35.4918C12.1077 35.5583 12.1575 35.6915 12.1077 35.808L11.4083 37.1901C11.3416 37.3066 11.2084 37.3566 11.0752 37.2899C10.9587 37.2234 10.9089 37.0902 10.9587 36.9737L11.6582 35.5918C11.7247 35.4751 11.8579 35.4251 11.9911 35.4918Z" fill="#F3F3F3"/>
<path d="M11.9905 35.4751C12.1237 35.5417 12.1735 35.6917 12.107 35.8247L11.4076 37.2068C11.341 37.34 11.1911 37.39 11.0581 37.3233C10.9249 37.2568 10.8748 37.1067 10.9415 36.9737L11.6407 35.5918C11.7074 35.4585 11.8573 35.4086 11.9905 35.4751ZM11.0747 37.2901C11.1913 37.34 11.3245 37.3066 11.3743 37.1901L12.0737 35.8082C12.1235 35.7082 12.0737 35.575 11.9738 35.5085C11.8573 35.4586 11.7241 35.4918 11.6741 35.6083L10.9747 36.9902C10.9249 37.0902 10.9747 37.2234 11.0747 37.29V37.2901Z" fill="white"/>
<path d="M11.6583 33.0276C11.7748 33.1108 11.8082 33.2606 11.725 33.3605L9.79345 36.2411C9.72693 36.3575 9.57689 36.3741 9.46053 36.3076C9.344 36.2243 9.31065 36.0746 9.39384 35.9745L11.3254 33.0939C11.3919 32.9776 11.5418 32.9442 11.6583 33.0274V33.0276Z" fill="#F3F3F3"/>
<path d="M11.6578 33.0108C11.7744 33.0941 11.8077 33.2607 11.741 33.3772L9.80967 36.2578C9.72648 36.3742 9.57661 36.4075 9.4434 36.3244C9.32687 36.241 9.29353 36.0746 9.36004 35.9579L11.2916 33.0775C11.3748 32.9609 11.5413 32.9276 11.6578 33.0108ZM9.46008 36.291C9.55976 36.3575 9.70981 36.3409 9.77633 36.2412L11.7079 33.3606C11.7744 33.2607 11.7412 33.1275 11.6412 33.0608C11.5413 32.9943 11.3914 33.011 11.3249 33.1106L9.39339 35.9746C9.32687 36.0746 9.36004 36.2243 9.46008 36.2908V36.291Z" fill="white"/>
<path d="M9.22663 33.6437C9.32666 33.7269 9.35983 33.8767 9.27665 33.9766L8.31088 35.1921C8.22769 35.2919 8.07782 35.3086 7.97796 35.2254C7.8781 35.1422 7.84476 34.9924 7.92812 34.8923L8.89371 33.6768C8.9769 33.5771 9.12677 33.5603 9.22663 33.6437Z" fill="#F3F3F3"/>
<path d="M9.24335 33.6269C9.35988 33.7101 9.37655 33.8766 9.29319 33.9932L8.3276 35.2087C8.24441 35.3252 8.07786 35.3419 7.96133 35.242C7.8448 35.1586 7.82813 34.9923 7.91149 34.8756L8.87708 33.6602C8.96027 33.5435 9.12682 33.527 9.24335 33.6269ZM7.99467 35.2087C8.09436 35.2918 8.22774 35.2753 8.31092 35.1753L9.27669 33.9598C9.34338 33.8601 9.32653 33.7268 9.22685 33.6436C9.12682 33.5602 8.99361 33.5769 8.91042 33.6769L7.94466 34.8922C7.87814 34.9923 7.89482 35.142 7.9945 35.2087H7.99467Z" fill="white"/>
<path d="M9.39339 31.1461C9.49325 31.2458 9.49325 31.3958 9.39339 31.479L6.92922 33.9265C6.82919 34.0265 6.67949 34.0099 6.59613 33.9265C6.51294 33.8433 6.49627 33.6768 6.59613 33.5936L9.04363 31.1461C9.14366 31.046 9.29353 31.046 9.39339 31.1461Z" fill="#F3F3F3"/>
<path d="M9.40936 31.1294C9.45733 31.1782 9.48421 31.244 9.48421 31.3124C9.48421 31.3809 9.45733 31.4466 9.40936 31.4955L6.94502 33.9433C6.89617 33.9913 6.83044 34.0182 6.76197 34.0182C6.6935 34.0182 6.62777 33.9913 6.57892 33.9433C6.53085 33.8944 6.50391 33.8286 6.50391 33.7601C6.50391 33.6915 6.53085 33.6257 6.57892 33.5769L9.0431 31.1294C9.09195 31.0814 9.15772 31.0544 9.22623 31.0544C9.29474 31.0544 9.3605 31.0814 9.40936 31.1294ZM6.59542 33.9265C6.67861 34.0097 6.82849 34.0097 6.91167 33.9265L9.37602 31.4788C9.45938 31.3956 9.45938 31.2457 9.37602 31.1625C9.29283 31.0792 9.14296 31.0792 9.05977 31.1625L6.59542 33.61C6.51224 33.6932 6.51224 33.8266 6.59542 33.9263V33.9265Z" fill="white"/>
<path d="M6.89511 31.2793C6.97829 31.379 6.97829 31.5291 6.87843 31.6123L5.69628 32.6114C5.59642 32.6946 5.44654 32.6779 5.36318 32.578C5.28 32.478 5.28 32.3283 5.37986 32.2449L6.56201 31.246C6.66204 31.1626 6.81175 31.1793 6.89511 31.2793Z" fill="#F3F3F3"/>
<path d="M6.91357 31.2625C7.01343 31.3792 6.99675 31.5456 6.89689 31.629L5.71474 32.6279C5.61488 32.728 5.44833 32.7113 5.34847 32.5947C5.24844 32.478 5.26511 32.3117 5.36497 32.2283L6.5473 31.2294C6.64699 31.1295 6.81371 31.1462 6.91339 31.2627L6.91357 31.2625ZM5.38164 32.5781C5.465 32.6779 5.59821 32.6779 5.69789 32.6114L6.88022 31.6123C6.96341 31.5291 6.98008 31.3957 6.89689 31.2961C6.81353 31.196 6.68033 31.196 6.58064 31.2627L5.39832 32.2617C5.29846 32.3448 5.29846 32.4782 5.38164 32.5779V32.5781Z" fill="white"/>
<path d="M7.5618 28.8814C7.64499 28.9981 7.61164 29.1478 7.49511 29.2145L4.59799 31.146C4.48146 31.2126 4.33158 31.1792 4.26506 31.0794C4.18171 30.9628 4.21505 30.8129 4.33158 30.7463L7.22888 28.8149C7.32891 28.7484 7.47861 28.7816 7.56197 28.8814H7.5618Z" fill="#F3F3F3"/>
<path d="M7.57947 28.8815C7.66266 28.9982 7.62932 29.1645 7.51278 29.2479L4.61566 31.1792C4.49913 31.2626 4.33258 31.2291 4.24939 31.0961C4.16603 30.9795 4.19955 30.813 4.31591 30.7298L7.21321 28.7983C7.32974 28.7151 7.49611 28.7484 7.5793 28.8815H7.57947ZM4.28274 31.0627C4.34925 31.1626 4.48246 31.1959 4.58232 31.1294L7.47944 29.1979C7.57947 29.1314 7.61264 28.9982 7.52946 28.8816C7.46294 28.7816 7.32974 28.7484 7.22971 28.8149L4.33258 30.7465C4.23272 30.8297 4.21605 30.9629 4.28274 31.0627Z" fill="white"/>
<path d="M5.08006 28.5318C5.14675 28.6484 5.1134 28.7982 4.99687 28.8649L3.64817 29.6308C3.53164 29.6973 3.38176 29.6475 3.31525 29.5309C3.24856 29.4144 3.2819 29.2645 3.39843 29.1978L4.74714 28.432C4.86367 28.3653 5.01354 28.4153 5.08023 28.5318H5.08006Z" fill="#F3F3F3"/>
<path d="M5.0969 28.5152C5.16342 28.6484 5.13007 28.7983 5.01354 28.865L3.66484 29.6309C3.54831 29.6974 3.38176 29.6475 3.31525 29.531C3.24856 29.3978 3.2819 29.2479 3.39843 29.1812L4.74714 28.4154C4.86367 28.3487 5.03021 28.3987 5.09673 28.5152H5.0969ZM3.33175 29.5143C3.39843 29.6309 3.53164 29.6642 3.6315 29.5975L4.9802 28.8317C5.08006 28.765 5.1134 28.6318 5.06356 28.5319C4.99687 28.4154 4.86367 28.382 4.76381 28.4487L3.4151 29.2146C3.31525 29.2644 3.2819 29.3978 3.33192 29.5143H3.33175Z" fill="white"/>
<path d="M6.1957 26.3174C6.24554 26.4506 6.1957 26.5838 6.0625 26.6337L2.84895 27.9657C2.73242 28.0157 2.58254 27.9492 2.5327 27.8325C2.48268 27.6993 2.5327 27.5661 2.6659 27.5163L5.87945 26.1842C5.99598 26.1344 6.14586 26.1842 6.1957 26.3174Z" fill="#F3F3F3"/>
<path d="M6.21237 26.3008C6.26221 26.434 6.21237 26.5839 6.07917 26.6504L2.86562 27.9824C2.80159 28.0065 2.7306 28.0043 2.66821 27.9762C2.60581 27.9481 2.55708 27.8965 2.5327 27.8325C2.48268 27.6993 2.5327 27.5494 2.6659 27.4829L5.87945 26.1509C5.94348 26.1268 6.01447 26.129 6.07687 26.1571C6.13926 26.1852 6.18799 26.2368 6.21237 26.3008ZM2.56587 27.8159C2.61589 27.9326 2.74909 27.9826 2.84895 27.9491L6.0625 26.617C6.17903 26.5672 6.22904 26.434 6.17903 26.3174C6.12918 26.2009 5.99598 26.1509 5.89595 26.1842L2.6824 27.5163C2.56587 27.5661 2.51603 27.6993 2.56587 27.816V27.8159Z" fill="white"/>
<path d="M3.84937 25.485C3.89921 25.6182 3.83269 25.7514 3.69949 25.8013L2.23426 26.2842C2.11773 26.3341 1.96785 26.2509 1.93451 26.1344C1.88466 26.0012 1.95118 25.868 2.08438 25.8181L3.54962 25.3351C3.66615 25.2853 3.79935 25.3518 3.84937 25.485Z" fill="#F3F3F3"/>
<path d="M3.86582 25.4682C3.91584 25.6014 3.84932 25.7513 3.69945 25.8013L2.23421 26.2841C2.10101 26.3339 1.95113 26.2507 1.90112 26.1175C1.85127 25.9843 1.91779 25.8345 2.06784 25.7846L3.5329 25.3016C3.6661 25.2685 3.81598 25.335 3.86599 25.4684L3.86582 25.4682ZM1.93463 26.101C1.96798 26.2176 2.10118 26.2843 2.21771 26.2509L3.68295 25.7679C3.79948 25.7348 3.84949 25.6016 3.81615 25.485C3.7828 25.3685 3.6496 25.3018 3.53307 25.3352L2.06784 25.8181C1.9513 25.868 1.90129 25.9845 1.93463 26.101Z" fill="white"/>
<path d="M5.34786 23.5035C5.38104 23.6367 5.29785 23.7699 5.16464 23.7866L1.75121 24.4526C1.618 24.4859 1.50147 24.3859 1.4683 24.2527C1.43496 24.1195 1.51814 23.9863 1.65135 23.9696L5.06479 23.3036C5.19799 23.2871 5.33119 23.3703 5.34769 23.5035H5.34786Z" fill="#F3F3F3"/>
<path d="M5.38014 23.5036C5.41349 23.6535 5.31363 23.7867 5.18042 23.8198L1.76699 24.4859C1.63378 24.5192 1.50058 24.4193 1.46741 24.2695C1.43406 24.1196 1.53392 23.9864 1.66713 23.9532L5.08056 23.2872C5.2136 23.2539 5.34697 23.3537 5.38014 23.5036ZM1.50058 24.253C1.51725 24.3693 1.63378 24.4527 1.75031 24.436L5.16375 23.77C5.28028 23.7533 5.36347 23.6201 5.3303 23.5036C5.31363 23.3871 5.1971 23.3037 5.08039 23.3204L1.66713 23.9864C1.5506 24.0197 1.46741 24.1363 1.50058 24.2528V24.253Z" fill="white"/>
<path d="M3.21696 22.2216C3.23346 22.3546 3.15027 22.4713 3.01707 22.488L1.48532 22.671C1.35195 22.6877 1.23541 22.5878 1.21891 22.4544C1.20224 22.3214 1.28543 22.2049 1.41863 22.188L2.95055 22.005C3.06709 21.9883 3.20029 22.0882 3.21696 22.2216Z" fill="#F3F3F3"/>
<path d="M3.23243 22.2216C3.24893 22.3713 3.14907 22.5045 3.01587 22.5212L1.48412 22.7044C1.35074 22.7211 1.21771 22.6212 1.20104 22.4714C1.18437 22.3215 1.28423 22.1883 1.41743 22.1716L2.94935 21.9884C3.08238 21.9717 3.21576 22.0717 3.23226 22.2214L3.23243 22.2216ZM1.21754 22.4547C1.23421 22.5712 1.35091 22.6712 1.46745 22.6544L2.9992 22.4714C3.11573 22.4547 3.19909 22.3381 3.18241 22.2216C3.16574 22.1049 3.04921 22.0051 2.93268 22.0217L1.40076 22.2049C1.28423 22.2216 1.20104 22.3382 1.21754 22.4547Z" fill="white"/>
<path d="M5.08067 20.6062C5.08067 20.7396 4.98098 20.8561 4.84761 20.8561H1.36783C1.23462 20.8561 1.13477 20.7396 1.13477 20.6064C1.13477 20.4731 1.23462 20.3564 1.36783 20.3564H4.84778C4.98098 20.3564 5.08102 20.4731 5.08102 20.6064L5.08067 20.6062Z" fill="#F3F3F3"/>
<path d="M5.09856 20.6062C5.09856 20.7563 4.98186 20.8727 4.84866 20.8727H1.36888C1.23567 20.8727 1.11914 20.7561 1.11914 20.6062C1.11914 20.4565 1.23567 20.3398 1.36888 20.3398H4.84883C4.98203 20.3398 5.09856 20.4565 5.09856 20.6062ZM1.15231 20.5897C1.15231 20.7063 1.25217 20.8228 1.36888 20.8228H4.84866C4.96519 20.8228 5.06522 20.723 5.06522 20.5897C5.06522 20.4732 4.96519 20.3565 4.84866 20.3565H1.36888C1.25234 20.3732 1.15248 20.4732 1.15248 20.5897H1.15231Z" fill="white"/>
<path d="M3.23347 18.9247C3.21663 19.0579 3.11677 19.1577 2.98357 19.1577L1.43497 19.0412C1.30194 19.0245 1.20208 18.908 1.21858 18.7748C1.23525 18.6416 1.33529 18.5417 1.46849 18.5417L3.01691 18.6583C3.13344 18.675 3.23347 18.7915 3.23347 18.9247Z" fill="#E2E2E2"/>
<path d="M3.2487 18.9245C3.23203 19.0744 3.1155 19.1742 2.9823 19.1742L1.4337 19.0577C1.30067 19.041 1.18414 18.9245 1.20081 18.7746C1.21731 18.6249 1.33402 18.5249 1.46722 18.5249L3.01564 18.6414C3.14884 18.6581 3.2487 18.7913 3.2487 18.9245ZM1.21731 18.7746C1.20081 18.8912 1.30067 19.0079 1.4172 19.0079L2.9658 19.1244C3.08216 19.1244 3.18219 19.041 3.19886 18.9078C3.21553 18.7913 3.1155 18.6748 2.99897 18.6748L1.45038 18.5582C1.33402 18.5582 1.23399 18.6581 1.21731 18.7748V18.7746Z" fill="white"/>
<path d="M5.38106 17.709C5.34771 17.8422 5.23118 17.9256 5.09798 17.9089L1.68471 17.2096C1.55151 17.1762 1.46815 17.0597 1.50149 16.9265C1.53484 16.7933 1.65137 16.7099 1.78457 16.7268L5.19801 17.4095C5.31454 17.4426 5.39773 17.5758 5.38106 17.709Z" fill="#F3F3F3"/>
<path d="M5.39772 17.7091C5.36438 17.8589 5.23117 17.9423 5.09797 17.9256L1.68471 17.2429C1.5515 17.2096 1.45164 17.0764 1.48499 16.9267C1.51816 16.7766 1.65136 16.6934 1.78456 16.7101L5.198 17.3928C5.33121 17.4261 5.41439 17.5594 5.39772 17.7091ZM1.51816 16.9265C1.50149 17.043 1.568 17.1596 1.68471 17.1929L5.09814 17.8756C5.21467 17.8923 5.33121 17.8258 5.36455 17.6924C5.38105 17.5759 5.31453 17.4593 5.19783 17.426L1.78474 16.7435C1.65153 16.7268 1.55167 16.81 1.51833 16.9265H1.51816Z" fill="white"/>
<path d="M3.88152 15.7113C3.87387 15.743 3.86005 15.7729 3.84085 15.7993C3.82164 15.8256 3.79743 15.848 3.76959 15.865C3.74175 15.882 3.71083 15.8933 3.6786 15.8983C3.64637 15.9034 3.61347 15.902 3.58177 15.8943L2.08319 15.4781C1.94998 15.4447 1.88347 15.3115 1.91664 15.1783C1.92428 15.1466 1.9381 15.1167 1.95731 15.0903C1.97652 15.064 2.00073 15.0417 2.02857 15.0247C2.05641 15.0077 2.08733 14.9963 2.11956 14.9913C2.15178 14.9862 2.18469 14.9876 2.21639 14.9953L3.71497 15.4115C3.84817 15.4447 3.91469 15.5779 3.88152 15.7111V15.7113Z" fill="#F3F3F3"/>
<path d="M3.89798 15.7112C3.86481 15.8442 3.71493 15.9442 3.58173 15.8942L2.08315 15.4779C1.94995 15.4446 1.86659 15.2947 1.89993 15.1617C1.93327 15.0283 2.08315 14.9284 2.21635 14.9785L3.71493 15.3947C3.84813 15.4281 3.93149 15.5613 3.89798 15.711V15.7112ZM1.94995 15.1613C1.9166 15.278 1.98329 15.4112 2.09982 15.4444L3.5984 15.8607C3.71493 15.894 3.83146 15.8273 3.86481 15.6941C3.89798 15.5776 3.83146 15.4444 3.71493 15.4112L2.21635 14.995C2.09982 14.9783 1.98329 15.0448 1.94995 15.1615V15.1613Z" fill="white"/>
<path d="M6.23069 14.9121C6.18084 15.0451 6.0308 15.0952 5.91444 15.0451L2.70072 13.7131C2.58419 13.6633 2.51767 13.5134 2.56751 13.3969C2.61753 13.2637 2.76741 13.2136 2.88394 13.2637L6.09748 14.5957C6.23069 14.6455 6.2807 14.7954 6.23069 14.9119V14.9121Z" fill="#F3F3F3"/>
<path d="M6.24567 14.9285C6.22129 14.9925 6.17254 15.0442 6.1101 15.0723C6.04766 15.1004 5.97663 15.1026 5.91258 15.0784L2.69903 13.7464C2.56583 13.6965 2.51599 13.5467 2.56583 13.3968C2.59021 13.3328 2.63897 13.2811 2.7014 13.253C2.76384 13.2249 2.83487 13.2227 2.89892 13.2469L6.11247 14.5789C6.24567 14.6455 6.29552 14.7955 6.24567 14.9285ZM2.59917 13.4135C2.54933 13.53 2.59917 13.6632 2.7157 13.713L5.92925 15.0451C6.04578 15.0951 6.16231 15.0284 6.21233 14.9119C6.26217 14.7953 6.21233 14.6621 6.0958 14.6123L2.88225 13.2802C2.76572 13.2469 2.63252 13.2969 2.59917 13.4135Z" fill="white"/>
<path d="M5.14834 12.6641C5.08183 12.7807 4.94862 12.8307 4.83209 12.7807L3.45005 12.0815C3.33351 12.0315 3.2835 11.8816 3.35019 11.7484C3.4167 11.6319 3.54991 11.5818 3.66644 11.6319L5.04831 12.3312C5.16502 12.3977 5.21503 12.5478 5.14834 12.6641Z" fill="#F3F3F3"/>
<path d="M5.1647 12.6807C5.09801 12.8139 4.94813 12.8639 4.81493 12.7972L3.43306 12.0978C3.29985 12.0313 3.24984 11.8814 3.31652 11.7482C3.38304 11.615 3.53309 11.565 3.66612 11.6317L5.04799 12.3311C5.18137 12.3809 5.23121 12.5476 5.1647 12.6807ZM3.36637 11.7649C3.31652 11.8814 3.34987 12.0146 3.4664 12.0647L4.84827 12.764C4.94831 12.8139 5.08151 12.764 5.14802 12.664C5.19787 12.5475 5.1647 12.4143 5.04816 12.3642L3.64927 11.6652C3.54941 11.6154 3.41621 11.6486 3.3662 11.7651L3.36637 11.7649Z" fill="white"/>
<path d="M7.59435 12.3477C7.51116 12.4644 7.37795 12.4977 7.26142 12.4144L4.3808 10.4997C4.26444 10.433 4.24777 10.2831 4.31428 10.1666C4.38097 10.0501 4.53085 10.0167 4.64738 10.0999L7.5445 12.0314C7.64436 12.0981 7.67771 12.248 7.59435 12.3477Z" fill="#F3F3F3"/>
<path d="M7.61154 12.3643C7.52836 12.481 7.36181 12.5142 7.24545 12.4477L4.36483 10.5162C4.24829 10.433 4.21495 10.2831 4.29814 10.1501C4.3815 10.0334 4.54804 10 4.66457 10.0667L7.54503 11.9981C7.67823 12.0814 7.6949 12.2478 7.61154 12.3643ZM4.33148 10.1666C4.26497 10.2664 4.28164 10.4163 4.38133 10.4828L7.27862 12.4145C7.37848 12.4812 7.51168 12.4479 7.57837 12.348C7.64489 12.248 7.62822 12.0981 7.52853 12.0316L4.63106 10.1C4.5312 10.0334 4.398 10.0667 4.33131 10.1666H4.33148Z" fill="white"/>
<path d="M6.97876 9.93352C6.89557 10.0334 6.7457 10.0667 6.64584 9.98336L5.43034 9.03444C5.33048 8.95108 5.31381 8.80121 5.397 8.70135C5.48018 8.60149 5.63006 8.56814 5.73009 8.6515L6.94542 9.60043C7.04545 9.68379 7.06212 9.83349 6.97876 9.93352Z" fill="#F3F3F3"/>
<path d="M6.99622 9.95012C6.91303 10.0668 6.74649 10.0835 6.62996 10.0001L5.41446 9.05122C5.29792 8.96803 5.28125 8.80148 5.36461 8.68512C5.4478 8.56842 5.61435 8.55175 5.73071 8.63511L6.94621 9.58403C7.06291 9.66739 7.07958 9.83376 6.99622 9.95047V9.95012ZM5.39778 8.70145C5.3146 8.80131 5.33127 8.93451 5.43113 9.0177L6.64663 9.96697C6.74649 10.0335 6.87969 10.0168 6.96288 9.91695C7.04624 9.81709 7.02956 9.68389 6.92971 9.6007L5.71421 8.65144C5.61435 8.58492 5.48097 8.60159 5.39796 8.70145H5.39778Z" fill="white"/>
<path d="M9.46056 10.1C9.36088 10.2 9.21083 10.2 9.12764 10.1L6.64697 7.65249C6.54711 7.55263 6.56361 7.40275 6.64697 7.31939C6.74683 7.21971 6.89671 7.21971 6.97989 7.31939L9.44424 9.76707C9.5441 9.85025 9.5441 10.0168 9.46091 10.1002L9.46056 10.1Z" fill="#F3F3F3"/>
<path d="M9.46031 10.1168C9.41146 10.1647 9.34573 10.1916 9.27727 10.1916C9.2088 10.1916 9.14307 10.1647 9.09422 10.1168L6.62971 7.66891C6.58163 7.62004 6.55469 7.55424 6.55469 7.48569C6.55469 7.41714 6.58163 7.35134 6.62971 7.30247C6.67856 7.25445 6.74433 7.22754 6.81284 7.22754C6.88135 7.22754 6.94711 7.25445 6.99597 7.30247L9.46031 9.75014C9.57685 9.85 9.57685 10.0166 9.46031 10.1164V10.1168ZM6.66339 7.33582C6.58003 7.41918 6.58003 7.56905 6.66339 7.65207L9.12756 10.0997C9.21092 10.1831 9.36063 10.1831 9.44381 10.0997C9.52717 10.0166 9.52717 9.86668 9.44381 9.78349L6.97964 7.31932C6.89646 7.23613 6.76308 7.23613 6.66339 7.33599V7.33582Z" fill="white"/>
<path d="M9.31024 7.61913C9.21038 7.70249 9.0605 7.70249 8.97715 7.60246L7.96136 6.43698C7.87835 6.33712 7.89485 6.18724 7.99488 6.10405C8.09457 6.02069 8.24461 6.02069 8.3278 6.12055L9.34358 7.28621C9.42677 7.3694 9.4101 7.51927 9.31024 7.61913Z" fill="#F3F3F3"/>
<path d="M9.32651 7.61905C9.20998 7.71891 9.0601 7.70241 8.96007 7.60237L7.94446 6.43689C7.8446 6.33703 7.86127 6.17048 7.97781 6.07062C8.09434 5.97059 8.24421 5.98726 8.34407 6.0873L9.35985 7.25261C9.44304 7.36931 9.44304 7.53586 9.32651 7.61905ZM7.99448 6.10397C7.89445 6.18716 7.89445 6.32036 7.96113 6.42022L8.97691 7.5857C9.0601 7.66906 9.19331 7.68573 9.29316 7.60237C9.39302 7.51919 9.39302 7.38581 9.32651 7.28612L8.31073 6.12047C8.22754 6.02078 8.09416 6.02078 7.99448 6.10397Z" fill="white"/>
<path d="M11.7084 8.25196C11.5919 8.33514 11.442 8.3018 11.3753 8.18527L9.42728 5.30464C9.36059 5.18811 9.39394 5.03824 9.4938 4.97172C9.61033 4.88853 9.7602 4.92188 9.82689 5.03841L11.7582 7.91886C11.8416 8.03539 11.8083 8.18527 11.7084 8.25178V8.25196Z" fill="#F3F3F3"/>
<path d="M11.7084 8.26848C11.5918 8.35184 11.4253 8.31833 11.3419 8.20197L9.41057 5.32134C9.32738 5.20481 9.36073 5.03844 9.49376 4.95525C9.61029 4.87189 9.77684 4.90523 9.8602 5.02177L11.7916 7.90222C11.8747 8.03542 11.8414 8.1853 11.7084 8.26848ZM9.51026 4.98842C9.4104 5.05494 9.37705 5.18814 9.44374 5.28817L11.3751 8.16863C11.4418 8.26848 11.575 8.28516 11.6914 8.21847C11.7914 8.15195 11.8247 8.01875 11.758 7.91889L9.82685 5.05494C9.76016 4.95525 9.61029 4.92173 9.5106 4.98842H9.51026Z" fill="white"/>
<path d="M12.0584 5.78742C11.9419 5.85394 11.792 5.82077 11.7255 5.70423L10.9595 4.35553C10.893 4.239 10.9428 4.08913 11.0595 4.02244C11.176 3.95592 11.3259 3.98909 11.3924 4.1058L12.1583 5.45433C12.2083 5.57086 12.175 5.72073 12.0586 5.78742H12.0584Z" fill="#F3F3F3"/>
<path d="M12.0571 5.80409C11.9239 5.87061 11.774 5.83744 11.7075 5.72073L10.9414 4.3722C10.8749 4.2555 10.9083 4.08913 11.0415 4.02244C11.1747 3.95592 11.3245 3.98909 11.3911 4.1058L12.1569 5.45433C12.2236 5.57086 12.1903 5.72073 12.0572 5.80409H12.0571ZM11.0581 4.03911C10.9581 4.10563 10.9083 4.23883 10.9748 4.33886L11.7408 5.68756C11.8073 5.78725 11.9405 5.82077 12.0404 5.77075C12.1404 5.70423 12.1903 5.57086 12.1238 5.471L11.3577 4.1223C11.3079 4.02261 11.158 3.97242 11.0581 4.03911Z" fill="white"/>
<path d="M14.2715 6.88662C14.1385 6.93646 14.0051 6.88662 13.9553 6.77009L12.6066 3.55637C12.5567 3.43984 12.6232 3.28996 12.7398 3.23995C12.873 3.1901 13.0062 3.23995 13.056 3.35648L14.4047 6.57002C14.4547 6.68655 14.3882 6.83643 14.2715 6.88627V6.88662Z" fill="#F3F3F3"/>
<path d="M14.2716 6.90314C14.1386 6.95299 13.9887 6.90314 13.922 6.76977L12.5733 3.55639C12.5491 3.49234 12.5513 3.42131 12.5794 3.35887C12.6075 3.29644 12.6592 3.24768 12.7232 3.2233C12.8564 3.17346 13.0063 3.2233 13.073 3.3565L14.4215 6.57005C14.4715 6.68658 14.405 6.83646 14.2718 6.90314H14.2716ZM12.7565 3.25664C12.64 3.30649 12.59 3.43986 12.64 3.53972L13.9885 6.7531C14.0384 6.86963 14.1716 6.91947 14.2881 6.86963C14.4046 6.81978 14.4548 6.68641 14.4046 6.58655L13.0561 3.373C12.9894 3.25647 12.8729 3.20646 12.7564 3.25647L12.7565 3.25664Z" fill="white"/>
<path d="M15.0874 4.52228C14.9542 4.57212 14.821 4.50543 14.7711 4.3724L14.2882 2.90699C14.2383 2.79046 14.3215 2.64059 14.4381 2.60742C14.5546 2.57407 14.7045 2.62409 14.7543 2.75729L15.2373 4.22253C15.2871 4.33906 15.2206 4.47226 15.0874 4.5221V4.52228Z" fill="#F3F3F3"/>
<path d="M15.1039 4.53863C15.0399 4.56276 14.9689 4.56054 14.9065 4.53245C14.8441 4.50436 14.7954 4.45269 14.771 4.38875L14.288 2.92352C14.2382 2.79032 14.3214 2.64061 14.4548 2.5906C14.5188 2.56646 14.5898 2.56868 14.6522 2.59677C14.7146 2.62486 14.7633 2.67653 14.7877 2.74047L15.2705 4.20571C15.3038 4.33891 15.2371 4.48878 15.1039 4.53863ZM14.4546 2.62394C14.3381 2.65711 14.2714 2.79032 14.3047 2.90685L14.7877 4.37225C14.8209 4.48878 14.9541 4.53863 15.0708 4.50528C15.1873 4.47211 15.2538 4.33891 15.2205 4.22238L14.7377 2.75697C14.7292 2.72871 14.7148 2.70255 14.6956 2.68019C14.6763 2.65784 14.6525 2.63979 14.6258 2.62722C14.5991 2.61466 14.5701 2.60786 14.5406 2.60726C14.5111 2.60667 14.4818 2.61229 14.4546 2.62377V2.62394Z" fill="white"/>
<path d="M17.0534 6.03732C16.9202 6.07066 16.7869 5.98747 16.7703 5.8541L16.0709 2.44083C16.0376 2.30763 16.1376 2.1911 16.2706 2.15775C16.404 2.12441 16.537 2.2076 16.5537 2.34097L17.2532 5.75441C17.2697 5.87077 17.1866 6.00397 17.0534 6.03732Z" fill="#F3F3F3"/>
<path d="M17.0535 6.05389C16.9036 6.08723 16.7704 5.9872 16.7371 5.854L16.0377 2.44073C16.0044 2.30753 16.1044 2.15766 16.2376 2.14098C16.3875 2.10764 16.5207 2.20767 16.5539 2.34087L17.2534 5.75431C17.2866 5.88734 17.2034 6.02072 17.0535 6.05389ZM16.2709 2.17433C16.1542 2.191 16.0711 2.30753 16.0877 2.44073L16.7871 5.85417C16.8038 5.97053 16.9368 6.05389 17.0535 6.02055C17.17 6.00388 17.2532 5.88734 17.2365 5.75414L16.5372 2.3407C16.504 2.22434 16.3875 2.15766 16.2708 2.17433H16.2709Z" fill="white"/>
<path d="M18.3186 3.87272C18.1854 3.88939 18.0689 3.8062 18.0355 3.673L17.8358 2.14108C17.8191 2.00788 17.919 1.89134 18.0524 1.87467C18.1854 1.858 18.3019 1.94136 18.3353 2.07456L18.535 3.60631C18.5517 3.73952 18.4518 3.85605 18.3186 3.87272Z" fill="#F3F3F3"/>
<path d="M18.3177 3.88938C18.1678 3.90605 18.0346 3.80619 18.0179 3.67281L17.8182 2.14106C17.8015 2.00786 17.9014 1.87466 18.0513 1.85799C18.2012 1.84149 18.3344 1.94135 18.351 2.07455L18.5508 3.6063C18.5674 3.7395 18.4676 3.87271 18.3177 3.88938ZM18.068 1.89133C17.9514 1.908 17.8514 2.02453 17.8681 2.14106L18.068 3.67299C18.0846 3.78952 18.2012 3.87271 18.3177 3.85603C18.4342 3.83953 18.5343 3.72283 18.5176 3.6063L18.3177 2.07455C18.301 1.95802 18.1845 1.87466 18.068 1.89133Z" fill="white"/>
<path d="M20.1164 40.3537C31.0042 40.3537 39.8305 31.5274 39.8305 20.6396C39.8305 9.75182 31.0042 0.925537 20.1164 0.925537C9.22863 0.925537 0.402344 9.75182 0.402344 20.6396C0.402344 31.5274 9.22863 40.3537 20.1164 40.3537Z" fill="url(#paint0_linear_827_11413)" fill-opacity="0.2"/>
<defs>
<linearGradient id="paint0_linear_827_11413" x1="19.7418" y1="15.0026" x2="10.5405" y2="31.5107" gradientUnits="userSpaceOnUse">
<stop stop-opacity="0"/>
<stop offset="1"/>
</linearGradient>
</defs>
</svg>
