<svg width="19" height="19" viewBox="0 0 19 19" fill="none" xmlns="http://www.w3.org/2000/svg">
<path d="M4.04 2.86914C4.1 3.75914 4.25 4.62914 4.49 5.45914L3.29 6.65914C2.88 5.45914 2.62 4.18914 2.53 2.86914H4.04ZM13.9 14.8891C14.75 15.1291 15.62 15.2791 16.5 15.3391V16.8291C15.18 16.7391 13.91 16.4791 12.7 16.0791L13.9 14.8891ZM5 0.869141H1.5C0.95 0.869141 0.5 1.31914 0.5 1.86914C0.5 11.2591 8.11 18.8691 17.5 18.8691C18.05 18.8691 18.5 18.4191 18.5 17.8691V14.3791C18.5 13.8291 18.05 13.3791 17.5 13.3791C16.26 13.3791 15.05 13.1791 13.93 12.8091C13.83 12.7691 13.72 12.7591 13.62 12.7591C13.36 12.7591 13.11 12.8591 12.91 13.0491L10.71 15.2491C7.88 13.7991 5.56 11.4891 4.12 8.65914L6.32 6.45914C6.6 6.17914 6.68 5.78914 6.57 5.43914C6.2 4.31914 6 3.11914 6 1.86914C6 1.31914 5.55 0.869141 5 0.869141Z" fill="white"/>
</svg>
