<svg width="24" height="25" viewBox="0 0 24 25" fill="none" xmlns="http://www.w3.org/2000/svg">
<g clip-path="url(#clip0_361_8242)">
<path d="M20 4.31152H4C2.9 4.31152 2 5.21152 2 6.31152V18.3115C2 19.4115 2.9 20.3115 4 20.3115H20C21.1 20.3115 22 19.4115 22 18.3115V6.31152C22 5.21152 21.1 4.31152 20 4.31152ZM20 18.3115H4V6.31152H20V18.3115ZM4 0.311523H20V2.31152H4V0.311523ZM4 22.3115H20V24.3115H4V22.3115ZM12 12.3115C13.38 12.3115 14.5 11.1915 14.5 9.81152C14.5 8.43152 13.38 7.31152 12 7.31152C10.62 7.31152 9.5 8.43152 9.5 9.81152C9.5 11.1915 10.62 12.3115 12 12.3115ZM12 8.81152C12.55 8.81152 13 9.26152 13 9.81152C13 10.3615 12.55 10.8115 12 10.8115C11.45 10.8115 11 10.3615 11 9.81152C11 9.26152 11.45 8.81152 12 8.81152ZM17 16.3015C17 14.2115 13.69 13.3115 12 13.3115C10.31 13.3115 7 14.2115 7 16.3015V17.3115H17V16.3015ZM8.81 15.8115C9.42 15.2915 10.84 14.8115 12 14.8115C13.17 14.8115 14.59 15.2915 15.2 15.8115H8.81Z" fill="#362E00"/>
</g>
<defs>
<clipPath id="clip0_361_8242">
<rect width="24" height="24" fill="white" transform="translate(0 0.311523)"/>
</clipPath>
</defs>
</svg>
