<svg width="18" height="17" viewBox="0 0 18 17" fill="none" xmlns="http://www.w3.org/2000/svg">
<path d="M15.92 1.94457C15.72 1.35457 15.16 0.93457 14.5 0.93457H3.5C2.84 0.93457 2.29 1.35457 2.08 1.94457L0 7.93457V15.9346C0 16.4846 0.45 16.9346 1 16.9346H2C2.55 16.9346 3 16.4846 3 15.9346V14.9346H15V15.9346C15 16.4846 15.45 16.9346 16 16.9346H17C17.55 16.9346 18 16.4846 18 15.9346V7.93457L15.92 1.94457ZM3.85 2.93457H14.14L15.18 5.93457H2.81L3.85 2.93457ZM16 12.9346H2V8.27457L2.12 7.93457H15.89L16 8.27457V12.9346Z" fill="white"/>
<path d="M4.5 11.9346C5.32843 11.9346 6 11.263 6 10.4346C6 9.60614 5.32843 8.93457 4.5 8.93457C3.67157 8.93457 3 9.60614 3 10.4346C3 11.263 3.67157 11.9346 4.5 11.9346Z" fill="white"/>
<path d="M13.5 11.9346C14.3284 11.9346 15 11.263 15 10.4346C15 9.60614 14.3284 8.93457 13.5 8.93457C12.6716 8.93457 12 9.60614 12 10.4346C12 11.263 12.6716 11.9346 13.5 11.9346Z" fill="white"/>
</svg>
