<svg width="19" height="19" viewBox="0 0 19 19" fill="none" xmlns="http://www.w3.org/2000/svg">
<path d="M12.5 0.557617H2.5C1.4 0.557617 0.51 1.45762 0.51 2.55762L0.5 16.5576C0.5 17.6576 1.39 18.5576 2.49 18.5576H16.5C17.6 18.5576 18.5 17.6576 18.5 16.5576V6.55762L12.5 0.557617ZM2.5 16.5576V2.55762H11.5V7.55762H16.5V16.5576H2.5ZM6.5 5.55762C6.5 6.10762 6.05 6.55762 5.5 6.55762C4.95 6.55762 4.5 6.10762 4.5 5.55762C4.5 5.00762 4.95 4.55762 5.5 4.55762C6.05 4.55762 6.5 5.00762 6.5 5.55762ZM6.5 9.55762C6.5 10.1076 6.05 10.5576 5.5 10.5576C4.95 10.5576 4.5 10.1076 4.5 9.55762C4.5 9.00762 4.95 8.55762 5.5 8.55762C6.05 8.55762 6.5 9.00762 6.5 9.55762ZM6.5 13.5576C6.5 14.1076 6.05 14.5576 5.5 14.5576C4.95 14.5576 4.5 14.1076 4.5 13.5576C4.5 13.0076 4.95 12.5576 5.5 12.5576C6.05 12.5576 6.5 13.0076 6.5 13.5576Z" fill="white"/>
</svg>
