<svg width="18" height="16" viewBox="0 0 18 16" fill="none" xmlns="http://www.w3.org/2000/svg">
<path d="M8.766 3.3638C11.6824 3.3638 14.2833 5.00283 15.553 7.59604C15.099 8.53483 14.4603 9.3428 13.6985 9.99688L14.7835 11.0819C15.8531 10.1354 16.6995 8.95036 17.2305 7.59604C15.8993 4.21794 12.6135 1.8248 8.766 1.8248C7.78873 1.8248 6.84995 1.9787 5.96502 2.26342L7.2347 3.53309C7.73487 3.43305 8.24274 3.3638 8.766 3.3638ZM7.94264 4.24103L9.5355 5.83389C9.97411 6.02627 10.3281 6.38023 10.5205 6.81885L12.1133 8.41171C12.1749 8.15008 12.221 7.87306 12.221 7.58835C12.2287 5.67999 10.6744 4.1333 8.766 4.1333C8.48128 4.1333 8.21196 4.17177 7.94264 4.24103ZM1.07871 1.72477L3.14096 3.78702C1.88668 4.77198 0.894028 6.08013 0.301514 7.59604C1.63275 10.9741 4.91851 13.3673 8.766 13.3673C9.93564 13.3673 11.0591 13.1441 12.0902 12.7363L14.7219 15.368L15.8069 14.283L2.1637 0.63208L1.07871 1.72477ZM6.84995 7.49601L8.85834 9.5044C8.82756 9.51209 8.79678 9.51979 8.766 9.51979C7.70409 9.51979 6.84225 8.65795 6.84225 7.59604C6.84225 7.55757 6.84995 7.53448 6.84995 7.49601ZM4.23365 4.87971L5.58027 6.22634C5.40329 6.64956 5.30325 7.11126 5.30325 7.59604C5.30325 9.5044 6.85764 11.0588 8.766 11.0588C9.25078 11.0588 9.71248 10.9588 10.128 10.7818L10.8821 11.5359C10.205 11.7206 9.49702 11.8283 8.766 11.8283C5.8496 11.8283 3.24869 10.1893 1.97902 7.59604C2.51767 6.49566 3.30256 5.58765 4.23365 4.87971Z" fill="#362E00"/>
</svg>
