<svg width="17" height="17" viewBox="0 0 17 17" fill="none" xmlns="http://www.w3.org/2000/svg">
<path d="M7.1675 9.26052C7.1675 9.7855 6.74143 10.2116 6.21646 10.2116C5.69148 10.2116 5.26542 9.7855 5.26542 9.26052C5.26542 8.73555 5.69148 8.30948 6.21646 8.30948C6.74143 8.30948 7.1675 8.73555 7.1675 9.26052ZM10.7815 8.30948C10.2565 8.30948 9.83042 8.73555 9.83042 9.26052C9.83042 9.7855 10.2565 10.2116 10.7815 10.2116C11.3064 10.2116 11.7325 9.7855 11.7325 9.26052C11.7325 8.73555 11.3064 8.30948 10.7815 8.30948ZM16.1073 8.49969C16.1073 12.6995 12.6988 16.108 8.49896 16.108C4.29916 16.108 0.890625 12.6995 0.890625 8.49969C0.890625 4.29989 4.29916 0.891357 8.49896 0.891357C12.6988 0.891357 16.1073 4.29989 16.1073 8.49969ZM7.47944 2.50432C8.54461 4.26946 10.4771 5.45636 12.6835 5.45636C13.0335 5.45636 13.3759 5.41832 13.7031 5.36506C12.6379 3.59992 10.7054 2.41302 8.49896 2.41302C8.14897 2.41302 7.8066 2.45107 7.47944 2.50432ZM2.73184 6.57478C4.03287 5.83677 5.03717 4.63466 5.51649 3.19668C4.21547 3.93469 3.21117 5.13681 2.73184 6.57478ZM14.5856 8.49969C14.5856 7.90624 14.4943 7.33562 14.3345 6.79542C13.802 6.90955 13.2542 6.97802 12.6835 6.97802C10.3021 6.97802 8.17941 5.88242 6.77947 4.17055C5.9806 6.11828 4.39046 7.64756 2.41229 8.39317C2.4199 8.42361 2.41229 8.46165 2.41229 8.49969C2.41229 11.855 5.14368 14.5864 8.49896 14.5864C11.8542 14.5864 14.5856 11.855 14.5856 8.49969Z" fill="white"/>
</svg>
