<svg width="323" height="277" viewBox="0 0 323 277" fill="none" xmlns="http://www.w3.org/2000/svg">
<g clip-path="url(#clip0_98_6343)">
<path d="M24.2544 254.2C26.1156 254.854 28.1139 255.018 30.0569 254.676C31.9998 254.334 33.8219 253.498 35.3475 252.248C39.2329 248.988 40.4513 243.62 41.4422 238.649L44.3739 223.943L38.2361 228.167C33.8218 231.204 29.3084 234.339 26.2523 238.739C23.1962 243.138 21.8629 249.144 24.3177 253.905" fill="#E6E6E6"/>
<path d="M25.2022 273.028C24.4297 267.403 23.6348 261.706 24.178 256.02C24.6594 250.971 26.2008 246.041 29.3389 241.996C31.0045 239.854 33.0313 238.018 35.3282 236.572C35.927 236.194 36.4782 237.142 35.882 237.519C31.9077 240.029 28.8337 243.735 27.1032 248.104C25.192 252.962 24.8851 258.258 25.2143 263.418C25.4133 266.539 25.8361 269.639 26.2608 272.736C26.2943 272.876 26.2734 273.024 26.2022 273.149C26.1311 273.274 26.015 273.368 25.8775 273.41C25.7372 273.448 25.5876 273.429 25.4613 273.358C25.3349 273.286 25.242 273.167 25.2026 273.027L25.2022 273.028Z" fill="#F2F2F2"/>
<path d="M30.7629 264.002C31.5611 265.215 32.6582 266.202 33.9488 266.868C35.2394 267.534 36.6798 267.856 38.1313 267.804C41.8623 267.627 44.9714 265.026 47.77 262.556L56.0495 255.25L50.5701 254.988C46.6295 254.799 42.5872 254.622 38.8339 255.838C35.0807 257.054 31.6192 259.975 30.933 263.858" fill="#E6E6E6"/>
<path d="M23.0185 276.262C26.7377 269.685 31.0514 262.375 38.7599 260.039C40.9031 259.392 43.1503 259.16 45.3806 259.356C46.0836 259.417 45.908 260.499 45.2065 260.439C41.4679 260.129 37.7365 261.115 34.6405 263.233C31.6612 265.259 29.3414 268.077 27.3782 271.065C26.1755 272.895 25.0983 274.803 24.0211 276.708C23.6769 277.317 22.6702 276.877 23.0185 276.262Z" fill="#F2F2F2"/>
<path d="M320.617 195.071H115.568C114.936 195.07 114.33 194.819 113.883 194.373C113.437 193.926 113.185 193.321 113.184 192.689V2.38182C113.185 1.75037 113.437 1.14503 113.883 0.698529C114.33 0.252032 114.936 0.000825455 115.568 0H320.617C321.249 0.000825455 321.854 0.252032 322.301 0.698529C322.748 1.14503 322.999 1.75037 323 2.38182V192.689C322.999 193.32 322.748 193.926 322.301 194.372C321.854 194.819 321.249 195.07 320.617 195.071V195.071Z" fill="white"/>
<path d="M320.617 195.071H115.568C114.936 195.07 114.33 194.819 113.883 194.373C113.437 193.926 113.185 193.321 113.184 192.689V2.38182C113.185 1.75037 113.437 1.14503 113.883 0.698529C114.33 0.252032 114.936 0.000825455 115.568 0H320.617C321.249 0.000825455 321.854 0.252032 322.301 0.698529C322.748 1.14503 322.999 1.75037 323 2.38182V192.689C322.999 193.32 322.748 193.926 322.301 194.372C321.854 194.819 321.249 195.07 320.617 195.071V195.071ZM115.568 0.95085C115.189 0.951672 114.826 1.10237 114.558 1.36997C114.291 1.63756 114.14 2.00026 114.139 2.37869V192.689C114.14 193.067 114.291 193.43 114.558 193.698C114.826 193.965 115.189 194.116 115.568 194.117H320.617C320.995 194.116 321.358 193.965 321.626 193.698C321.894 193.43 322.045 193.067 322.045 192.689V2.38182C322.045 2.00338 321.894 1.64068 321.626 1.37309C321.358 1.1055 320.995 0.954798 320.617 0.953976L115.568 0.95085Z" fill="#CACACA"/>
<path d="M212.457 49.4521C212.028 49.4529 211.618 49.6236 211.315 49.9267C211.012 50.2299 210.842 50.6408 210.842 51.0692C210.842 51.4975 211.012 51.9084 211.315 52.2116C211.618 52.5148 212.028 52.6855 212.457 52.6862H301.24C301.669 52.6855 302.08 52.5148 302.383 52.2116C302.686 51.9084 302.856 51.4975 302.856 51.0692C302.856 50.6408 302.686 50.2299 302.383 49.9267C302.08 49.6236 301.669 49.4529 301.24 49.4521H212.457Z" fill="#E4E4E4"/>
<path d="M212.457 59.155C212.029 59.1561 211.618 59.3269 211.316 59.63C211.013 59.9332 210.843 60.3439 210.843 60.7721C210.843 61.2002 211.013 61.6109 211.316 61.9141C211.618 62.2172 212.029 62.388 212.457 62.3891H257.783C258.211 62.388 258.622 62.2172 258.924 61.9141C259.227 61.6109 259.397 61.2002 259.397 60.7721C259.397 60.3439 259.227 59.9332 258.924 59.63C258.622 59.3269 258.211 59.1561 257.783 59.155H212.457Z" fill="#E4E4E4"/>
<path d="M134.857 111.335C134.429 111.336 134.019 111.507 133.716 111.81C133.413 112.113 133.243 112.524 133.243 112.952C133.243 113.38 133.413 113.791 133.716 114.094C134.019 114.397 134.429 114.568 134.857 114.569H301.327C301.755 114.568 302.166 114.397 302.468 114.094C302.771 113.791 302.941 113.38 302.941 112.952C302.941 112.524 302.771 112.113 302.468 111.81C302.166 111.507 301.755 111.336 301.327 111.335H134.857Z" fill="#E4E4E4"/>
<path d="M134.857 121.038C134.429 121.039 134.019 121.21 133.716 121.513C133.413 121.816 133.243 122.227 133.243 122.655C133.243 123.083 133.413 123.494 133.716 123.797C134.019 124.1 134.429 124.271 134.857 124.272H257.869C258.298 124.271 258.708 124.1 259.011 123.797C259.313 123.494 259.483 123.083 259.483 122.655C259.483 122.227 259.313 121.816 259.011 121.513C258.708 121.21 258.298 121.039 257.869 121.038H134.857Z" fill="#E4E4E4"/>
<path d="M134.857 130.521C134.429 130.522 134.019 130.693 133.716 130.996C133.413 131.299 133.243 131.71 133.243 132.138C133.243 132.566 133.413 132.977 133.716 133.28C134.019 133.583 134.429 133.754 134.857 133.755H301.327C301.755 133.754 302.166 133.583 302.468 133.28C302.771 132.977 302.941 132.566 302.941 132.138C302.941 131.71 302.771 131.299 302.468 130.996C302.166 130.693 301.755 130.522 301.327 130.521H134.857Z" fill="#E4E4E4"/>
<path d="M134.857 140.224C134.429 140.225 134.019 140.396 133.716 140.699C133.413 141.002 133.243 141.413 133.243 141.841C133.243 142.27 133.413 142.68 133.716 142.983C134.019 143.287 134.429 143.457 134.857 143.458H257.869C258.298 143.457 258.708 143.287 259.011 142.983C259.313 142.68 259.483 142.27 259.483 141.841C259.483 141.413 259.313 141.002 259.011 140.699C258.708 140.396 258.298 140.225 257.869 140.224H134.857Z" fill="#E4E4E4"/>
<path d="M134.857 149.96C134.429 149.961 134.019 150.132 133.716 150.435C133.413 150.739 133.243 151.149 133.243 151.577C133.243 152.006 133.413 152.416 133.716 152.719C134.019 153.023 134.429 153.193 134.857 153.194H301.327C301.755 153.193 302.166 153.023 302.468 152.719C302.771 152.416 302.941 152.006 302.941 151.577C302.941 151.149 302.771 150.739 302.468 150.435C302.166 150.132 301.755 149.961 301.327 149.96H134.857Z" fill="#E4E4E4"/>
<path d="M134.857 159.664C134.429 159.665 134.019 159.835 133.716 160.139C133.413 160.442 133.243 160.852 133.243 161.281C133.243 161.709 133.413 162.119 133.716 162.423C134.019 162.726 134.429 162.897 134.857 162.898H257.869C258.298 162.897 258.708 162.726 259.011 162.423C259.313 162.119 259.483 161.709 259.483 161.281C259.483 160.852 259.313 160.442 259.011 160.139C258.708 159.835 258.298 159.665 257.869 159.664H134.857Z" fill="#E4E4E4"/>
<path d="M161.225 79.1527C156.627 79.1527 152.132 77.7902 148.31 75.2374C144.487 72.6847 141.507 69.0563 139.748 64.8112C137.988 60.5661 137.528 55.8948 138.425 51.3882C139.322 46.8816 141.536 42.742 144.787 39.4929C148.038 36.2438 152.18 34.0311 156.689 33.1347C161.199 32.2382 165.873 32.6983 170.12 34.4567C174.368 36.2151 177.999 39.1928 180.553 43.0133C183.107 46.8338 184.471 51.3255 184.471 55.9204C184.464 62.0798 182.012 67.9849 177.654 72.3403C173.296 76.6957 167.388 79.1456 161.225 79.1527Z" fill="#FFD700"/>
<path d="M90.6595 166.995C90.6193 166.147 90.3935 165.318 89.9981 164.567C89.6027 163.816 89.0473 163.16 88.371 162.646C87.6946 162.133 86.9138 161.774 86.0836 161.594C85.2533 161.415 84.3938 161.419 83.5656 161.608L75.8817 150.786L68.1624 153.848L79.2282 168.979C79.6372 170.349 80.5348 171.521 81.7507 172.273C82.9666 173.025 84.4165 173.306 85.8255 173.061C87.2346 172.817 88.5049 172.064 89.3959 170.946C90.2868 169.828 90.7364 168.422 90.6595 166.995H90.6595Z" fill="#A0616A"/>
<path d="M75.6841 166.193L52.4341 136.049L61.1457 108.687C61.784 101.808 66.0914 99.8868 66.2747 99.8083L66.5543 99.6885L74.135 119.892L68.569 134.726L82.2306 157.688L75.6841 166.193Z" fill="#3F3D56"/>
<path d="M156.428 73.2697C155.585 73.3753 154.775 73.6643 154.056 74.1164C153.337 74.5685 152.726 75.1726 152.266 75.8862C151.806 76.5998 151.508 77.4056 151.393 78.2467C151.279 79.0878 151.35 79.9439 151.602 80.7546L141.4 89.2475L145.052 96.7023L159.291 84.5065C160.625 83.993 161.725 83.0081 162.382 81.7383C163.038 80.4686 163.206 79.0023 162.853 77.6172C162.5 76.2321 161.651 75.0245 160.467 74.2233C159.283 73.422 157.845 73.0827 156.428 73.2697Z" fill="#A0616A"/>
<path d="M156.785 88.2533L128.511 113.75L100.54 107.186C93.6281 107.081 91.3787 102.938 91.2862 102.761L91.145 102.492L110.714 93.3767L125.943 97.7758L147.794 82.3879L156.785 88.2533Z" fill="#3F3D56"/>
<path d="M107.81 269.511L115.407 269.511L119.02 240.227L107.808 240.227L107.81 269.511Z" fill="#A0616A"/>
<path d="M130.058 276.56L106.182 276.561L106.182 267.342L123.359 267.341C125.135 267.341 126.839 268.046 128.095 269.302C129.352 270.557 130.057 272.26 130.058 274.035L130.058 276.56L130.058 276.56Z" fill="#2F2E41"/>
<path d="M77.4467 269.511L85.0436 269.511L88.6577 240.227L77.4458 240.227L77.4467 269.511Z" fill="#A0616A"/>
<path d="M99.6948 276.56L75.8194 276.561L75.8189 267.342L92.9961 267.341C93.8757 267.341 94.7468 267.514 95.5595 267.851C96.3721 268.187 97.1106 268.68 97.7326 269.302C98.3546 269.923 98.8481 270.661 99.1847 271.474C99.5214 272.286 99.6947 273.156 99.6947 274.035L99.6948 276.56Z" fill="#2F2E41"/>
<path d="M74.7451 162.621L75.3647 205.97L75.9848 262.943L89.6166 261.705L96.433 183.057L105.108 261.705H119.182L120.599 182.438L115.642 165.098L74.7451 162.621Z" fill="#2F2E41"/>
<path d="M101.427 168.443C86.5941 168.444 72.9407 161.734 72.7564 161.642L72.6033 161.566L71.3585 131.712C70.9976 130.657 63.89 109.84 62.6862 103.223C61.4666 96.5198 79.1429 90.6365 81.2895 89.9485L81.7766 84.5558L101.585 82.4226L104.096 89.3229L111.202 91.9859C112.008 92.2881 112.675 92.8751 113.076 93.6357C113.478 94.3963 113.586 95.2777 113.381 96.1129L109.431 112.165L119.077 165.273L117.001 165.363C112.023 167.61 106.65 168.442 101.427 168.443Z" fill="#3F3D56"/>
<path d="M99.2973 77.2602C106.209 73.4843 108.749 64.8239 104.971 57.9166C101.193 51.0092 92.5268 48.4707 85.6152 52.2466C78.7037 56.0225 76.1637 64.683 79.9419 71.5903C83.7201 78.4976 92.3858 81.0362 99.2973 77.2602Z" fill="#A0616A"/>
<path d="M80.9048 78.5521C83.6228 81.4456 88.6706 79.8923 89.0248 75.9393C89.0525 75.6324 89.0505 75.3235 89.0188 75.017C88.8359 73.266 87.8237 71.6763 88.0661 69.8275C88.121 69.3674 88.2925 68.9289 88.5645 68.5535C90.7304 65.6549 95.8148 69.85 97.8589 67.226C99.1123 65.617 97.639 63.0837 98.6008 61.2854C99.8703 58.9119 103.63 60.0827 105.989 58.7829C108.612 57.3367 108.455 53.3138 106.728 50.8668C104.622 47.8827 100.929 46.2904 97.2824 46.0609C93.6355 45.8314 90.0139 46.8166 86.6092 48.1426C82.7409 49.6492 78.9049 51.7314 76.5244 55.1308C73.6294 59.2648 73.3508 64.8225 74.7986 69.6565C75.6794 72.597 78.6852 76.1892 80.9048 78.5521Z" fill="#2F2E41"/>
<path d="M181.227 276.927H0.474415C0.348592 276.927 0.227915 276.877 0.138945 276.788C0.0499753 276.699 0 276.579 0 276.453C0 276.327 0.0499753 276.207 0.138945 276.118C0.227915 276.029 0.348592 275.979 0.474415 275.979H181.227C181.352 275.979 181.473 276.029 181.562 276.118C181.651 276.207 181.701 276.327 181.701 276.453C181.701 276.579 181.651 276.699 181.562 276.788C181.473 276.877 181.352 276.927 181.227 276.927Z" fill="#CACACA"/>
<path d="M159.882 64.6952C159.463 64.6957 159.059 64.5372 158.753 64.2517L151.087 57.1363C150.765 56.8367 150.575 56.4215 150.559 55.9819C150.543 55.5424 150.702 55.1145 151.002 54.7923C151.301 54.47 151.717 54.2797 152.156 54.2633C152.596 54.2468 153.025 54.4056 153.347 54.7045L159.84 60.7316L172.685 47.8941C172.839 47.739 173.023 47.6158 173.224 47.5317C173.426 47.4475 173.642 47.404 173.861 47.4036C174.08 47.4032 174.296 47.4459 174.498 47.5293C174.7 47.6127 174.884 47.7352 175.038 47.8897C175.193 48.0442 175.315 48.2277 175.399 48.4296C175.482 48.6315 175.525 48.8479 175.524 49.0664C175.524 49.2849 175.48 49.5011 175.396 49.7027C175.312 49.9042 175.189 50.0872 175.033 50.2411L161.057 64.2093C160.903 64.3636 160.72 64.4859 160.518 64.5693C160.316 64.6527 160.1 64.6955 159.882 64.6952Z" fill="white"/>
</g>
<defs>
<clipPath id="clip0_98_6343">
<rect width="323" height="277" fill="white"/>
</clipPath>
</defs>
</svg>
