<svg width="17" height="16" viewBox="0 0 17 16" fill="none" xmlns="http://www.w3.org/2000/svg">
<path d="M16.0441 4.42659L14.4988 4.42659L14.4988 2.69629L8.42105 8.77409L7.34369 7.69673L13.4215 1.61894L11.6912 1.61894V0.0736444H16.0441V4.42659ZM15.5 9.32364L9.51472 15.3089C8.91619 15.9075 7.93678 15.9075 7.33825 15.3089L0.80884 8.77953C0.204869 8.17556 0.21031 7.20159 0.808839 6.60306L6.79413 0.617762C7.3981 0.0137915 8.36663 0.0137913 8.9706 0.617762L10.603 2.25011L9.51472 3.33835L7.88237 1.706L1.89707 7.69129L8.42649 14.2207L14.4118 8.23541L12.7794 6.60306L13.8677 5.51482L15.5 7.14717C16.0985 7.7457 16.104 8.71967 15.5 9.32364Z" fill="#362E00"/>
</svg>
