<svg width="22" height="22" viewBox="0 0 22 22" fill="none" xmlns="http://www.w3.org/2000/svg">
<path fill-rule="evenodd" clip-rule="evenodd" d="M14.7789 0.84416C18.5748 2.25727 21.3646 5.73769 21.7795 9.91675H17.4774C17.3023 5.71251 16.1192 2.76218 14.785 0.846462L14.7789 0.84416ZM10.9998 0.166748C7.70344 1.72889 6.78695 6.75867 6.64304 9.91675H15.3087C15.1582 6.61427 14.2209 1.95159 10.9998 0.166748ZM7.14989 0.870739C5.8226 2.78703 4.64866 5.73023 4.47434 9.91675H0.219849C0.632191 5.76366 3.38998 2.30055 7.14989 0.870739ZM14.7791 21.156C18.5751 19.7429 21.3649 16.2625 21.7798 12.0834H17.4777C17.3026 16.2876 16.1195 19.238 14.7853 21.1537L14.7791 21.156ZM11 21.8334C7.7037 20.2713 6.78721 15.2415 6.6433 12.0834H15.309C15.1585 15.3859 14.2212 20.0486 11 21.8334ZM7.15015 21.1294C5.82286 19.2131 4.64892 16.2699 4.4746 12.0834H0.220113C0.632456 16.2365 3.39025 19.6996 7.15015 21.1294Z" fill="#362E00"/>
</svg>
