<svg width="44" height="44" viewBox="0 0 44 44" fill="none" xmlns="http://www.w3.org/2000/svg">
<g clip-path="url(#clip0_827_11397)">
<path d="M21.977 32.9751C28.0184 32.9751 32.9168 28.0776 32.9168 22.0353C32.9168 15.993 28.0192 11.0955 21.977 11.0955C15.9347 11.0955 11.0371 15.993 11.0371 22.0353C11.0371 28.0776 15.9347 32.9751 21.977 32.9751Z" fill="white"/>
<path d="M12.5019 27.5069L3.02984 11.1006C1.10914 14.4264 0.0976562 18.199 0.0976562 22.0396C0.0976562 25.8801 1.10828 29.6528 3.02898 32.9786C4.94969 36.3043 7.71172 39.0655 11.0384 40.9853C14.365 42.9052 18.1377 43.915 21.9782 43.9141L31.4502 27.5069V27.5043C30.4912 29.1681 29.1102 30.55 27.4473 31.5107C25.7844 32.4715 23.898 32.9777 21.9773 32.9777C20.0566 32.9777 18.1703 32.4724 16.5066 31.5125C14.8428 30.5525 13.4618 29.1707 12.5019 27.5069Z" fill="url(#paint0_linear_827_11397)"/>
<path d="M31.449 27.5069L21.977 43.9133C25.8175 43.9141 29.5902 42.9035 32.9159 40.9828C36.2417 39.063 39.0037 36.3009 40.9236 32.9751C42.8434 29.6494 43.8541 25.8758 43.8532 22.0353C43.8523 18.1947 42.8409 14.4221 40.9193 11.0972H21.9752L21.9727 11.0989C23.8934 11.098 25.7805 11.6025 27.4434 12.5624C29.1072 13.5223 30.4882 14.9033 31.449 16.5662C32.4098 18.2291 32.9151 20.1163 32.9151 22.037C32.9159 23.9569 32.4098 25.8432 31.449 27.5069Z" fill="url(#paint1_linear_827_11397)"/>
<path d="M21.9772 30.6978C26.7605 30.6978 30.638 26.8203 30.638 22.037C30.638 17.2537 26.7605 13.3762 21.9772 13.3762C17.1939 13.3762 13.3164 17.2537 13.3164 22.037C13.3164 26.8203 17.1939 30.6978 21.9772 30.6978Z" fill="#1A73E8"/>
<path d="M21.9759 11.098H40.9209C39.001 7.77141 36.239 5.00938 32.9132 3.08953C29.5874 1.16883 25.8148 0.158203 21.9742 0.158203C18.1337 0.158203 14.361 1.16969 11.0352 3.09039C7.70945 5.01109 4.94828 7.77398 3.0293 11.0998L12.5013 27.507L12.5039 27.5087C11.5431 25.8458 11.0361 23.9595 11.0361 22.0388C11.0361 20.118 11.5405 18.2309 12.5005 16.568C13.4604 14.9042 14.8414 13.5232 16.5052 12.5633C18.168 11.6025 20.0552 11.0972 21.9759 11.098Z" fill="url(#paint2_linear_827_11397)"/>
</g>
<defs>
<linearGradient id="paint0_linear_827_11397" x1="24.3445" y1="42.5476" x2="5.39883" y2="9.73269" gradientUnits="userSpaceOnUse">
<stop stop-color="#1E8E3E"/>
<stop offset="1" stop-color="#34A853"/>
</linearGradient>
<linearGradient id="paint1_linear_827_11397" x1="18.7844" y1="43.9714" x2="37.7301" y2="11.1565" gradientUnits="userSpaceOnUse">
<stop stop-color="#FCC934"/>
<stop offset="1" stop-color="#FBBC04"/>
</linearGradient>
<linearGradient id="paint2_linear_827_11397" x1="3.02919" y1="13.8334" x2="40.9206" y2="13.8334" gradientUnits="userSpaceOnUse">
<stop stop-color="#D93025"/>
<stop offset="1" stop-color="#EA4335"/>
</linearGradient>
<clipPath id="clip0_827_11397">
<rect width="44" height="44" fill="white"/>
</clipPath>
</defs>
</svg>
