<svg width="20" height="21" viewBox="0 0 20 21" fill="none" xmlns="http://www.w3.org/2000/svg">
<path d="M16 10.9346H12V12.4346H16V10.9346Z" fill="white"/>
<path d="M16 13.9346H12V15.4346H16V13.9346Z" fill="white"/>
<path d="M18 5.93457H13V2.93457C13 1.83457 12.1 0.93457 11 0.93457H9C7.9 0.93457 7 1.83457 7 2.93457V5.93457H2C0.9 5.93457 0 6.83457 0 7.93457V18.9346C0 20.0346 0.9 20.9346 2 20.9346H18C19.1 20.9346 20 20.0346 20 18.9346V7.93457C20 6.83457 19.1 5.93457 18 5.93457ZM9 2.93457H11V7.93457H9V2.93457ZM18 18.9346H2V7.93457H7C7 9.03457 7.9 9.93457 9 9.93457H11C12.1 9.93457 13 9.03457 13 7.93457H18V18.9346Z" fill="white"/>
<path d="M7 13.9346C7.82843 13.9346 8.5 13.263 8.5 12.4346C8.5 11.6061 7.82843 10.9346 7 10.9346C6.17157 10.9346 5.5 11.6061 5.5 12.4346C5.5 13.263 6.17157 13.9346 7 13.9346Z" fill="white"/>
<path d="M9.08 15.1146C8.44 14.8346 7.74 14.6846 7 14.6846C6.26 14.6846 5.56 14.8346 4.92 15.1146C4.36 15.3546 4 15.8946 4 16.5046V16.9346H10V16.5046C10 15.8946 9.64 15.3546 9.08 15.1146Z" fill="white"/>
</svg>
