<svg width="18" height="21" viewBox="0 0 18 21" fill="none" xmlns="http://www.w3.org/2000/svg">
<path d="M14.815 2.78152C14.735 2.78152 14.655 2.76152 14.585 2.72152C12.665 1.73152 11.005 1.31152 9.01499 1.31152C7.03499 1.31152 5.15499 1.78152 3.44499 2.72152C3.20499 2.85152 2.90499 2.76152 2.76499 2.52152C2.63499 2.28152 2.72499 1.97152 2.96499 1.84152C4.82499 0.831523 6.86499 0.311523 9.01499 0.311523C11.145 0.311523 13.005 0.781523 15.045 1.83152C15.295 1.96152 15.385 2.26152 15.255 2.50152C15.165 2.68152 14.995 2.78152 14.815 2.78152ZM0.50499 8.03152C0.40499 8.03152 0.30499 8.00152 0.21499 7.94152C-0.0150101 7.78152 -0.0650102 7.47152 0.0949898 7.24152C1.08499 5.84152 2.34499 4.74152 3.84499 3.97152C6.98499 2.35152 11.005 2.34152 14.155 3.96152C15.655 4.73152 16.915 5.82152 17.905 7.21152C18.065 7.43152 18.015 7.75152 17.785 7.91152C17.555 8.07152 17.245 8.02152 17.085 7.79152C16.185 6.53152 15.045 5.54152 13.695 4.85152C10.825 3.38152 7.15499 3.38152 4.29499 4.86152C2.93499 5.56152 1.79499 6.56152 0.89499 7.82152C0.81499 7.96152 0.66499 8.03152 0.50499 8.03152ZM6.75499 20.1015C6.62499 20.1015 6.49499 20.0515 6.40499 19.9515C5.53499 19.0815 5.06499 18.5215 4.39499 17.3115C3.70499 16.0815 3.34499 14.5815 3.34499 12.9715C3.34499 10.0015 5.88499 7.58152 9.00499 7.58152C12.125 7.58152 14.665 10.0015 14.665 12.9715C14.665 13.2515 14.445 13.4715 14.165 13.4715C13.885 13.4715 13.665 13.2515 13.665 12.9715C13.665 10.5515 11.575 8.58152 9.00499 8.58152C6.43499 8.58152 4.34499 10.5515 4.34499 12.9715C4.34499 14.4115 4.66499 15.7415 5.27499 16.8215C5.91499 17.9715 6.35499 18.4615 7.12499 19.2415C7.31499 19.4415 7.31499 19.7515 7.12499 19.9515C7.01499 20.0515 6.88499 20.1015 6.75499 20.1015ZM13.925 18.2515C12.735 18.2515 11.685 17.9515 10.825 17.3615C9.33499 16.3515 8.44499 14.7115 8.44499 12.9715C8.44499 12.6915 8.66499 12.4715 8.94499 12.4715C9.22499 12.4715 9.44499 12.6915 9.44499 12.9715C9.44499 14.3815 10.165 15.7115 11.385 16.5315C12.095 17.0115 12.925 17.2415 13.925 17.2415C14.165 17.2415 14.565 17.2115 14.965 17.1415C15.235 17.0915 15.495 17.2715 15.545 17.5515C15.595 17.8215 15.415 18.0815 15.135 18.1315C14.565 18.2415 14.065 18.2515 13.925 18.2515ZM11.915 20.3115C11.875 20.3115 11.825 20.3015 11.785 20.2915C10.195 19.8515 9.15499 19.2615 8.06499 18.1915C6.66499 16.8015 5.89499 14.9515 5.89499 12.9715C5.89499 11.3515 7.27499 10.0315 8.97499 10.0315C10.675 10.0315 12.055 11.3515 12.055 12.9715C12.055 14.0415 12.985 14.9115 14.135 14.9115C15.285 14.9115 16.215 14.0415 16.215 12.9715C16.215 9.20152 12.965 6.14152 8.96499 6.14152C6.12499 6.14152 3.52499 7.72152 2.35499 10.1715C1.96499 10.9815 1.76499 11.9315 1.76499 12.9715C1.76499 13.7515 1.83499 14.9815 2.43499 16.5815C2.53499 16.8415 2.40499 17.1315 2.14499 17.2215C1.88499 17.3215 1.59499 17.1815 1.50499 16.9315C1.01499 15.6215 0.77499 14.3215 0.77499 12.9715C0.77499 11.7715 1.00499 10.6815 1.45499 9.73152C2.78499 6.94152 5.73499 5.13152 8.96499 5.13152C13.515 5.13152 17.215 8.64152 17.215 12.9615C17.215 14.5815 15.835 15.9015 14.135 15.9015C12.435 15.9015 11.055 14.5815 11.055 12.9615C11.055 11.8915 10.125 11.0215 8.97499 11.0215C7.82499 11.0215 6.89499 11.8915 6.89499 12.9615C6.89499 14.6715 7.55499 16.2715 8.76499 17.4715C9.71499 18.4115 10.625 18.9315 12.035 19.3215C12.305 19.3915 12.455 19.6715 12.385 19.9315C12.335 20.1615 12.125 20.3115 11.915 20.3115Z" fill="black"/>
</svg>
