<svg width="18" height="21" viewBox="0 0 18 21" fill="none" xmlns="http://www.w3.org/2000/svg">
<path d="M14.8151 2.78152C14.7351 2.78152 14.6551 2.76152 14.5851 2.72152C12.6651 1.73152 11.0051 1.31152 9.01511 1.31152C7.03511 1.31152 5.15511 1.78152 3.44511 2.72152C3.20511 2.85152 2.90511 2.76152 2.76511 2.52152C2.63511 2.28152 2.72511 1.97152 2.96511 1.84152C4.82511 0.831523 6.86511 0.311523 9.01511 0.311523C11.1451 0.311523 13.0051 0.781523 15.0451 1.83152C15.2951 1.96152 15.3851 2.26152 15.2551 2.50152C15.1651 2.68152 14.9951 2.78152 14.8151 2.78152ZM0.505112 8.03152C0.405112 8.03152 0.305112 8.00152 0.215112 7.94152C-0.014888 7.78152 -0.0648881 7.47152 0.0951119 7.24152C1.08511 5.84152 2.34511 4.74152 3.84511 3.97152C6.98511 2.35152 11.0051 2.34152 14.1551 3.96152C15.6551 4.73152 16.9151 5.82152 17.9051 7.21152C18.0651 7.43152 18.0151 7.75152 17.7851 7.91152C17.5551 8.07152 17.2451 8.02152 17.0851 7.79152C16.1851 6.53152 15.0451 5.54152 13.6951 4.85152C10.8251 3.38152 7.15511 3.38152 4.29511 4.86152C2.93511 5.56152 1.79511 6.56152 0.895112 7.82152C0.815112 7.96152 0.665112 8.03152 0.505112 8.03152ZM6.75511 20.1015C6.62511 20.1015 6.49511 20.0515 6.40511 19.9515C5.53511 19.0815 5.06511 18.5215 4.39511 17.3115C3.70511 16.0815 3.34511 14.5815 3.34511 12.9715C3.34511 10.0015 5.88511 7.58152 9.00511 7.58152C12.1251 7.58152 14.6651 10.0015 14.6651 12.9715C14.6651 13.2515 14.4451 13.4715 14.1651 13.4715C13.8851 13.4715 13.6651 13.2515 13.6651 12.9715C13.6651 10.5515 11.5751 8.58152 9.00511 8.58152C6.43511 8.58152 4.34511 10.5515 4.34511 12.9715C4.34511 14.4115 4.66511 15.7415 5.27511 16.8215C5.91511 17.9715 6.35511 18.4615 7.12511 19.2415C7.31511 19.4415 7.31511 19.7515 7.12511 19.9515C7.01511 20.0515 6.88511 20.1015 6.75511 20.1015ZM13.9251 18.2515C12.7351 18.2515 11.6851 17.9515 10.8251 17.3615C9.33511 16.3515 8.44511 14.7115 8.44511 12.9715C8.44511 12.6915 8.66511 12.4715 8.94511 12.4715C9.22511 12.4715 9.44511 12.6915 9.44511 12.9715C9.44511 14.3815 10.1651 15.7115 11.3851 16.5315C12.0951 17.0115 12.9251 17.2415 13.9251 17.2415C14.1651 17.2415 14.5651 17.2115 14.9651 17.1415C15.2351 17.0915 15.4951 17.2715 15.5451 17.5515C15.5951 17.8215 15.4151 18.0815 15.1351 18.1315C14.5651 18.2415 14.0651 18.2515 13.9251 18.2515ZM11.9151 20.3115C11.8751 20.3115 11.8251 20.3015 11.7851 20.2915C10.1951 19.8515 9.15511 19.2615 8.06511 18.1915C6.66511 16.8015 5.89511 14.9515 5.89511 12.9715C5.89511 11.3515 7.27511 10.0315 8.97511 10.0315C10.6751 10.0315 12.0551 11.3515 12.0551 12.9715C12.0551 14.0415 12.9851 14.9115 14.1351 14.9115C15.2851 14.9115 16.2151 14.0415 16.2151 12.9715C16.2151 9.20152 12.9651 6.14152 8.96511 6.14152C6.12511 6.14152 3.52511 7.72152 2.35511 10.1715C1.96511 10.9815 1.76511 11.9315 1.76511 12.9715C1.76511 13.7515 1.83511 14.9815 2.43511 16.5815C2.53511 16.8415 2.40511 17.1315 2.14511 17.2215C1.88511 17.3215 1.59511 17.1815 1.50511 16.9315C1.01511 15.6215 0.775112 14.3215 0.775112 12.9715C0.775112 11.7715 1.00511 10.6815 1.45511 9.73152C2.78511 6.94152 5.73511 5.13152 8.96511 5.13152C13.5151 5.13152 17.2151 8.64152 17.2151 12.9615C17.2151 14.5815 15.8351 15.9015 14.1351 15.9015C12.4351 15.9015 11.0551 14.5815 11.0551 12.9615C11.0551 11.8915 10.1251 11.0215 8.97511 11.0215C7.82511 11.0215 6.89511 11.8915 6.89511 12.9615C6.89511 14.6715 7.55511 16.2715 8.76511 17.4715C9.71511 18.4115 10.6251 18.9315 12.0351 19.3215C12.3051 19.3915 12.4551 19.6715 12.3851 19.9315C12.3351 20.1615 12.1251 20.3115 11.9151 20.3115Z" fill="white"/>
</svg>
