<svg width="16" height="21" viewBox="0 0 16 21" fill="none" xmlns="http://www.w3.org/2000/svg">
<path d="M10 0.869141H2C0.9 0.869141 0 1.76914 0 2.86914V18.8691C0 19.9691 0.9 20.8691 2 20.8691H14C15.1 20.8691 16 19.9691 16 18.8691V6.86914L10 0.869141ZM14 18.8691H2V2.86914H10V6.86914H14V18.8691ZM8 15.8691C6.9 15.8691 6 14.9691 6 13.8691V8.36914C6 8.08914 6.22 7.86914 6.5 7.86914C6.78 7.86914 7 8.08914 7 8.36914V13.8691H9V8.36914C9 6.98914 7.88 5.86914 6.5 5.86914C5.12 5.86914 4 6.98914 4 8.36914V13.8691C4 16.0791 5.79 17.8691 8 17.8691C10.21 17.8691 12 16.0791 12 13.8691V9.86914H10V13.8691C10 14.9691 9.1 15.8691 8 15.8691Z" fill="white"/>
</svg>
