<svg width="18" height="21" viewBox="0 0 18 21" fill="none" xmlns="http://www.w3.org/2000/svg">
<path d="M16.5 2.36914L15 0.869141L13.5 2.36914L12 0.869141L10.5 2.36914L9 0.869141L7.5 2.36914L6 0.869141L4.5 2.36914L3 0.869141V14.8691H0V17.8691C0 19.5291 1.34 20.8691 3 20.8691H15C16.66 20.8691 18 19.5291 18 17.8691V0.869141L16.5 2.36914ZM12 18.8691H3C2.45 18.8691 2 18.4191 2 17.8691V16.8691H12V18.8691ZM16 17.8691C16 18.4191 15.55 18.8691 15 18.8691C14.45 18.8691 14 18.4191 14 17.8691V14.8691H5V3.86914H16V17.8691Z" fill="white"/>
<path d="M12 5.86914H6V7.86914H12V5.86914Z" fill="white"/>
<path d="M15 5.86914H13V7.86914H15V5.86914Z" fill="white"/>
<path d="M12 8.86914H6V10.8691H12V8.86914Z" fill="white"/>
<path d="M15 8.86914H13V10.8691H15V8.86914Z" fill="white"/>
</svg>
