<svg width="17" height="11" viewBox="0 0 17 11" fill="none" xmlns="http://www.w3.org/2000/svg">
<path d="M0.891693 8.5429H16.1084V10.0646H0.891693V8.5429ZM1.76665 5.46153L2.41336 4.3355L3.06007 5.46153L4.04915 4.8909L3.40244 3.76487H4.69586V2.62362H3.40244L4.04915 1.5052L3.06007 0.93457L2.41336 2.053L1.76665 0.93457L0.777568 1.5052L1.42428 2.62362H0.130859V3.76487H1.42428L0.777568 4.8909L1.76665 5.46153ZM6.86423 4.8909L7.85332 5.46153L8.50003 4.3355L9.14673 5.46153L10.1358 4.8909L9.48911 3.76487H10.7825V2.62362H9.48911L10.1358 1.5052L9.14673 0.93457L8.50003 2.053L7.85332 0.93457L6.86423 1.5052L7.51094 2.62362H6.21753V3.76487H7.51094L6.86423 4.8909ZM16.8692 2.62362H15.5758L16.2225 1.5052L15.2334 0.93457L14.5867 2.053L13.94 0.93457L12.9509 1.5052L13.5976 2.62362H12.3042V3.76487H13.5976L12.9509 4.8909L13.94 5.46153L14.5867 4.3355L15.2334 5.46153L16.2225 4.8909L15.5758 3.76487H16.8692V2.62362Z" fill="white"/>
</svg>
