<svg width="17" height="22" viewBox="0 0 17 22" fill="none" xmlns="http://www.w3.org/2000/svg">
<path d="M14.5 7.81152H13.5V5.81152C13.5 3.05152 11.26 0.811523 8.5 0.811523C5.74 0.811523 3.5 3.05152 3.5 5.81152V7.81152H2.5C1.4 7.81152 0.5 8.71152 0.5 9.81152V19.8115C0.5 20.9115 1.4 21.8115 2.5 21.8115H14.5C15.6 21.8115 16.5 20.9115 16.5 19.8115V9.81152C16.5 8.71152 15.6 7.81152 14.5 7.81152ZM5.5 5.81152C5.5 4.15152 6.84 2.81152 8.5 2.81152C10.16 2.81152 11.5 4.15152 11.5 5.81152V7.81152H5.5V5.81152ZM14.5 19.8115H2.5V9.81152H14.5V19.8115ZM8.5 16.8115C9.6 16.8115 10.5 15.9115 10.5 14.8115C10.5 13.7115 9.6 12.8115 8.5 12.8115C7.4 12.8115 6.5 13.7115 6.5 14.8115C6.5 15.9115 7.4 16.8115 8.5 16.8115Z" fill="#362E00"/>
</svg>
