<svg width="20" height="21" viewBox="0 0 20 21" fill="none" xmlns="http://www.w3.org/2000/svg">
<path d="M18 4.86914H14V2.86914C14 1.76914 13.1 0.869141 12 0.869141H8C6.9 0.869141 6 1.76914 6 2.86914V4.86914H2C0.9 4.86914 0 5.76914 0 6.86914V18.8691C0 19.9691 0.9 20.8691 2 20.8691H18C19.1 20.8691 20 19.9691 20 18.8691V6.86914C20 5.76914 19.1 4.86914 18 4.86914ZM8 2.86914H12V4.86914H8V2.86914ZM18 18.8691H2V6.86914H18V18.8691Z" fill="white"/>
<path d="M11 8.86914H9V11.8691H6V13.8691H9V16.8691H11V13.8691H14V11.8691H11V8.86914Z" fill="white"/>
</svg>
