<svg width="18" height="21" viewBox="0 0 18 21" fill="none" xmlns="http://www.w3.org/2000/svg">
<path d="M16 2.31152H11.82C11.4 1.15152 10.3 0.311523 9 0.311523C7.7 0.311523 6.6 1.15152 6.18 2.31152H2C0.9 2.31152 0 3.21152 0 4.31152V18.3115C0 19.4115 0.9 20.3115 2 20.3115H16C17.1 20.3115 18 19.4115 18 18.3115V4.31152C18 3.21152 17.1 2.31152 16 2.31152ZM9 2.06152C9.41 2.06152 9.75 2.40152 9.75 2.81152C9.75 3.22152 9.41 3.56152 9 3.56152C8.59 3.56152 8.25 3.22152 8.25 2.81152C8.25 2.40152 8.59 2.06152 9 2.06152ZM16 18.3115H2V4.31152H16V18.3115Z" fill="black"/>
<path d="M12.08 10.3415L9.96 8.22152L4 14.1715V16.3115H6.1L12.08 10.3415Z" fill="black"/>
<path d="M13.85 8.58152C14.05 8.38152 14.05 8.07152 13.85 7.87152L12.44 6.46152C12.24 6.26152 11.93 6.26152 11.73 6.46152L10.67 7.52152L12.79 9.64152L13.85 8.58152Z" fill="black"/>
</svg>
