<svg width="24" height="15" viewBox="0 0 24 15" fill="none" xmlns="http://www.w3.org/2000/svg">
<path d="M22 14.3115H16V10.3115H13.32C12.18 12.7315 9.72 14.3115 7 14.3115C3.14 14.3115 0 11.1715 0 7.31152C0 3.45152 3.14 0.311523 7 0.311523C9.72 0.311523 12.17 1.89152 13.32 4.31152H24V10.3115H22V14.3115ZM18 12.3115H20V8.31152H22V6.31152H11.94L11.71 5.64152C11.01 3.65152 9.11 2.31152 7 2.31152C4.24 2.31152 2 4.55152 2 7.31152C2 10.0715 4.24 12.3115 7 12.3115C9.11 12.3115 11.01 10.9715 11.71 8.98152L11.94 8.31152H18V12.3115ZM7 10.3115C5.35 10.3115 4 8.96152 4 7.31152C4 5.66152 5.35 4.31152 7 4.31152C8.65 4.31152 10 5.66152 10 7.31152C10 8.96152 8.65 10.3115 7 10.3115ZM7 6.31152C6.45 6.31152 6 6.76152 6 7.31152C6 7.86152 6.45 8.31152 7 8.31152C7.55 8.31152 8 7.86152 8 7.31152C8 6.76152 7.55 6.31152 7 6.31152Z" fill="white"/>
</svg>
