<svg width="18" height="16" viewBox="0 0 18 16" fill="none" xmlns="http://www.w3.org/2000/svg">
<path d="M9.23398 3.48148C12.1504 3.48148 14.7513 5.12051 16.021 7.71372C15.567 8.65251 14.9283 9.46048 14.1665 10.1146L15.2515 11.1995C16.3211 10.2531 17.1675 9.06804 17.6985 7.71372C16.3672 4.33562 13.0815 1.94248 9.23398 1.94248C8.25672 1.94248 7.31793 2.09638 6.43301 2.38109L7.70268 3.65077C8.20286 3.55073 8.71073 3.48148 9.23398 3.48148ZM8.41062 4.3587L10.0035 5.95157C10.4421 6.14394 10.7961 6.49791 10.9884 6.93652L12.5813 8.52939C12.6429 8.26776 12.689 7.99074 12.689 7.70602C12.6967 5.79767 11.1423 4.25097 9.23398 4.25097C8.94927 4.25097 8.67995 4.28945 8.41062 4.3587ZM1.54669 1.84244L3.60895 3.9047C2.35467 4.88966 1.36201 6.19781 0.769501 7.71372C2.10073 11.0918 5.38649 13.485 9.23398 13.485C10.4036 13.485 11.5271 13.2618 12.5582 12.854L15.1899 15.4857L16.2749 14.4007L2.63169 0.749756L1.54669 1.84244ZM7.31793 7.61368L9.32632 9.62207C9.29554 9.62977 9.26476 9.63746 9.23398 9.63746C8.17208 9.63746 7.31024 8.77563 7.31024 7.71372C7.31024 7.67524 7.31793 7.65216 7.31793 7.61368ZM4.70164 4.99739L6.04826 6.34401C5.87128 6.76724 5.77124 7.22893 5.77124 7.71372C5.77124 9.62208 7.32563 11.1765 9.23398 11.1765C9.71877 11.1765 10.1805 11.0764 10.596 10.8994L11.3501 11.6536C10.6729 11.8382 9.96501 11.946 9.23398 11.946C6.31759 11.946 3.71668 10.3069 2.44701 7.71372C2.98566 6.61334 3.77055 5.70533 4.70164 4.99739Z" fill="#362E00"/>
</svg>
