<svg width="13" height="17" viewBox="0 0 13 17" fill="none" xmlns="http://www.w3.org/2000/svg">
<path d="M11.0638 5.83682H10.3029V4.31515C10.3029 2.21525 8.59868 0.510986 6.49878 0.510986C4.39888 0.510986 2.69461 2.21525 2.69461 4.31515V5.83682H1.93378C1.09686 5.83682 0.412109 6.52157 0.412109 7.35849V14.9668C0.412109 15.8037 1.09686 16.4885 1.93378 16.4885H11.0638C11.9007 16.4885 12.5854 15.8037 12.5854 14.9668V7.35849C12.5854 6.52157 11.9007 5.83682 11.0638 5.83682ZM4.21628 4.31515C4.21628 3.05217 5.23579 2.03265 6.49878 2.03265C7.76176 2.03265 8.78128 3.05217 8.78128 4.31515V5.83682H4.21628V4.31515ZM11.0638 14.9668H1.93378V7.35849H11.0638V14.9668ZM6.49878 12.6843C7.33569 12.6843 8.02044 11.9996 8.02044 11.1627C8.02044 10.3257 7.33569 9.64099 6.49878 9.64099C5.66186 9.64099 4.97711 10.3257 4.97711 11.1627C4.97711 11.9996 5.66186 12.6843 6.49878 12.6843Z" fill="white"/>
</svg>
