<svg width="17" height="17" viewBox="0 0 17 17" fill="none" xmlns="http://www.w3.org/2000/svg">
<path d="M9.16195 10.8354L7.22943 8.92576L7.25226 8.90293C8.57611 7.42692 9.51954 5.73026 10.075 3.93469H12.3042V2.41302H6.97836V0.891357H5.45669V2.41302H0.130859V3.92708H8.62937C8.11961 5.39549 7.31313 6.78782 6.21753 8.00515C5.50995 7.22149 4.92411 6.36175 4.46 5.45636H2.93833C3.49374 6.69652 4.25458 7.8682 5.20562 8.92576L1.33298 12.7451L2.41336 13.8255L6.21753 10.0214L8.58372 12.3875L9.16195 10.8354ZM13.4454 6.97802H11.9238L8.50003 16.108H10.0217L10.8738 13.8255H14.4878L15.3475 16.108H16.8692L13.4454 6.97802ZM11.4521 12.3039L12.6846 9.00945L13.9172 12.3039H11.4521Z" fill="white"/>
</svg>
