<svg width="19" height="19" viewBox="0 0 19 19" fill="none" xmlns="http://www.w3.org/2000/svg">
<path d="M11.67 2.31152L16.5 7.14152V16.3115H2.5V2.31152H11.67ZM11.67 0.311523H2.5C1.4 0.311523 0.5 1.21152 0.5 2.31152V16.3115C0.5 17.4115 1.4 18.3115 2.5 18.3115H16.5C17.6 18.3115 18.5 17.4115 18.5 16.3115V7.14152C18.5 6.61152 18.29 6.10152 17.91 5.73152L13.08 0.901523C12.71 0.521523 12.2 0.311523 11.67 0.311523ZM4.5 12.3115H14.5V14.3115H4.5V12.3115ZM4.5 8.31152H14.5V10.3115H4.5V8.31152ZM4.5 4.31152H11.5V6.31152H4.5V4.31152Z" fill="black"/>
</svg>
