<svg width="10" height="14" viewBox="0 0 10 14" fill="none" xmlns="http://www.w3.org/2000/svg">
<path d="M5.00016 2.33337V0.583374L2.66683 2.91671L5.00016 5.25004V3.50004C6.931 3.50004 8.50016 5.06921 8.50016 7.00004C8.50016 7.58921 8.35433 8.14921 8.09183 8.63337L8.9435 9.48504C9.3985 8.76754 9.66683 7.91587 9.66683 7.00004C9.66683 4.42171 7.5785 2.33337 5.00016 2.33337ZM5.00016 10.5C3.06933 10.5 1.50016 8.93087 1.50016 7.00004C1.50016 6.41087 1.646 5.85087 1.9085 5.36671L1.05683 4.51504C0.601829 5.23254 0.333496 6.08421 0.333496 7.00004C0.333496 9.57837 2.42183 11.6667 5.00016 11.6667V13.4167L7.3335 11.0834L5.00016 8.75004V10.5Z" fill="#1DB504"/>
</svg>
