<svg width="17" height="23" viewBox="0 0 17 23" fill="none" xmlns="http://www.w3.org/2000/svg">
<path d="M8.49967 3.83337V0.958374L4.66634 4.79171L8.49967 8.62504V5.75004C11.6718 5.75004 14.2497 8.32796 14.2497 11.5C14.2497 12.468 14.0101 13.388 13.5788 14.1834L14.978 15.5825C15.7255 14.4038 16.1663 13.0046 16.1663 11.5C16.1663 7.26421 12.7355 3.83337 8.49967 3.83337ZM8.49967 17.25C5.32759 17.25 2.74967 14.6721 2.74967 11.5C2.74967 10.5321 2.98926 9.61212 3.42051 8.81671L2.02134 7.41754C1.27384 8.59629 0.833008 9.99546 0.833008 11.5C0.833008 15.7359 4.26384 19.1667 8.49967 19.1667V22.0417L12.333 18.2084L8.49967 14.375V17.25Z" fill="#FFD700"/>
</svg>
