<svg width="16" height="20" viewBox="0 0 16 20" fill="none" xmlns="http://www.w3.org/2000/svg">
<path d="M2 11.2849C2 9.63491 2.67 8.13491 3.76 7.04491L2.34 5.62491C0.9 7.07491 0 9.07491 0 11.2849C0 15.3649 3.05 18.7249 7 19.2149V17.1949C4.17 16.7149 2 14.2549 2 11.2849ZM16 11.2849C16 6.86491 12.42 3.28491 8 3.28491C7.94 3.28491 7.88 3.29491 7.82 3.29491L8.91 2.20491L7.5 0.784912L4 4.28491L7.5 7.78491L8.91 6.37491L7.83 5.29491C7.89 5.29491 7.95 5.28491 8 5.28491C11.31 5.28491 14 7.97491 14 11.2849C14 14.2549 11.83 16.7149 9 17.1949V19.2149C12.95 18.7249 16 15.3649 16 11.2849Z" fill="#362E00"/>
</svg>
