<svg width="19" height="20" viewBox="0 0 19 20" fill="none" xmlns="http://www.w3.org/2000/svg">
<path d="M15.5 14.12C14.74 14.12 14.06 14.42 13.54 14.89L6.41 10.74C6.46 10.51 6.5 10.28 6.5 10.04C6.5 9.80004 6.46 9.57004 6.41 9.34004L13.46 5.23004C14 5.73004 14.71 6.04004 15.5 6.04004C17.16 6.04004 18.5 4.70004 18.5 3.04004C18.5 1.38004 17.16 0.0400391 15.5 0.0400391C13.84 0.0400391 12.5 1.38004 12.5 3.04004C12.5 3.28004 12.54 3.51004 12.59 3.74004L5.54 7.85004C5 7.35004 4.29 7.04004 3.5 7.04004C1.84 7.04004 0.5 8.38004 0.5 10.04C0.5 11.7 1.84 13.04 3.5 13.04C4.29 13.04 5 12.73 5.54 12.23L12.66 16.39C12.61 16.6 12.58 16.82 12.58 17.04C12.58 18.65 13.89 19.96 15.5 19.96C17.11 19.96 18.42 18.65 18.42 17.04C18.42 15.43 17.11 14.12 15.5 14.12ZM15.5 2.04004C16.05 2.04004 16.5 2.49004 16.5 3.04004C16.5 3.59004 16.05 4.04004 15.5 4.04004C14.95 4.04004 14.5 3.59004 14.5 3.04004C14.5 2.49004 14.95 2.04004 15.5 2.04004ZM3.5 11.04C2.95 11.04 2.5 10.59 2.5 10.04C2.5 9.49004 2.95 9.04004 3.5 9.04004C4.05 9.04004 4.5 9.49004 4.5 10.04C4.5 10.59 4.05 11.04 3.5 11.04ZM15.5 18.06C14.95 18.06 14.5 17.61 14.5 17.06C14.5 16.51 14.95 16.06 15.5 16.06C16.05 16.06 16.5 16.51 16.5 17.06C16.5 17.61 16.05 18.06 15.5 18.06Z" fill="black"/>
</svg>
