<svg width="217" height="47" viewBox="0 0 217 47" fill="none" xmlns="http://www.w3.org/2000/svg">
<path d="M59.278 19V6.4H63.616C64.612 6.4 65.428 6.568 66.064 6.904C66.712 7.24 67.192 7.696 67.504 8.272C67.816 8.836 67.972 9.466 67.972 10.162C67.972 10.942 67.762 11.65 67.342 12.286C66.934 12.922 66.292 13.378 65.416 13.654L68.098 19H65.884L63.436 13.924H61.186V19H59.278ZM61.186 12.484H63.508C64.372 12.484 65.002 12.274 65.398 11.854C65.806 11.434 66.01 10.888 66.01 10.216C66.01 9.544 65.812 9.01 65.416 8.614C65.02 8.206 64.378 8.002 63.49 8.002H61.186V12.484ZM73.7883 19.216C72.9123 19.216 72.1323 19.024 71.4483 18.64C70.7763 18.244 70.2483 17.698 69.8643 17.002C69.4803 16.306 69.2883 15.496 69.2883 14.572C69.2883 13.636 69.4743 12.814 69.8463 12.106C70.2303 11.398 70.7583 10.846 71.4303 10.45C72.1143 10.054 72.9063 9.856 73.8063 9.856C74.6823 9.856 75.4443 10.054 76.0923 10.45C76.7403 10.834 77.2443 11.35 77.6043 11.998C77.9643 12.646 78.1443 13.36 78.1443 14.14C78.1443 14.26 78.1383 14.392 78.1263 14.536C78.1263 14.668 78.1203 14.818 78.1083 14.986H71.1603C71.2203 15.85 71.5023 16.51 72.0063 16.966C72.5223 17.41 73.1163 17.632 73.7883 17.632C74.3283 17.632 74.7783 17.512 75.1383 17.272C75.5103 17.02 75.7863 16.684 75.9663 16.264H77.8743C77.6343 17.104 77.1543 17.806 76.4343 18.37C75.7263 18.934 74.8443 19.216 73.7883 19.216ZM73.7883 11.422C73.1523 11.422 72.5883 11.614 72.0963 11.998C71.6043 12.37 71.3043 12.934 71.1963 13.69H76.2363C76.2003 12.994 75.9543 12.442 75.4983 12.034C75.0423 11.626 74.4723 11.422 73.7883 11.422ZM83.6549 16.264C83.1869 16.264 82.7549 16.21 82.3589 16.102L81.5849 16.858C81.7169 16.942 81.8789 17.014 82.0709 17.074C82.2629 17.134 82.5329 17.188 82.8809 17.236C83.2289 17.284 83.7029 17.332 84.3029 17.38C85.4909 17.488 86.3489 17.776 86.8769 18.244C87.4049 18.7 87.6689 19.312 87.6689 20.08C87.6689 20.608 87.5249 21.106 87.2369 21.574C86.9609 22.054 86.5229 22.438 85.9229 22.726C85.3349 23.026 84.5789 23.176 83.6549 23.176C82.4069 23.176 81.3929 22.936 80.6129 22.456C79.8449 21.988 79.4609 21.274 79.4609 20.314C79.4609 19.942 79.5569 19.57 79.7489 19.198C79.9529 18.838 80.2709 18.496 80.7029 18.172C80.4509 18.064 80.2289 17.95 80.0369 17.83C79.8569 17.698 79.6949 17.566 79.5509 17.434V17.002L81.0989 15.418C80.4029 14.818 80.0549 14.032 80.0549 13.06C80.0549 12.472 80.1929 11.938 80.4689 11.458C80.7569 10.966 81.1709 10.576 81.7109 10.288C82.2509 10 82.8989 9.856 83.6549 9.856C84.1589 9.856 84.6269 9.928 85.0589 10.072H88.3889V11.332L86.8049 11.422C87.0929 11.914 87.2369 12.46 87.2369 13.06C87.2369 13.66 87.0929 14.2 86.8049 14.68C86.5289 15.16 86.1209 15.544 85.5809 15.832C85.0529 16.12 84.4109 16.264 83.6549 16.264ZM83.6549 14.77C84.2069 14.77 84.6509 14.626 84.9869 14.338C85.3349 14.038 85.5089 13.618 85.5089 13.078C85.5089 12.526 85.3349 12.106 84.9869 11.818C84.6509 11.53 84.2069 11.386 83.6549 11.386C83.0909 11.386 82.6349 11.53 82.2869 11.818C81.9509 12.106 81.7829 12.526 81.7829 13.078C81.7829 13.618 81.9509 14.038 82.2869 14.338C82.6349 14.626 83.0909 14.77 83.6549 14.77ZM81.2609 20.134C81.2609 20.65 81.4889 21.034 81.9449 21.286C82.4009 21.55 82.9709 21.682 83.6549 21.682C84.3149 21.682 84.8489 21.538 85.2569 21.25C85.6649 20.974 85.8689 20.602 85.8689 20.134C85.8689 19.786 85.7309 19.486 85.4549 19.234C85.1789 18.994 84.6569 18.844 83.8889 18.784C83.3129 18.748 82.8029 18.694 82.3589 18.622C81.9389 18.85 81.6509 19.096 81.4949 19.36C81.3389 19.624 81.2609 19.882 81.2609 20.134ZM93.3848 19.216C92.3048 19.216 91.4528 18.88 90.8288 18.208C90.2168 17.536 89.9108 16.534 89.9108 15.202V10.072H91.8188V15.004C91.8188 16.732 92.5268 17.596 93.9428 17.596C94.6508 17.596 95.2328 17.344 95.6888 16.84C96.1448 16.336 96.3728 15.616 96.3728 14.68V10.072H98.2808V19H96.5888L96.4448 17.434C96.1688 17.986 95.7608 18.424 95.2208 18.748C94.6928 19.06 94.0808 19.216 93.3848 19.216ZM100.708 19V6.04H102.616V19H100.708ZM108.056 19.216C107.3 19.216 106.676 19.09 106.184 18.838C105.692 18.586 105.326 18.256 105.086 17.848C104.846 17.428 104.726 16.972 104.726 16.48C104.726 15.616 105.062 14.932 105.734 14.428C106.406 13.924 107.366 13.672 108.614 13.672H110.954V13.51C110.954 12.814 110.762 12.292 110.378 11.944C110.006 11.596 109.52 11.422 108.92 11.422C108.392 11.422 107.93 11.554 107.534 11.818C107.15 12.07 106.916 12.448 106.832 12.952H104.924C104.984 12.304 105.2 11.752 105.572 11.296C105.956 10.828 106.436 10.474 107.012 10.234C107.6 9.982 108.242 9.856 108.938 9.856C110.186 9.856 111.152 10.186 111.836 10.846C112.52 11.494 112.862 12.382 112.862 13.51V19H111.206L111.044 17.47C110.792 17.962 110.426 18.376 109.946 18.712C109.466 19.048 108.836 19.216 108.056 19.216ZM108.434 17.668C108.95 17.668 109.382 17.548 109.73 17.308C110.09 17.056 110.366 16.726 110.558 16.318C110.762 15.91 110.888 15.46 110.936 14.968H108.812C108.056 14.968 107.516 15.1 107.192 15.364C106.88 15.628 106.724 15.958 106.724 16.354C106.724 16.762 106.874 17.086 107.174 17.326C107.486 17.554 107.906 17.668 108.434 17.668ZM115.087 19V10.072H116.797L116.959 11.764C117.271 11.176 117.703 10.714 118.255 10.378C118.819 10.03 119.497 9.856 120.289 9.856V11.854H119.767C119.239 11.854 118.765 11.944 118.345 12.124C117.937 12.292 117.607 12.586 117.355 13.006C117.115 13.414 116.995 13.984 116.995 14.716V19H115.087ZM130.69 19.216C129.766 19.216 128.956 19.054 128.26 18.73C127.564 18.406 127.018 17.944 126.622 17.344C126.238 16.744 126.04 16.03 126.028 15.202H128.044C128.056 15.874 128.29 16.444 128.746 16.912C129.202 17.38 129.844 17.614 130.672 17.614C131.404 17.614 131.974 17.44 132.382 17.092C132.802 16.732 133.012 16.276 133.012 15.724C133.012 15.28 132.91 14.92 132.706 14.644C132.514 14.368 132.244 14.14 131.896 13.96C131.56 13.78 131.17 13.618 130.726 13.474C130.282 13.33 129.814 13.174 129.322 13.006C128.35 12.682 127.618 12.262 127.126 11.746C126.646 11.23 126.406 10.552 126.406 9.712C126.394 9.004 126.556 8.386 126.892 7.858C127.24 7.33 127.72 6.922 128.332 6.634C128.956 6.334 129.682 6.184 130.51 6.184C131.326 6.184 132.04 6.334 132.652 6.634C133.276 6.934 133.762 7.354 134.11 7.894C134.458 8.422 134.638 9.04 134.65 9.748H132.634C132.634 9.424 132.55 9.118 132.382 8.83C132.214 8.53 131.968 8.284 131.644 8.092C131.32 7.9 130.924 7.804 130.456 7.804C129.856 7.792 129.358 7.942 128.962 8.254C128.578 8.566 128.386 8.998 128.386 9.55C128.386 10.042 128.53 10.42 128.818 10.684C129.106 10.948 129.502 11.17 130.006 11.35C130.51 11.518 131.086 11.716 131.734 11.944C132.358 12.148 132.916 12.394 133.408 12.682C133.9 12.97 134.29 13.348 134.578 13.816C134.878 14.284 135.028 14.878 135.028 15.598C135.028 16.234 134.866 16.828 134.542 17.38C134.218 17.92 133.732 18.364 133.084 18.712C132.436 19.048 131.638 19.216 130.69 19.216ZM138.086 22.96L140.228 18.262H139.706L136.178 10.072H138.248L140.984 16.678L143.846 10.072H145.862L140.102 22.96H138.086ZM147.431 19V10.072H149.123L149.267 11.638C149.543 11.086 149.945 10.654 150.473 10.342C151.013 10.018 151.631 9.856 152.327 9.856C153.407 9.856 154.253 10.192 154.865 10.864C155.489 11.536 155.801 12.538 155.801 13.87V19H153.911V14.068C153.911 12.34 153.203 11.476 151.787 11.476C151.079 11.476 150.491 11.728 150.023 12.232C149.567 12.736 149.339 13.456 149.339 14.392V19H147.431ZM162.278 19.216C161.402 19.216 160.616 19.018 159.92 18.622C159.236 18.226 158.696 17.68 158.3 16.984C157.916 16.276 157.724 15.46 157.724 14.536C157.724 13.612 157.916 12.802 158.3 12.106C158.696 11.398 159.236 10.846 159.92 10.45C160.616 10.054 161.402 9.856 162.278 9.856C163.382 9.856 164.306 10.144 165.05 10.72C165.806 11.296 166.292 12.076 166.508 13.06H164.51C164.39 12.568 164.126 12.184 163.718 11.908C163.31 11.632 162.83 11.494 162.278 11.494C161.81 11.494 161.378 11.614 160.982 11.854C160.586 12.082 160.268 12.424 160.028 12.88C159.788 13.324 159.668 13.876 159.668 14.536C159.668 15.196 159.788 15.754 160.028 16.21C160.268 16.654 160.586 16.996 160.982 17.236C161.378 17.476 161.81 17.596 162.278 17.596C162.83 17.596 163.31 17.458 163.718 17.182C164.126 16.906 164.39 16.516 164.51 16.012H166.508C166.304 16.972 165.824 17.746 165.068 18.334C164.312 18.922 163.382 19.216 162.278 19.216Z" fill="#362E00"/>
<path d="M58.6204 31.3834V29.9496H61.488V40H59.9026V31.3834H58.6204ZM64.5157 37.8631C65.398 37.1002 66.0919 36.4752 66.5975 35.9881C67.1122 35.4918 67.5395 34.9771 67.8796 34.444C68.2197 33.9109 68.3897 33.3778 68.3897 32.8448C68.3897 32.2933 68.2564 31.8613 67.9899 31.5488C67.7325 31.2363 67.3235 31.0801 66.7629 31.0801C66.2206 31.0801 65.7978 31.2547 65.4945 31.604C65.2004 31.944 65.0442 32.4036 65.0258 32.9826H63.5093C63.5368 31.9348 63.8493 31.1352 64.4467 30.5838C65.0534 30.0231 65.8208 29.7428 66.7491 29.7428C67.7509 29.7428 68.5322 30.0185 69.0928 30.57C69.6627 31.1214 69.9476 31.8567 69.9476 32.7758C69.9476 33.4376 69.7776 34.0764 69.4375 34.6922C69.1066 35.2988 68.7068 35.8456 68.2381 36.3328C67.7785 36.8107 67.1903 37.3668 66.4734 38.0009L65.853 38.5524H70.2233V39.8621H63.523V38.7178L64.5157 37.8631ZM73.6444 33.6857V37.8907C73.6444 38.1756 73.7088 38.3824 73.8375 38.511C73.9753 38.6305 74.2051 38.6903 74.5268 38.6903H75.4919V40H74.2511C73.5433 40 73.0011 39.8346 72.6242 39.5037C72.2474 39.1728 72.059 38.6351 72.059 37.8907V33.6857H71.1629V32.4036H72.059V30.5148H73.6444V32.4036H75.4919V33.6857H73.6444ZM80.8696 32.2795C81.4486 32.2795 81.9633 32.4036 82.4137 32.6517C82.8732 32.8999 83.2317 33.2675 83.489 33.7547C83.7556 34.2418 83.8889 34.83 83.8889 35.5194V40H82.331V35.7537C82.331 35.0736 82.1609 34.5543 81.8209 34.1958C81.4808 33.8282 81.0167 33.6444 80.4284 33.6444C79.8402 33.6444 79.3715 33.8282 79.0222 34.1958C78.6821 34.5543 78.5121 35.0736 78.5121 35.7537V40H76.9404V29.7979H78.5121V33.2859C78.7786 32.9642 79.1141 32.7161 79.5185 32.5415C79.9321 32.3668 80.3825 32.2795 80.8696 32.2795ZM94.7 30.4183V37.3254C94.7 38.1802 94.4381 38.8557 93.9142 39.352C93.3995 39.8483 92.7194 40.0965 91.8738 40.0965C91.0282 40.0965 90.3435 39.8483 89.8196 39.352C89.3049 38.8557 89.0475 38.1802 89.0475 37.3254H90.633C90.6422 37.7482 90.7479 38.0837 90.9501 38.3318C91.1615 38.58 91.4694 38.7041 91.8738 38.7041C92.2782 38.7041 92.5861 38.58 92.7975 38.3318C93.0089 38.0745 93.1146 37.739 93.1146 37.3254V30.4183H94.7ZM96.7329 36.1673C96.7329 35.4045 96.8892 34.7289 97.2016 34.1407C97.5233 33.5525 97.9553 33.0975 98.4976 32.7758C99.0491 32.4449 99.6557 32.2795 100.317 32.2795C100.915 32.2795 101.434 32.399 101.875 32.638C102.326 32.8677 102.684 33.1573 102.951 33.5065V32.4036H104.536V40H102.951V38.8695C102.684 39.228 102.321 39.5267 101.862 39.7656C101.402 40.0046 100.878 40.1241 100.29 40.1241C99.6373 40.1241 99.0399 39.9586 98.4976 39.6278C97.9553 39.2877 97.5233 38.8189 97.2016 38.2215C96.8892 37.6149 96.7329 36.9302 96.7329 36.1673ZM102.951 36.1949C102.951 35.671 102.84 35.2161 102.62 34.83C102.408 34.444 102.128 34.1499 101.779 33.9477C101.43 33.7455 101.053 33.6444 100.648 33.6444C100.244 33.6444 99.8671 33.7455 99.5178 33.9477C99.1685 34.1407 98.8836 34.4302 98.663 34.8162C98.4516 35.1931 98.3459 35.6434 98.3459 36.1673C98.3459 36.6912 98.4516 37.1508 98.663 37.546C98.8836 37.9412 99.1685 38.2445 99.5178 38.4559C99.8762 38.6581 100.253 38.7592 100.648 38.7592C101.053 38.7592 101.43 38.6581 101.779 38.4559C102.128 38.2537 102.408 37.9596 102.62 37.5736C102.84 37.1783 102.951 36.7188 102.951 36.1949ZM110.433 32.2795C111.031 32.2795 111.564 32.4036 112.032 32.6517C112.51 32.8999 112.883 33.2675 113.149 33.7547C113.416 34.2418 113.549 34.83 113.549 35.5194V40H111.991V35.7537C111.991 35.0736 111.821 34.5543 111.481 34.1958C111.141 33.8282 110.677 33.6444 110.088 33.6444C109.5 33.6444 109.031 33.8282 108.682 34.1958C108.342 34.5543 108.172 35.0736 108.172 35.7537V40H106.6V32.4036H108.172V33.2721C108.429 32.9596 108.756 32.7161 109.151 32.5415C109.555 32.3668 109.983 32.2795 110.433 32.2795ZM119.797 37.8631C120.679 37.1002 121.373 36.4752 121.878 35.9881C122.393 35.4918 122.821 34.9771 123.161 34.444C123.501 33.9109 123.671 33.3778 123.671 32.8448C123.671 32.2933 123.537 31.8613 123.271 31.5488C123.014 31.2363 122.605 31.0801 122.044 31.0801C121.502 31.0801 121.079 31.2547 120.776 31.604C120.481 31.944 120.325 32.4036 120.307 32.9826H118.79C118.818 31.9348 119.13 31.1352 119.728 30.5838C120.334 30.0231 121.102 29.7428 122.03 29.7428C123.032 29.7428 123.813 30.0185 124.374 30.57C124.944 31.1214 125.229 31.8567 125.229 32.7758C125.229 33.4376 125.059 34.0764 124.719 34.6922C124.388 35.2988 123.988 35.8456 123.519 36.3328C123.06 36.8107 122.471 37.3668 121.754 38.0009L121.134 38.5524H125.504V39.8621H118.804V38.7178L119.797 37.8631ZM126.885 34.8438C126.885 33.2538 127.152 32.013 127.685 31.1214C128.227 30.2207 129.155 29.7703 130.47 29.7703C131.784 29.7703 132.708 30.2207 133.241 31.1214C133.783 32.013 134.054 33.2538 134.054 34.8438C134.054 36.4522 133.783 37.7114 133.241 38.6213C132.708 39.5221 131.784 39.9724 130.47 39.9724C129.155 39.9724 128.227 39.5221 127.685 38.6213C127.152 37.7114 126.885 36.4522 126.885 34.8438ZM132.51 34.8438C132.51 34.0993 132.459 33.4697 132.358 32.955C132.266 32.4403 132.073 32.0222 131.779 31.7005C131.485 31.3696 131.049 31.2042 130.47 31.2042C129.891 31.2042 129.454 31.3696 129.16 31.7005C128.866 32.0222 128.668 32.4403 128.567 32.955C128.475 33.4697 128.429 34.0993 128.429 34.8438C128.429 35.6159 128.475 36.2638 128.567 36.7877C128.659 37.3116 128.852 37.7344 129.146 38.0561C129.449 38.3778 129.891 38.5386 130.47 38.5386C131.049 38.5386 131.485 38.3778 131.779 38.0561C132.083 37.7344 132.28 37.3116 132.372 36.7877C132.464 36.2638 132.51 35.6159 132.51 34.8438ZM136.586 37.8631C137.468 37.1002 138.162 36.4752 138.667 35.9881C139.182 35.4918 139.61 34.9771 139.95 34.444C140.29 33.9109 140.46 33.3778 140.46 32.8448C140.46 32.2933 140.326 31.8613 140.06 31.5488C139.803 31.2363 139.394 31.0801 138.833 31.0801C138.291 31.0801 137.868 31.2547 137.564 31.604C137.27 31.944 137.114 32.4036 137.096 32.9826H135.579C135.607 31.9348 135.919 31.1352 136.517 30.5838C137.123 30.0231 137.891 29.7428 138.819 29.7428C139.821 29.7428 140.602 30.0185 141.163 30.57C141.733 31.1214 142.018 31.8567 142.018 32.7758C142.018 33.4376 141.848 34.0764 141.507 34.6922C141.177 35.2988 140.777 35.8456 140.308 36.3328C139.848 36.8107 139.26 37.3668 138.543 38.0009L137.923 38.5524H142.293V39.8621H135.593V38.7178L136.586 37.8631ZM144.543 37.8631C145.425 37.1002 146.119 36.4752 146.624 35.9881C147.139 35.4918 147.566 34.9771 147.906 34.444C148.247 33.9109 148.417 33.3778 148.417 32.8448C148.417 32.2933 148.283 31.8613 148.017 31.5488C147.759 31.2363 147.35 31.0801 146.79 31.0801C146.248 31.0801 145.825 31.2547 145.521 31.604C145.227 31.944 145.071 32.4036 145.053 32.9826H143.536C143.564 31.9348 143.876 31.1352 144.474 30.5838C145.08 30.0231 145.848 29.7428 146.776 29.7428C147.778 29.7428 148.559 30.0185 149.12 30.57C149.69 31.1214 149.974 31.8567 149.974 32.7758C149.974 33.4376 149.804 34.0764 149.464 34.6922C149.133 35.2988 148.734 35.8456 148.265 36.3328C147.805 36.8107 147.217 37.3668 146.5 38.0009L145.88 38.5524H150.25V39.8621H143.55V38.7178L144.543 37.8631ZM153.561 38.1112L151.893 41.9163H150.873L151.851 38.1112H153.561ZM158.102 31.3834V29.9496H160.97V40H159.384V31.3834H158.102ZM163.997 37.8631C164.88 37.1002 165.574 36.4752 166.079 35.9881C166.594 35.4918 167.021 34.9771 167.361 34.444C167.701 33.9109 167.871 33.3778 167.871 32.8448C167.871 32.2933 167.738 31.8613 167.472 31.5488C167.214 31.2363 166.805 31.0801 166.244 31.0801C165.702 31.0801 165.279 31.2547 164.976 31.604C164.682 31.944 164.526 32.4036 164.507 32.9826H162.991C163.018 31.9348 163.331 31.1352 163.928 30.5838C164.535 30.0231 165.302 29.7428 166.231 29.7428C167.233 29.7428 168.014 30.0185 168.574 30.57C169.144 31.1214 169.429 31.8567 169.429 32.7758C169.429 33.4376 169.259 34.0764 168.919 34.6922C168.588 35.2988 168.188 35.8456 167.72 36.3328C167.26 36.8107 166.672 37.3668 165.955 38.0009L165.335 38.5524H169.705V39.8621H163.005V38.7178L163.997 37.8631ZM171.927 40.0965C171.642 40.0965 171.403 40 171.21 39.807C171.017 39.614 170.92 39.375 170.92 39.0901C170.92 38.8052 171.017 38.5662 171.21 38.3732C171.403 38.1802 171.642 38.0837 171.927 38.0837C172.202 38.0837 172.437 38.1802 172.63 38.3732C172.823 38.5662 172.919 38.8052 172.919 39.0901C172.919 39.375 172.823 39.614 172.63 39.807C172.437 40 172.202 40.0965 171.927 40.0965ZM174.411 34.8438C174.411 33.2538 174.678 32.013 175.211 31.1214C175.753 30.2207 176.681 29.7703 177.996 29.7703C179.31 29.7703 180.234 30.2207 180.767 31.1214C181.309 32.013 181.58 33.2538 181.58 34.8438C181.58 36.4522 181.309 37.7114 180.767 38.6213C180.234 39.5221 179.31 39.9724 177.996 39.9724C176.681 39.9724 175.753 39.5221 175.211 38.6213C174.678 37.7114 174.411 36.4522 174.411 34.8438ZM180.036 34.8438C180.036 34.0993 179.985 33.4697 179.884 32.955C179.792 32.4403 179.599 32.0222 179.305 31.7005C179.011 31.3696 178.575 31.2042 177.996 31.2042C177.417 31.2042 176.98 31.3696 176.686 31.7005C176.392 32.0222 176.194 32.4403 176.093 32.955C176.001 33.4697 175.955 34.0993 175.955 34.8438C175.955 35.6159 176.001 36.2638 176.093 36.7877C176.185 37.3116 176.378 37.7344 176.672 38.0561C176.975 38.3778 177.417 38.5386 177.996 38.5386C178.575 38.5386 179.011 38.3778 179.305 38.0561C179.609 37.7344 179.806 37.3116 179.898 36.7877C179.99 36.2638 180.036 35.6159 180.036 34.8438ZM183.243 34.8438C183.243 33.2538 183.51 32.013 184.043 31.1214C184.585 30.2207 185.513 29.7703 186.828 29.7703C188.142 29.7703 189.066 30.2207 189.599 31.1214C190.141 32.013 190.412 33.2538 190.412 34.8438C190.412 36.4522 190.141 37.7114 189.599 38.6213C189.066 39.5221 188.142 39.9724 186.828 39.9724C185.513 39.9724 184.585 39.5221 184.043 38.6213C183.51 37.7114 183.243 36.4522 183.243 34.8438ZM188.868 34.8438C188.868 34.0993 188.818 33.4697 188.716 32.955C188.625 32.4403 188.432 32.0222 188.137 31.7005C187.843 31.3696 187.407 31.2042 186.828 31.2042C186.249 31.2042 185.812 31.3696 185.518 31.7005C185.224 32.0222 185.026 32.4403 184.925 32.955C184.833 33.4697 184.787 34.0993 184.787 34.8438C184.787 35.6159 184.833 36.2638 184.925 36.7877C185.017 37.3116 185.21 37.7344 185.504 38.0561C185.807 38.3778 186.249 38.5386 186.828 38.5386C187.407 38.5386 187.843 38.3778 188.137 38.0561C188.441 37.7344 188.638 37.3116 188.73 36.7877C188.822 36.2638 188.868 35.6159 188.868 34.8438ZM201.64 38.0423H197.628L196.939 40H195.298L198.731 30.4045H200.551L203.984 40H202.329L201.64 38.0423ZM201.199 36.7601L199.641 32.3071L198.069 36.7601H201.199ZM215.568 30.4183V40H213.996V33.4376L211.074 40H209.984L207.048 33.4376V40H205.476V30.4183H207.172L210.536 37.932L213.886 30.4183H215.568Z" fill="#94928C"/>
<rect width="46.2383" height="46.2383" rx="6.76658" fill="#52AD0B"/>
<path d="M9.93934 33.9393C9.35355 34.5251 9.35355 35.4749 9.93934 36.0607C10.5251 36.6464 11.4749 36.6464 12.0607 36.0607L9.93934 33.9393ZM36.5 11C36.5 10.1716 35.8284 9.5 35 9.5H21.5C20.6716 9.5 20 10.1716 20 11C20 11.8284 20.6716 12.5 21.5 12.5H33.5V24.5C33.5 25.3284 34.1716 26 35 26C35.8284 26 36.5 25.3284 36.5 24.5V11ZM12.0607 36.0607L36.0607 12.0607L33.9393 9.93934L9.93934 33.9393L12.0607 36.0607Z" fill="white"/>
</svg>
