<svg width="20" height="17" viewBox="0 0 20 17" fill="none" xmlns="http://www.w3.org/2000/svg">
<path d="M9 13.9346H11V12.9346H12C12.55 12.9346 13 12.4846 13 11.9346V8.93457C13 8.38457 12.55 7.93457 12 7.93457H9V6.93457H13V4.93457H11V3.93457H9V4.93457H8C7.45 4.93457 7 5.38457 7 5.93457V8.93457C7 9.48457 7.45 9.93457 8 9.93457H11V10.9346H7V12.9346H9V13.9346ZM18 0.93457H2C0.89 0.93457 0.00999999 1.82457 0.00999999 2.93457L0 14.9346C0 16.0446 0.89 16.9346 2 16.9346H18C19.11 16.9346 20 16.0446 20 14.9346V2.93457C20 1.82457 19.11 0.93457 18 0.93457ZM18 14.9346H2V2.93457H18V14.9346Z" fill="white"/>
</svg>
