<svg width="20" height="17" viewBox="0 0 20 17" fill="none" xmlns="http://www.w3.org/2000/svg">
<path d="M18.19 0.93457H2C0.9 0.93457 0.00999999 1.83457 0.00999999 2.93457V6.93457C1.11 6.93457 2 7.83457 2 8.93457C2 10.0346 1.11 10.9346 0 10.9346V14.9346C0 16.0346 0.9 16.9346 2 16.9346H18C19.1 16.9346 20 16.0346 20 14.9346V2.93457C20 1.83457 19.19 0.93457 18.19 0.93457ZM18 14.9346H2V12.3946C3.19 11.7046 4 10.4046 4 8.93457C4 7.45457 3.2 6.16457 2.01 5.47457L2 2.93457H18V14.9346ZM6.87 12.5946L5.21 9.71457L6.14 9.46457L7.4 10.4546L9.79 9.81457L7.39 5.65457L8.79 5.27457L12.8 9.01457L15.24 8.36457C15.75 8.22457 16.28 8.53457 16.42 9.04457C16.55 9.55457 16.25 10.0846 15.73 10.2346L6.87 12.5946Z" fill="white"/>
</svg>
