<svg width="45" height="44" viewBox="0 0 45 44" fill="none" xmlns="http://www.w3.org/2000/svg">
<path fill-rule="evenodd" clip-rule="evenodd" d="M22.5 23.8306C15.4232 23.8306 9.68641 29.5674 9.68641 36.6441V40.3051C9.68641 41.3161 8.86686 42.1357 7.8559 42.1357C6.84494 42.1357 6.02539 41.3161 6.02539 40.3051V36.6441C6.02539 27.5455 13.4013 20.1696 22.5 20.1696C31.5986 20.1696 38.9745 27.5455 38.9745 36.6441V40.3051C38.9745 41.3161 38.155 42.1357 37.144 42.1357C36.1331 42.1357 35.3135 41.3161 35.3135 40.3051V36.6441C35.3135 29.5674 29.5767 23.8306 22.5 23.8306Z" fill="white"/>
<path fill-rule="evenodd" clip-rule="evenodd" d="M22.4987 20.1696C26.5425 20.1696 29.8207 16.8914 29.8207 12.8476C29.8207 8.8037 26.5425 5.52552 22.4987 5.52552C18.4548 5.52552 15.1766 8.8037 15.1766 12.8476C15.1766 16.8914 18.4548 20.1696 22.4987 20.1696ZM22.4987 23.8306C28.5644 23.8306 33.4817 18.9133 33.4817 12.8476C33.4817 6.78178 28.5644 1.8645 22.4987 1.8645C16.4329 1.8645 11.5156 6.78178 11.5156 12.8476C11.5156 18.9133 16.4329 23.8306 22.4987 23.8306Z" fill="white"/>
</svg>
