<svg width="18" height="18" viewBox="0 0 18 18" fill="none" xmlns="http://www.w3.org/2000/svg">
<path d="M9.00004 2.5C10.1917 2.5 11.1667 3.475 11.1667 4.66667C11.1667 5.85834 10.1917 6.83334 9.00004 6.83334C7.80837 6.83334 6.83337 5.85834 6.83337 4.66667C6.83337 3.475 7.80837 2.5 9.00004 2.5ZM9.00004 13.3333C11.925 13.3333 15.2834 14.7308 15.5 15.5H2.50004C2.74921 14.72 6.08587 13.3333 9.00004 13.3333ZM9.00004 0.333336C6.60587 0.333336 4.66671 2.2725 4.66671 4.66667C4.66671 7.06084 6.60587 9 9.00004 9C11.3942 9 13.3334 7.06084 13.3334 4.66667C13.3334 2.2725 11.3942 0.333336 9.00004 0.333336ZM9.00004 11.1667C6.10754 11.1667 0.333374 12.6183 0.333374 15.5V17.6667H17.6667V15.5C17.6667 12.6183 11.8925 11.1667 9.00004 11.1667Z" fill="black"/>
</svg>
