<svg width="20" height="26" viewBox="0 0 20 26" fill="none" xmlns="http://www.w3.org/2000/svg">
<path d="M17 9.03434H15.8334V6.70101C15.8334 3.48101 13.22 0.867676 10 0.867676C6.78002 0.867676 4.16669 3.48101 4.16669 6.70101V9.03434H3.00002C1.71669 9.03434 0.666687 10.0843 0.666687 11.3677V23.0343C0.666687 24.3177 1.71669 25.3677 3.00002 25.3677H17C18.2834 25.3677 19.3334 24.3177 19.3334 23.0343V11.3677C19.3334 10.0843 18.2834 9.03434 17 9.03434ZM6.50002 6.70101C6.50002 4.76434 8.06335 3.20101 10 3.20101C11.9367 3.20101 13.5 4.76434 13.5 6.70101V9.03434H6.50002V6.70101ZM17 23.0343H3.00002V11.3677H17V23.0343ZM10 19.5343C11.2834 19.5343 12.3334 18.4843 12.3334 17.201C12.3334 15.9177 11.2834 14.8677 10 14.8677C8.71669 14.8677 7.66669 15.9177 7.66669 17.201C7.66669 18.4843 8.71669 19.5343 10 19.5343Z" fill="#362E00"/>
</svg>
