<svg width="18" height="19" viewBox="0 0 18 19" fill="none" xmlns="http://www.w3.org/2000/svg">
<path d="M13 1.51152C14.5 1.51152 16 2.11152 17.2 3.21152L18 2.41152C16.6 1.01152 14.8 0.311523 13 0.311523C11.2 0.311523 9.4 1.01152 8 2.41152L8.8 3.21152C10 2.11152 11.5 1.51152 13 1.51152ZM9.7 4.01152L10.5 4.81152C11.2 4.11152 12.1 3.81152 13 3.81152C13.9 3.81152 14.8 4.11152 15.5 4.81152L16.3 4.01152C15.4 3.11152 14.2 2.61152 13 2.61152C11.8 2.61152 10.6 3.11152 9.7 4.01152ZM16 10.3115H14V6.31152H12V10.3115H2C0.9 10.3115 0 11.2115 0 12.3115V16.3115C0 17.4115 0.9 18.3115 2 18.3115H16C17.1 18.3115 18 17.4115 18 16.3115V12.3115C18 11.2115 17.1 10.3115 16 10.3115ZM16 16.3115H2V12.3115H16V16.3115ZM3 13.3115H5V15.3115H3V13.3115ZM6.5 13.3115H8.5V15.3115H6.5V13.3115ZM10 13.3115H12V15.3115H10V13.3115Z" fill="white"/>
</svg>
